<?xml version="1.0" standalone="no"?>
<!DOCTYPE svg PUBLIC "-//W3C//DTD SVG 20010904//EN"
 "http://www.w3.org/TR/2001/REC-SVG-20010904/DTD/svg10.dtd">
<svg version="1.0" xmlns="http://www.w3.org/2000/svg"
 width="3400.000000pt" height="1903.000000pt" viewBox="0 0 3400.000000 1903.000000"
 preserveAspectRatio="xMidYMid meet">
<metadata>
Created by potrace 1.15, written by Peter Selinger 2001-2017
</metadata>
<g transform="translate(0.000000,1903.000000) scale(0.100000,-0.100000)"
fill="#000000" stroke="none">
<path d="M14068 16468 c-7 -7 -26 -14 -41 -15 -38 -3 -189 -79 -273 -139 -97
-69 -254 -229 -354 -361 -57 -76 -92 -113 -105 -114 l-20 0 20 -8 c11 -5 23
-4 26 1 3 5 10 10 15 11 5 1 8 7 6 14 -2 7 3 12 10 11 6 -2 13 3 14 10 1 6 2
17 3 23 0 5 6 7 11 4 6 -4 10 -3 9 2 -4 16 13 43 24 36 5 -3 8 -2 4 3 -6 11
17 46 30 45 4 -1 8 2 8 7 1 14 24 47 32 45 4 -2 8 1 8 5 0 12 52 72 58 66 2
-3 35 29 73 70 37 41 72 72 77 69 6 -3 7 -1 4 4 -7 10 20 28 36 24 4 0 10 6
13 14 3 8 10 12 15 9 5 -3 12 2 15 10 3 9 10 14 15 11 4 -3 13 4 19 15 6 11
15 18 21 15 5 -4 9 -1 9 5 0 6 5 8 10 5 6 -3 10 -1 10 5 0 6 5 8 10 5 6 -3 10
-1 10 5 0 6 5 8 10 5 6 -3 10 -1 10 5 0 6 5 8 10 5 6 -3 10 -1 10 5 0 6 5 8
10 5 6 -3 10 -1 10 5 0 7 7 9 16 6 10 -4 13 -2 8 6 -5 8 -2 9 10 5 11 -5 15
-3 10 5 -5 7 0 9 14 6 14 -4 20 -2 15 5 -4 6 2 8 15 5 12 -4 25 -2 28 3 3 5
10 6 16 3 7 -5 8 -2 3 6 -6 10 -1 11 21 6 21 -5 25 -4 14 4 -20 13 -36 13 -52
-2z"/>
<path d="M19095 16440 l30 -7 -35 -5 c-35 -5 -35 -5 7 -6 38 -2 50 -10 132
-88 49 -47 92 -84 95 -82 2 2 7 0 11 -4 4 -3 -67 -7 -158 -7 l-164 -2 -96 88
-96 88 42 6 42 6 -50 2 c-27 2 -58 4 -68 6 -18 3 -18 3 -2 -16 10 -10 21 -17
25 -14 4 2 33 -25 64 -60 32 -36 61 -63 65 -60 4 2 21 -9 36 -25 l29 -30 170
0 c114 0 166 -4 156 -10 -12 -8 -9 -10 13 -10 15 0 27 3 27 8 0 12 -146 153
-152 147 -3 -4 -18 10 -33 29 -15 20 -31 33 -36 30 -5 -3 -12 2 -15 10 -4 10
-17 16 -38 15 l-31 -1 30 -8z"/>
<path d="M15205 16362 c-3 -7 -9 -11 -14 -7 -6 3 -15 -4 -21 -15 -6 -11 -15
-18 -19 -15 -5 3 -12 -2 -15 -11 -3 -8 -10 -12 -16 -9 -6 3 -13 -1 -16 -9 -3
-9 -10 -14 -15 -11 -4 3 -13 -4 -19 -15 -6 -11 -15 -18 -19 -15 -5 3 -12 -2
-15 -11 -3 -8 -10 -13 -15 -10 -5 3 -12 -1 -15 -10 -3 -8 -10 -13 -15 -10 -5
3 -12 -1 -15 -10 -3 -8 -10 -13 -15 -10 -5 3 -12 -1 -15 -10 -3 -8 -10 -12
-16 -9 -5 3 -10 1 -10 -5 0 -6 -5 -8 -10 -5 -6 3 -13 -1 -16 -9 -3 -9 -10 -14
-14 -11 -4 3 -11 -2 -14 -11 -3 -8 -10 -12 -16 -9 -5 3 -10 1 -10 -5 0 -6 -4
-8 -10 -5 -5 3 -10 1 -10 -5 0 -6 -5 -8 -10 -5 -6 3 -13 -1 -16 -9 -3 -9 -10
-13 -15 -10 -5 3 -9 0 -9 -6 0 -6 -4 -8 -10 -5 -5 3 -10 1 -10 -5 0 -6 -4 -8
-10 -5 -5 3 -10 1 -10 -5 0 -6 -4 -8 -10 -5 -5 3 -10 1 -10 -5 0 -6 -4 -8 -10
-5 -5 3 -10 1 -10 -5 0 -6 -4 -8 -10 -5 -5 3 -10 1 -10 -5 0 -6 -5 -8 -12 -4
-7 5 -8 3 -3 -6 6 -10 4 -12 -8 -7 -10 3 -17 2 -17 -3 0 -5 -7 -6 -17 -3 -12
5 -14 3 -8 -7 6 -10 4 -12 -9 -7 -11 5 -15 3 -10 -5 5 -8 2 -9 -10 -5 -11 5
-15 3 -10 -5 5 -7 0 -9 -14 -6 -14 4 -20 2 -16 -4 4 -6 -2 -8 -16 -3 -16 5
-20 4 -15 -5 5 -9 1 -10 -16 -6 -20 6 -21 5 -7 -4 44 -28 347 131 623 326 108
76 111 78 165 75 31 -1 67 2 80 8 19 7 9 9 -40 5 -44 -3 -59 -1 -45 5 16 7 13
9 -17 8 -21 -1 -40 -8 -43 -15z"/>
<path d="M18820 16150 l155 -6 -145 -5 -145 -5 148 -2 149 -2 116 -104 c178
-158 315 -264 417 -322 174 -98 270 -138 294 -123 13 8 11 9 -8 3 -16 -4 -21
-3 -17 5 5 7 1 9 -8 5 -9 -3 -16 -1 -16 5 0 6 -7 8 -17 4 -11 -4 -14 -3 -9 5
5 8 2 10 -8 6 -9 -3 -16 -1 -16 5 0 6 -7 8 -17 4 -12 -5 -14 -3 -8 7 5 9 4 11
-3 6 -7 -4 -12 -2 -12 4 0 6 -4 8 -10 5 -5 -3 -10 -1 -10 5 0 6 -4 8 -10 5 -5
-3 -10 -1 -10 5 0 6 -4 8 -10 5 -5 -3 -10 -1 -10 5 0 6 -4 8 -10 5 -5 -3 -10
-1 -10 5 0 6 -4 8 -10 5 -5 -3 -10 -1 -10 4 0 6 -3 10 -7 10 -21 -3 -33 2 -27
13 4 7 3 8 -4 4 -7 -4 -12 -2 -12 4 0 6 -5 8 -10 5 -6 -3 -13 1 -16 9 -3 9
-10 14 -14 11 -5 -3 -13 2 -18 11 -5 9 -12 15 -15 15 -21 -3 -27 0 -21 11 4 7
3 8 -4 4 -6 -3 -16 3 -22 14 -6 11 -15 18 -19 15 -5 -3 -12 2 -15 11 -3 8 -10
13 -15 9 -6 -3 -15 4 -21 15 -6 11 -15 18 -20 15 -5 -3 -18 8 -30 25 -12 17
-25 28 -30 25 -5 -3 -18 8 -30 25 -12 17 -25 28 -30 25 -4 -3 -23 13 -40 35
-17 22 -35 38 -40 35 -4 -3 -27 17 -50 45 -23 28 -46 48 -51 45 -4 -3 -14 3
-21 15 -12 19 -21 20 -168 18 l-155 -2 155 -6z"/>
<path d="M19124 16118 c22 -24 44 -42 48 -41 4 2 22 -15 39 -37 18 -22 35 -37
40 -35 4 3 20 -10 34 -30 15 -19 31 -32 36 -30 4 3 13 -4 19 -15 6 -11 15 -18
20 -15 5 3 14 -4 20 -15 6 -11 15 -18 20 -15 5 3 14 -4 20 -15 6 -11 15 -18
21 -15 5 4 12 -1 15 -9 3 -9 10 -14 14 -11 5 3 13 -2 18 -11 5 -9 12 -15 15
-15 21 3 27 0 21 -11 -4 -7 -3 -8 4 -4 7 4 12 2 12 -4 0 -6 5 -8 10 -5 6 3 13
-1 16 -9 3 -9 10 -13 15 -10 5 3 9 0 9 -6 0 -6 5 -8 10 -5 6 3 10 1 10 -5 0
-6 5 -8 10 -5 6 3 10 1 10 -5 0 -6 4 -9 9 -5 5 3 17 -2 25 -11 9 -8 16 -12 16
-7 0 4 4 2 9 -6 5 -7 11 -9 14 -4 3 5 -26 26 -66 47 -115 60 -253 157 -382
268 l-120 103 145 3 145 3 46 -53 c92 -105 317 -383 314 -387 -2 -2 -18 1 -34
7 -22 8 -32 8 -37 0 -4 -7 -2 -8 4 -4 7 4 12 3 12 -3 0 -6 7 -8 15 -5 8 4 15
1 15 -5 0 -6 7 -8 17 -4 12 5 14 3 8 -7 -5 -9 -4 -11 3 -6 7 4 12 2 12 -3 0
-6 3 -10 8 -10 4 1 9 0 12 -1 36 -14 41 -5 10 20 -19 16 -35 33 -35 39 0 6 -4
11 -10 12 -9 0 -29 26 -30 39 -1 14 -18 30 -26 25 -5 -4 -10 -1 -10 4 -1 6 -2
15 -3 20 -1 14 -26 37 -26 26 0 -5 -8 2 -17 15 -10 14 -18 28 -18 33 0 4 -4 7
-10 8 -10 0 -29 27 -30 42 0 4 -4 8 -10 9 -13 1 -34 31 -29 39 2 4 -3 12 -11
19 -8 7 -15 9 -15 4 0 -4 -6 1 -14 11 -8 11 -12 23 -10 26 2 4 -3 12 -11 19
-8 7 -15 9 -15 5 0 -8 -45 46 -45 55 -1 13 -17 30 -26 25 -5 -4 -9 -1 -9 4 0
7 -57 11 -168 11 l-169 0 41 -42z"/>
<path d="M20010 16040 c19 -16 35 -35 35 -42 1 -7 6 -12 13 -10 7 1 13 -2 13
-8 1 -5 2 -16 3 -22 1 -7 7 -12 14 -10 7 1 13 -2 13 -8 1 -5 2 -16 3 -22 1 -7
7 -12 14 -10 11 2 16 -11 13 -31 -1 -5 3 -6 8 -3 9 6 26 -22 22 -37 -1 -5 3
-6 9 -2 9 6 14 -8 11 -28 -1 -5 3 -5 9 -2 7 4 10 0 8 -11 -2 -11 2 -18 10 -16
11 2 16 -11 13 -31 -1 -5 3 -6 9 -2 9 6 14 -8 11 -28 -1 -5 3 -6 9 -2 9 6 14
-8 11 -28 -1 -5 3 -6 9 -2 9 6 14 -7 11 -27 0 -5 4 -8 10 -8 5 0 7 -5 3 -12
-4 -7 -3 -8 4 -4 11 7 17 -6 13 -27 -1 -5 3 -6 9 -2 9 6 14 -8 11 -28 -1 -5 4
-5 10 -1 9 5 10 2 6 -10 -4 -10 -3 -15 3 -11 9 6 14 -8 11 -28 -1 -5 4 -5 10
-1 8 5 10 2 6 -8 -8 -24 12 -38 46 -31 23 5 28 3 22 -7 -6 -10 -4 -12 9 -7 10
4 23 7 29 8 21 1 -27 18 -54 18 -22 1 -40 23 -127 159 -56 87 -137 206 -181
265 -43 59 -77 107 -75 107 17 0 147 -67 205 -106 131 -87 240 -205 354 -383
64 -101 64 -102 22 -89 -25 8 -39 7 -53 -1 -16 -10 -15 -10 10 -5 21 5 27 4
22 -5 -6 -9 0 -10 21 -6 23 5 25 4 13 -5 -13 -10 -12 -11 4 -6 11 4 23 1 27
-6 7 -10 11 -10 21 1 11 11 11 13 -1 6 -11 -6 -13 -4 -8 9 5 11 3 15 -5 10 -8
-5 -9 -2 -5 10 4 10 1 19 -8 22 -8 4 -12 11 -8 17 4 6 1 7 -6 3 -8 -6 -11 -2
-9 10 2 12 -2 18 -11 16 -9 -2 -11 3 -7 13 3 9 2 13 -4 10 -9 -6 -14 8 -11 28
1 5 -3 6 -9 2 -9 -6 -14 8 -11 28 1 5 -3 6 -9 2 -9 -6 -14 8 -11 28 1 4 -6 10
-14 13 -8 3 -13 10 -10 14 3 5 -8 18 -25 30 -16 12 -29 25 -27 30 1 4 -2 9 -8
11 -12 4 -62 62 -55 64 3 1 -1 9 -9 18 -7 9 -17 15 -21 12 -4 -3 -23 12 -41
33 -18 20 -37 37 -42 37 -5 0 -14 8 -21 17 -7 10 -16 15 -19 11 -4 -3 -9 2
-13 11 -3 9 -10 13 -15 10 -5 -3 -12 2 -15 10 -3 9 -10 13 -15 10 -5 -3 -9 0
-9 6 0 6 -4 9 -10 5 -5 -3 -18 3 -28 13 -10 10 -23 17 -29 15 -6 -2 -17 2 -24
10 -8 7 -20 12 -28 9 -8 -3 -11 0 -7 7 5 7 1 9 -10 4 -12 -5 -15 -3 -9 6 6 10
2 11 -15 6 -16 -5 -20 -4 -16 4 4 6 4 11 -1 10 -4 -1 -10 0 -13 1 -36 14 -41
5 -10 -20z"/>
<path d="M14307 15898 c4 -8 -5 -9 -28 -5 -26 5 -30 4 -19 -4 12 -8 8 -9 -17
-5 -26 4 -35 1 -43 -15 -6 -11 -15 -17 -19 -14 -5 2 -16 -7 -25 -20 -9 -14
-21 -23 -25 -20 -5 3 -12 -2 -15 -11 -3 -8 -10 -13 -15 -9 -6 3 -15 -4 -21
-15 -6 -11 -15 -18 -19 -15 -5 3 -12 -2 -15 -11 -3 -8 -10 -12 -16 -9 -5 3
-10 1 -10 -5 0 -6 -5 -8 -10 -5 -6 3 -13 -1 -16 -9 -3 -9 -10 -14 -14 -11 -4
3 -11 -2 -14 -11 -3 -8 -10 -12 -16 -9 -5 3 -10 1 -10 -5 0 -6 -4 -8 -10 -5
-5 3 -10 1 -10 -5 0 -6 -4 -8 -10 -5 -5 3 -10 1 -10 -5 0 -6 -4 -8 -10 -5 -5
3 -10 1 -10 -5 0 -6 -5 -8 -12 -4 -7 5 -8 3 -3 -6 6 -10 4 -12 -9 -7 -11 5
-15 3 -10 -5 5 -8 2 -9 -9 -5 -10 3 -17 2 -17 -4 0 -6 -5 -7 -12 -3 -7 5 -8 3
-3 -6 6 -10 4 -12 -8 -7 -10 3 -17 2 -17 -4 0 -6 -4 -7 -10 -4 -5 3 -10 1 -10
-5 0 -7 -7 -9 -16 -6 -10 4 -13 2 -8 -6 5 -8 2 -9 -10 -5 -11 5 -15 3 -10 -5
5 -7 0 -9 -14 -6 -14 4 -20 2 -15 -5 4 -6 0 -8 -10 -4 -10 4 -17 2 -17 -4 0
-6 -7 -8 -16 -5 -10 4 -13 2 -8 -6 5 -7 0 -9 -14 -6 -14 4 -20 2 -16 -4 4 -6
-2 -8 -16 -3 -16 5 -20 4 -15 -5 5 -9 1 -10 -14 -5 -15 4 -21 3 -19 -7 2 -7
-2 -12 -9 -11 -7 2 -42 -31 -79 -72 -37 -41 -71 -72 -75 -69 -5 2 -18 -9 -30
-25 -12 -17 -26 -28 -30 -25 -5 2 -16 -7 -25 -21 -9 -13 -20 -22 -25 -20 -4 3
-13 -4 -19 -15 -6 -11 -15 -18 -21 -15 -5 4 -9 1 -9 -5 0 -6 -4 -9 -9 -5 -6 3
-15 -4 -21 -15 -6 -11 -15 -18 -21 -15 -5 4 -9 1 -9 -5 0 -6 -5 -8 -12 -4 -7
4 -8 3 -4 -4 6 -11 -6 -16 -26 -13 -5 0 -8 -4 -8 -11 0 -6 -3 -9 -6 -6 -3 4
-14 -2 -25 -13 -11 -11 -24 -17 -29 -14 -6 4 -10 1 -10 -5 0 -6 -4 -8 -10 -5
-5 3 -10 1 -10 -5 0 -6 -4 -8 -10 -5 -5 3 -10 1 -10 -5 0 -6 -4 -8 -10 -5 -5
3 -10 1 -10 -5 0 -6 -4 -8 -10 -5 -5 3 -10 1 -10 -6 0 -7 -3 -9 -6 -6 -4 4
-15 -3 -25 -14 -9 -11 -21 -20 -26 -20 -4 1 -9 -3 -9 -9 -1 -5 -2 -14 -3 -20
0 -5 -6 -9 -13 -7 -7 1 -13 -4 -14 -10 -1 -7 -2 -18 -3 -23 0 -6 -7 -9 -13 -8
-7 2 -12 -2 -11 -8 1 -6 -16 -26 -37 -43 -22 -17 -39 -35 -37 -39 3 -10 -39
-63 -45 -56 -3 3 -27 -20 -53 -50 -26 -31 -51 -54 -55 -51 -5 3 -21 -10 -35
-30 -15 -19 -31 -32 -36 -30 -4 3 -13 -4 -19 -15 -6 -11 -15 -18 -20 -15 -5 3
-14 -4 -20 -15 -6 -11 -15 -18 -20 -15 -5 3 -14 -4 -20 -15 -6 -11 -15 -18
-19 -15 -5 3 -12 -2 -15 -11 -3 -8 -10 -13 -15 -10 -5 3 -12 -1 -15 -10 -3 -8
-10 -13 -15 -10 -5 3 -12 -1 -15 -10 -3 -8 -10 -13 -15 -10 -5 3 -12 -1 -15
-10 -3 -8 -10 -12 -16 -9 -5 3 -10 1 -10 -5 0 -6 -5 -8 -10 -5 -6 3 -13 -1
-16 -9 -3 -9 -10 -13 -15 -10 -5 3 -9 0 -9 -6 0 -6 -5 -8 -10 -5 -6 3 -13 -1
-16 -9 -3 -9 -10 -13 -15 -10 -5 3 -9 0 -9 -6 0 -6 -5 -8 -12 -4 -7 4 -8 3 -4
-4 6 -11 -6 -16 -26 -13 -5 0 -8 -4 -8 -10 0 -5 -4 -7 -10 -4 -5 3 -10 1 -10
-5 0 -6 -5 -8 -12 -4 -7 4 -8 3 -4 -4 6 -11 -6 -16 -26 -13 -5 0 -8 -4 -8 -10
0 -5 -4 -7 -10 -4 -5 3 -10 1 -10 -4 0 -6 -6 -10 -12 -9 -8 2 -12 -6 -10 -21
2 -13 -1 -21 -6 -17 -6 4 -8 -3 -4 -16 3 -13 1 -19 -5 -15 -7 5 -9 -1 -5 -15
3 -13 1 -19 -5 -15 -7 5 -9 -1 -5 -15 3 -13 1 -19 -5 -15 -7 5 -9 -1 -5 -15 3
-13 1 -19 -5 -15 -7 5 -9 -1 -5 -15 3 -13 1 -19 -5 -15 -7 5 -9 -1 -5 -15 3
-13 1 -19 -5 -15 -7 5 -9 -1 -5 -15 3 -13 1 -19 -5 -15 -7 5 -9 -1 -5 -15 3
-14 1 -19 -6 -14 -8 5 -10 1 -5 -10 4 -11 3 -15 -4 -11 -7 5 -9 -1 -5 -15 3
-13 1 -19 -5 -15 -7 5 -9 -1 -6 -15 4 -19 3 -20 -7 -8 -9 12 -10 11 -5 -9 5
-16 4 -21 -4 -17 -7 5 -8 1 -4 -11 9 -23 27 19 95 219 47 140 56 158 83 172
66 34 200 116 310 189 185 123 349 274 481 442 55 71 73 86 138 119 168 85
289 170 451 320 55 51 109 95 120 98 176 52 397 168 581 305 39 29 79 53 90
54 10 0 37 6 59 13 35 10 37 13 17 18 -14 4 -20 2 -15 -4z"/>
<path d="M12743 15666 c-45 -25 -104 -59 -130 -77 -72 -50 -212 -194 -275
-284 -39 -55 -70 -88 -100 -105 -204 -114 -380 -303 -481 -515 -22 -46 -42
-70 -89 -105 -122 -92 -252 -239 -324 -368 -28 -49 -33 -66 -24 -80 9 -14 10
-13 4 7 -4 16 -3 21 5 17 7 -5 8 -1 4 10 -4 12 -3 15 5 10 8 -5 10 -1 5 10 -4
12 -3 15 6 10 6 -4 10 -4 9 1 -4 16 14 53 23 48 5 -3 6 2 2 11 -4 12 -3 15 6
10 6 -4 11 -4 10 1 -4 21 2 34 13 27 7 -4 8 -3 4 4 -3 6 3 16 14 22 11 6 19
14 18 18 -2 13 14 42 22 37 4 -3 13 2 20 10 7 8 9 15 4 15 -5 0 16 25 46 55
29 30 57 52 61 49 4 -2 17 9 29 26 12 17 25 28 30 25 5 -3 14 4 20 15 6 11 15
18 20 15 5 -3 14 4 20 15 6 11 15 18 20 15 6 -4 7 1 3 11 -4 12 -3 15 5 10 8
-5 10 -1 5 10 -4 12 -3 15 5 10 8 -5 10 -1 5 10 -4 12 -3 15 5 10 8 -5 10 -1
5 10 -4 12 -3 15 5 10 8 -5 10 -1 5 10 -4 12 -3 15 5 10 8 -5 10 -1 5 10 -4
12 -3 15 5 10 8 -5 10 -1 5 10 -4 12 -3 15 5 10 8 -5 10 -2 6 9 -4 10 -2 15 7
13 9 -2 13 4 11 16 -2 11 1 15 8 11 6 -3 10 -3 9 2 -3 20 2 34 11 28 6 -4 10
-3 9 2 -3 20 2 34 11 28 6 -4 10 -3 9 2 -4 15 13 43 22 37 5 -3 8 -2 7 3 -2 4
34 45 80 91 45 46 82 80 82 75 0 -4 7 3 16 15 8 12 19 20 24 17 4 -3 11 2 14
11 3 8 10 12 16 9 6 -3 13 1 16 9 3 9 11 13 17 9 6 -3 7 -1 3 5 -6 11 6 16 27
13 4 0 7 4 7 10 0 5 5 7 10 4 6 -3 10 -1 10 5 0 6 5 8 10 5 6 -3 13 1 16 9 3
9 9 14 13 12 6 -4 32 19 31 29 -1 21 1 25 13 23 7 -2 11 5 9 16 -2 11 1 15 8
11 6 -3 10 -3 9 2 -3 20 2 33 13 31 7 -2 13 3 14 10 1 6 2 17 3 23 0 5 5 8 10
5 9 -6 28 11 31 29 4 17 27 45 32 39 3 -3 30 22 59 55 29 33 56 58 60 55 5 -2
13 5 19 16 6 11 15 18 20 15 5 -3 14 4 20 15 6 11 15 18 21 15 5 -4 9 -1 9 5
0 6 5 8 10 5 6 -3 13 1 16 9 3 9 10 13 15 10 5 -3 9 0 9 6 0 6 5 8 10 5 6 -3
10 -1 10 5 0 6 5 8 10 5 6 -3 10 -1 10 5 0 6 5 8 12 4 6 -4 8 -3 5 3 -8 13 20
26 35 16 7 -4 8 -1 3 7 -6 10 -4 12 8 7 10 -3 17 -2 17 4 0 6 5 7 12 3 7 -4 8
-3 4 4 -10 17 -12 16 -103 -32z"/>
<path d="M19821 15571 c-11 -7 -9 -10 8 -16 11 -3 25 -3 31 0 5 3 10 2 10 -4
0 -5 17 -15 38 -22 24 -8 72 -46 142 -113 58 -56 139 -128 182 -159 71 -53
300 -187 318 -187 5 0 47 -46 93 -102 133 -161 274 -293 414 -385 39 -26 64
-55 103 -119 129 -210 313 -402 576 -601 150 -113 152 -115 159 -160 7 -50 9
-51 19 -8 5 23 4 27 -4 15 -9 -12 -11 -9 -8 16 4 28 -13 60 -25 48 -3 -3 -10
4 -17 15 -6 12 -15 19 -20 16 -5 -3 -14 4 -20 15 -6 11 -15 18 -20 15 -5 -3
-14 4 -20 15 -6 11 -15 18 -20 15 -5 -3 -14 4 -20 15 -6 11 -15 18 -20 15 -5
-3 -14 4 -20 15 -6 11 -15 18 -20 15 -5 -3 -17 6 -26 20 -9 13 -20 22 -25 20
-4 -3 -16 6 -25 20 -9 13 -20 23 -24 20 -5 -3 -21 10 -35 30 -15 19 -30 33
-34 30 -4 -2 -43 32 -86 76 -44 43 -75 79 -70 79 6 0 -1 9 -15 20 -14 10 -25
25 -25 32 -1 7 -6 12 -13 10 -7 -1 -13 2 -13 8 -1 5 -2 16 -3 23 -1 6 -7 11
-14 9 -7 -1 -13 2 -13 8 -1 5 -2 16 -3 23 -1 6 -8 11 -15 9 -8 -2 -11 3 -8 12
4 9 -1 19 -9 24 -9 5 -17 13 -17 18 -1 5 -6 8 -11 6 -5 -2 -6 4 -2 13 3 9 2
13 -4 10 -9 -6 -14 8 -11 28 1 5 -3 6 -9 2 -9 -6 -14 8 -11 28 1 5 -4 5 -10 1
-9 -5 -10 -2 -6 10 5 11 3 15 -5 10 -8 -5 -9 -2 -5 10 4 10 3 15 -3 11 -6 -3
-10 1 -10 10 0 9 -5 13 -10 10 -6 -3 -13 1 -16 9 -3 9 -10 13 -15 10 -5 -3
-12 2 -15 10 -3 9 -10 14 -15 11 -4 -3 -13 4 -19 15 -6 11 -15 18 -20 15 -5
-3 -14 4 -20 15 -6 11 -15 18 -20 15 -5 -3 -14 4 -20 15 -6 11 -15 18 -20 15
-5 -3 -18 9 -30 25 -12 17 -25 29 -28 25 -8 -7 -142 126 -137 136 3 4 -2 12
-10 19 -8 7 -15 9 -15 4 0 -12 -35 38 -35 51 -1 6 -6 9 -13 8 -7 -2 -12 2 -12
7 0 19 -2 25 -12 37 -6 7 -14 10 -19 7 -5 -3 -10 0 -10 5 -1 6 -2 14 -3 19 -2
15 -43 48 -54 44 -7 -2 -12 1 -12 7 0 6 -3 10 -7 9 -16 -5 -72 25 -66 35 3 6
1 7 -5 3 -7 -4 -12 -2 -12 4 0 6 -4 8 -10 5 -5 -3 -10 -1 -10 5 0 6 -4 8 -10
5 -5 -3 -10 -1 -10 4 0 6 -3 10 -7 10 -21 -3 -33 2 -27 13 4 7 3 8 -4 4 -7 -4
-12 -2 -12 4 0 6 -5 8 -10 5 -6 -3 -13 1 -16 9 -3 9 -10 13 -15 10 -5 -3 -12
2 -15 10 -3 9 -10 13 -15 10 -5 -3 -12 2 -15 10 -3 9 -10 14 -15 11 -4 -3 -13
4 -19 15 -6 11 -15 18 -20 15 -5 -3 -14 4 -20 15 -6 11 -15 18 -19 16 -4 -3
-29 19 -55 50 -26 30 -51 52 -55 50 -8 -5 -100 83 -101 97 0 4 -3 7 -7 8 -5 0
-16 8 -25 16 -10 9 -18 13 -18 8 0 -4 -6 -3 -12 3 -7 6 -16 11 -20 11 -5 1
-11 2 -15 2 -5 1 -16 0 -27 -1 -11 -1 -15 3 -12 9 9 13 6 14 -13 2z"/>
<path d="M21065 15290 c-4 -6 1 -7 11 -3 12 4 15 3 10 -5 -5 -8 -1 -10 10 -5
12 4 15 3 10 -5 -5 -8 -1 -10 10 -5 12 4 15 3 10 -5 -5 -8 -1 -10 10 -5 13 5
15 3 9 -7 -6 -10 -4 -12 8 -7 9 3 18 0 21 -9 3 -9 10 -12 16 -9 5 3 10 1 10
-5 0 -6 5 -8 10 -5 6 3 10 1 10 -5 0 -6 5 -8 10 -5 6 3 10 1 10 -5 0 -6 5 -8
10 -5 6 3 13 -1 16 -9 3 -9 10 -14 14 -11 4 3 11 -2 14 -11 3 -8 10 -13 15
-10 5 3 12 -1 15 -10 3 -8 10 -12 16 -9 6 3 13 -1 16 -9 3 -9 10 -14 14 -11 5
3 15 -4 23 -15 7 -11 16 -17 19 -14 3 3 27 -20 53 -51 26 -30 50 -53 53 -50 6
5 30 -26 28 -36 -2 -11 26 -39 34 -34 8 5 24 -24 21 -38 -1 -5 3 -6 9 -2 9 6
14 -8 11 -28 -1 -5 3 -6 9 -2 9 6 14 -8 11 -28 -1 -5 3 -6 9 -2 9 6 14 -8 11
-28 -1 -5 4 -5 10 -1 9 5 10 2 6 -10 -4 -10 -3 -15 3 -11 9 6 14 -8 11 -28 -1
-5 4 -5 10 -1 9 5 10 2 6 -10 -5 -11 -3 -15 5 -10 8 5 9 2 5 -10 -5 -11 -3
-15 5 -10 8 5 9 2 5 -10 -5 -11 -3 -15 5 -10 8 5 9 2 5 -10 -5 -11 -3 -15 5
-10 8 5 9 2 5 -9 -3 -10 -2 -17 4 -17 6 0 7 -5 3 -12 -4 -7 -3 -8 5 -4 6 4 14
0 17 -8 3 -9 10 -14 15 -11 4 3 13 -4 19 -15 6 -11 15 -18 20 -15 5 3 14 -4
20 -15 6 -11 15 -18 19 -15 5 2 32 -23 61 -56 29 -33 55 -58 57 -55 7 6 48
-44 48 -59 1 -5 6 -9 13 -8 7 2 13 -2 13 -7 1 -6 2 -16 3 -22 1 -7 8 -12 14
-10 7 1 12 -4 10 -12 -2 -8 1 -14 5 -13 12 3 37 -46 30 -57 -4 -5 0 -6 7 -1
10 6 12 4 7 -9 -4 -9 -3 -15 1 -12 12 7 54 -83 46 -96 -5 -7 -2 -8 6 -3 10 6
12 4 7 -9 -5 -11 -3 -15 5 -10 7 5 9 0 6 -14 -4 -14 -2 -20 4 -16 6 4 8 -2 3
-17 -5 -20 -4 -21 5 -9 10 12 11 11 7 -8 -3 -14 -1 -20 5 -16 7 5 9 -3 4 -22
-5 -23 -4 -26 5 -14 8 12 9 10 5 -11 -4 -19 0 -31 14 -44 11 -10 20 -14 20
-10 0 5 16 -6 35 -25 19 -18 32 -36 30 -40 -3 -4 4 -15 15 -25 11 -10 20 -14
20 -9 1 10 24 -27 25 -38 0 -5 4 -8 8 -7 13 1 36 -34 30 -45 -4 -5 -1 -6 5 -2
11 7 17 -6 13 -27 -1 -5 3 -6 9 -2 9 6 14 -8 11 -28 -1 -5 3 -6 9 -2 9 6 14
-8 11 -28 -1 -5 4 -5 10 -1 9 5 10 2 6 -10 -5 -11 -3 -15 5 -10 8 5 9 2 5 -10
-5 -11 -3 -15 5 -10 8 5 9 2 5 -10 -5 -11 -3 -15 5 -10 8 5 9 2 5 -10 -5 -11
-3 -15 5 -10 8 5 9 2 5 -10 -5 -11 -3 -15 5 -10 8 5 9 2 5 -10 -5 -11 -3 -15
5 -10 7 5 9 0 6 -14 -4 -14 -2 -20 5 -15 7 4 8 0 4 -11 -5 -11 -3 -15 5 -10 7
5 9 0 6 -14 -4 -14 -2 -20 5 -15 6 4 8 -2 5 -15 -4 -14 -2 -20 4 -16 7 5 9 -3
4 -22 -5 -23 -4 -26 5 -14 8 12 9 7 5 -20 -5 -27 -3 -31 5 -20 8 11 9 7 5 -20
-5 -27 -3 -31 5 -20 8 11 9 5 5 -25 -3 -23 -2 -34 3 -27 6 10 10 8 16 -10 4
-12 8 -27 9 -33 1 -5 7 -9 14 -7 7 1 13 -2 13 -8 1 -5 2 -16 3 -22 1 -7 7 -12
14 -10 11 2 16 -11 13 -31 -1 -5 3 -6 9 -2 9 6 14 -8 11 -28 -1 -5 3 -6 9 -2
9 6 14 -8 11 -28 -1 -5 4 -5 10 -1 9 5 10 2 6 -10 -4 -10 -3 -15 3 -11 9 6 14
-8 11 -28 -1 -5 4 -5 10 -1 9 5 10 2 6 -10 -5 -11 -3 -15 5 -10 8 5 9 2 5 -10
-5 -11 -3 -15 5 -10 8 5 9 2 5 -10 -5 -11 -3 -15 5 -10 8 5 9 2 5 -10 -5 -11
-3 -15 5 -10 7 5 9 0 6 -14 -4 -14 -2 -20 5 -15 7 4 8 0 4 -11 -5 -11 -3 -15
5 -10 7 5 9 0 6 -14 -4 -14 -2 -20 5 -15 6 4 8 -2 5 -15 -4 -14 -2 -20 5 -15
6 4 8 -2 5 -15 -4 -14 -2 -20 4 -16 7 5 9 -3 4 -22 -5 -23 -4 -26 4 -14 9 12
10 6 6 -25 -5 -37 -4 -38 5 -10 21 62 -80 289 -197 445 -44 59 -57 84 -73 153
-52 218 -154 402 -313 563 -60 62 -73 81 -95 145 -36 109 -117 258 -189 347
-63 79 -178 187 -247 234 -26 17 -47 44 -63 78 -34 73 -120 203 -187 282 -93
109 -243 221 -399 300 -86 42 -84 42 -93 28z"/>
<path d="M20921 15261 c-10 -6 -3 -12 25 -21 78 -26 249 -112 333 -167 47 -32
115 -87 151 -123 65 -64 167 -197 158 -205 -2 -3 -45 15 -94 39 -166 80 -164
80 -177 67 -9 -10 -8 -11 7 -5 13 5 17 4 12 -4 -5 -8 -2 -10 8 -6 9 3 16 1 16
-5 0 -6 7 -8 17 -4 12 5 14 3 8 -7 -5 -9 -4 -11 3 -6 7 4 12 3 12 -3 0 -6 7
-7 17 -4 11 4 14 3 9 -5 -5 -8 -2 -10 8 -6 9 3 16 1 16 -6 0 -6 5 -8 10 -5 6
3 10 1 10 -5 0 -6 5 -8 10 -5 6 3 10 1 10 -5 0 -6 5 -8 10 -5 6 3 10 1 10 -5
0 -6 5 -8 10 -5 6 3 10 1 10 -5 0 -6 5 -8 10 -5 6 3 10 1 10 -5 0 -6 5 -8 10
-5 6 3 10 1 10 -6 0 -7 3 -9 7 -6 3 4 11 0 18 -9 10 -14 12 -14 26 2 7 10 9
15 3 11 -7 -4 -15 0 -18 9 -4 10 -2 13 7 9 6 -4 4 0 -5 8 -10 8 -14 18 -10 22
4 5 1 5 -5 1 -12 -7 -18 5 -14 27 1 5 -3 6 -9 2 -5 -3 -11 -1 -11 4 -1 6 -2
17 -3 24 -1 6 -7 11 -14 9 -7 -1 -13 2 -13 8 -1 6 -2 14 -3 19 -1 14 -26 37
-26 26 0 -5 -8 2 -17 15 -10 14 -17 27 -16 30 3 9 -30 40 -38 35 -4 -3 -20 10
-34 30 -15 19 -31 32 -36 30 -4 -3 -13 4 -19 15 -6 11 -15 18 -21 15 -5 -4
-12 1 -15 9 -3 9 -10 13 -15 10 -5 -3 -12 2 -15 10 -3 9 -10 13 -15 10 -5 -3
-12 2 -15 10 -3 9 -10 13 -15 10 -5 -3 -9 0 -9 5 0 6 -3 10 -7 10 -21 -3 -33
2 -27 13 4 7 3 8 -4 4 -7 -4 -12 -2 -12 4 0 6 -4 8 -10 5 -5 -3 -10 -1 -10 5
0 6 -4 8 -10 5 -5 -3 -10 -1 -10 5 0 6 -4 8 -10 5 -5 -3 -10 -1 -10 5 0 6 -4
8 -10 5 -5 -3 -10 -2 -10 4 0 6 -7 7 -17 4 -11 -4 -14 -3 -9 5 5 8 2 10 -8 6
-9 -3 -16 -1 -16 5 0 6 -7 8 -17 4 -11 -4 -14 -3 -9 5 5 8 1 10 -10 5 -12 -5
-15 -3 -9 6 6 10 2 11 -15 6 -17 -5 -21 -4 -15 5 5 9 4 11 -3 6 -7 -4 -12 -2
-12 3 0 13 -10 14 -29 2z"/>
<path d="M12780 15014 c0 -5 -10 -11 -22 -11 -13 -1 -24 -7 -26 -13 -2 -5 -9
-7 -14 -4 -7 5 -8 2 -3 -6 6 -9 2 -10 -15 -5 -17 5 -21 4 -15 -6 6 -9 3 -11
-9 -6 -11 5 -15 3 -10 -5 5 -8 2 -9 -9 -5 -9 3 -19 2 -22 -4 -4 -5 -11 -6 -17
-3 -7 5 -8 2 -3 -6 6 -10 4 -12 -8 -7 -10 4 -17 2 -17 -4 0 -6 -8 -8 -17 -4
-14 5 -15 4 -6 -6 9 -9 19 -9 42 1 17 7 31 15 31 19 0 4 8 7 18 7 9 0 28 4 41
8 59 20 -120 -157 -269 -265 -85 -62 -248 -168 -298 -193 -18 -9 -30 -22 -26
-27 4 -8 9 -7 15 2 5 8 9 10 9 4 0 -5 5 -2 11 8 6 9 14 15 20 12 5 -4 9 -1 9
5 0 6 5 8 10 5 6 -3 10 -1 10 5 0 6 5 8 10 5 6 -3 13 1 16 9 3 9 10 14 14 11
4 -3 11 2 14 11 3 8 10 13 15 10 5 -3 12 1 15 10 3 8 10 12 16 9 5 -3 10 -1
10 5 0 6 5 8 10 5 6 -3 13 1 16 9 3 9 10 13 15 10 5 -3 12 2 15 10 3 9 10 14
15 11 4 -3 13 4 19 15 6 11 15 18 19 15 5 -3 12 2 15 11 3 8 10 13 15 10 5 -3
16 6 25 19 9 14 21 23 26 20 5 -3 14 4 20 15 6 11 15 18 20 15 4 -3 22 13 40
35 17 22 36 39 43 37 6 -1 11 5 12 13 0 8 7 15 15 15 8 1 14 6 13 12 -2 7 20
31 47 54 27 23 49 44 48 48 -3 13 15 41 22 36 10 -6 24 14 16 22 -3 4 -6 2 -6
-3z"/>
<path d="M20726 15002 c-3 -5 8 -19 25 -31 16 -12 27 -26 25 -30 -3 -5 3 -16
14 -26 11 -10 20 -15 20 -11 0 4 25 -21 55 -56 30 -35 60 -63 66 -63 6 0 17
-9 25 -20 8 -11 19 -20 25 -20 6 0 18 -11 28 -24 18 -23 18 -23 24 -2 3 13 1
19 -6 14 -7 -4 -8 0 -4 11 5 11 3 15 -5 10 -8 -5 -9 -2 -5 10 5 11 3 15 -5 10
-8 -5 -9 -2 -5 10 5 11 3 15 -5 10 -8 -5 -9 -2 -5 10 5 11 3 15 -5 10 -8 -5
-9 -2 -5 10 5 11 3 15 -5 10 -8 -5 -9 -2 -5 10 5 11 3 15 -5 10 -8 -5 -9 -2
-5 10 5 11 3 15 -5 10 -8 -5 -9 -2 -5 10 5 11 3 15 -5 10 -8 -5 -9 -2 -5 9 8
20 -18 36 -46 29 -13 -3 -18 -1 -13 6 5 8 1 10 -10 5 -12 -4 -15 -3 -10 5 5 8
2 10 -8 6 -9 -3 -16 -1 -16 5 0 6 -7 8 -17 4 -10 -4 -14 -2 -10 4 5 7 -1 9
-15 5 -14 -3 -19 -1 -14 6 5 8 1 10 -10 5 -13 -5 -15 -3 -9 7 5 9 4 11 -3 6
-7 -4 -12 -2 -12 3 0 13 -17 15 -24 3z"/>
<path d="M21034 14878 c-5 -7 -2 -8 6 -3 10 6 12 4 7 -9 -5 -11 -3 -15 5 -10
8 5 9 2 5 -10 -5 -11 -3 -15 5 -10 8 5 9 2 5 -10 -5 -11 -3 -15 5 -10 8 5 9 2
5 -10 -5 -11 -3 -15 5 -10 8 5 9 2 5 -10 -5 -11 -3 -15 5 -10 8 5 9 2 5 -10
-5 -11 -3 -15 5 -10 8 5 9 2 5 -10 -5 -11 -3 -15 5 -10 8 5 9 2 5 -10 -5 -11
-3 -15 5 -10 8 5 9 2 5 -10 -5 -11 -3 -15 5 -10 8 5 9 2 5 -10 -5 -11 -3 -15
5 -10 8 5 9 2 5 -10 -4 -10 -3 -15 3 -11 9 6 14 -8 11 -28 -1 -5 4 -5 10 -1 9
5 10 2 6 -10 -4 -10 -3 -15 3 -11 6 3 13 -1 16 -9 3 -9 10 -14 14 -11 4 3 11
-2 14 -11 3 -8 10 -12 16 -9 5 3 10 1 10 -5 0 -6 5 -8 10 -5 6 3 10 1 10 -5 0
-6 5 -8 10 -5 6 3 13 -1 16 -9 3 -9 10 -13 15 -10 5 3 9 0 9 -6 0 -6 5 -8 10
-5 6 3 10 1 10 -5 0 -6 5 -8 10 -5 6 3 13 -1 16 -9 3 -9 10 -13 15 -10 5 3 9
0 9 -6 0 -6 5 -8 10 -5 6 3 10 1 10 -5 0 -6 4 -9 10 -5 5 3 18 -3 29 -14 11
-11 22 -17 25 -13 3 3 6 0 6 -7 0 -7 5 -9 10 -6 6 3 10 1 10 -5 0 -6 5 -8 10
-5 6 3 10 1 10 -4 0 -6 3 -10 8 -10 20 3 32 -2 26 -13 -4 -7 -3 -8 4 -4 7 4
12 2 12 -4 0 -6 5 -8 10 -5 6 3 10 1 10 -5 0 -6 5 -8 10 -5 6 3 10 1 10 -5 0
-6 5 -8 10 -5 6 3 10 1 10 -5 0 -6 5 -8 10 -5 6 3 10 1 10 -5 0 -6 5 -8 10 -5
6 3 13 -1 16 -9 3 -9 10 -13 15 -10 5 3 9 0 9 -6 0 -6 5 -8 10 -5 6 3 10 1 10
-5 0 -6 5 -8 10 -5 6 3 10 1 10 -5 0 -6 4 -9 9 -5 6 3 14 -2 19 -10 8 -15 10
-14 23 1 12 15 12 16 0 9 -11 -6 -13 -2 -7 21 5 23 4 26 -5 14 -8 -12 -9 -7
-5 20 5 27 3 31 -5 20 -8 -12 -9 -8 -5 15 5 24 4 26 -4 13 -8 -13 -8 -29 -1
-55 6 -20 9 -38 8 -39 -1 -1 -31 15 -67 35 -36 20 -101 56 -145 80 -44 24
-144 80 -223 124 l-143 82 -60 117 c-33 65 -58 118 -56 118 3 0 21 -7 42 -16
28 -11 41 -12 49 -4 8 8 6 9 -8 4 -13 -5 -17 -4 -12 4 5 8 2 10 -8 6 -9 -3
-16 -1 -16 5 0 6 -7 8 -17 4 -11 -5 -14 -3 -8 6 6 10 2 11 -15 6 -14 -4 -20
-3 -16 3 3 5 -1 12 -9 16 -8 3 -17 0 -21 -6z"/>
<path d="M12050 14709 c0 -5 -5 -7 -12 -3 -7 5 -8 3 -3 -6 6 -10 4 -12 -8 -7
-10 3 -17 2 -17 -4 0 -6 -4 -7 -10 -4 -5 3 -10 1 -10 -5 0 -6 -4 -8 -10 -5 -5
3 -10 1 -10 -5 0 -6 -5 -8 -12 -4 -7 5 -8 3 -3 -6 6 -10 4 -12 -9 -7 -10 4
-15 3 -11 -3 6 -9 -8 -14 -27 -11 -5 0 -8 -4 -8 -10 0 -5 -4 -7 -10 -4 -5 3
-10 1 -10 -5 0 -6 -5 -8 -12 -4 -7 4 -8 3 -4 -4 6 -11 0 -14 -20 -11 -4 0 -10
-5 -15 -13 -5 -7 -14 -13 -21 -13 -8 0 -12 -10 -10 -25 2 -20 1 -22 -8 -10 -9
12 -10 10 -5 -9 5 -15 3 -21 -3 -17 -6 4 -8 -2 -4 -16 3 -13 1 -19 -5 -15 -7
5 -9 -1 -6 -15 4 -19 3 -20 -6 -8 -9 12 -10 9 -5 -14 5 -19 3 -27 -4 -22 -6 4
-8 -2 -4 -16 3 -13 1 -19 -5 -15 -7 5 -9 -1 -5 -15 3 -13 1 -19 -5 -15 -6 4
-8 -4 -6 -21 4 -21 2 -24 -6 -12 -8 11 -10 7 -5 -20 4 -27 3 -32 -5 -20 -9 12
-10 9 -5 -14 4 -17 3 -27 -2 -23 -6 3 -10 -3 -10 -14 0 -18 2 -18 12 -5 6 9
13 14 16 11 2 -2 4 10 5 28 0 18 20 90 43 160 l43 128 66 38 c93 54 152 83
158 78 2 -3 -16 -67 -40 -144 -50 -155 -34 -136 -192 -222 -71 -39 -80 -47
-66 -55 6 -4 11 -2 11 4 0 6 5 8 10 5 6 -3 13 1 16 9 3 9 10 13 15 10 5 -3 9
0 9 6 0 6 5 8 10 5 6 -3 10 -1 10 5 0 6 5 8 12 4 7 -4 8 -3 4 4 -6 11 6 16 27
13 4 0 7 4 7 10 0 5 5 7 10 4 6 -3 10 -1 10 5 0 6 5 8 10 5 6 -3 10 -1 10 5 0
6 5 8 12 4 7 -4 8 -3 4 4 -6 11 6 16 27 13 4 0 7 6 7 15 0 8 4 13 9 10 5 -4 7
4 3 16 -4 16 -2 19 8 13 9 -5 11 -4 6 4 -9 15 3 73 14 66 4 -3 6 5 3 17 -4 19
-3 20 6 8 9 -12 10 -9 5 15 -4 23 -3 27 5 15 9 -12 10 -9 5 14 -5 19 -3 27 4
22 6 -4 8 2 4 16 -3 13 -1 19 5 15 7 -5 9 1 5 15 -3 13 -1 19 5 15 7 -5 9 1 5
15 -3 13 -1 19 5 15 6 -4 8 3 5 18 -4 25 -12 34 -12 14z"/>
<path d="M21826 14465 c4 -16 8 -42 8 -57 1 -14 5 -24 10 -21 5 4 6 -7 2 -23
-5 -23 -4 -26 4 -14 9 12 11 10 7 -12 -2 -16 0 -25 6 -21 5 3 7 -8 3 -28 -5
-27 -4 -30 4 -14 8 16 9 13 5 -15 -4 -26 -2 -31 5 -20 9 12 10 8 8 -15 -2 -20
1 -29 10 -27 6 1 12 -3 12 -9 0 -5 4 -8 9 -4 6 3 13 -1 18 -9 8 -14 12 -16 34
-16 5 0 7 -5 3 -12 -4 -6 -3 -8 3 -5 6 4 14 0 17 -9 3 -8 10 -13 15 -10 5 3
12 -1 15 -10 3 -8 10 -12 16 -9 6 3 13 -1 16 -9 3 -9 10 -14 14 -11 5 3 13 -3
19 -12 6 -10 11 -13 11 -8 0 6 11 -3 23 -19 16 -20 24 -24 24 -13 0 9 -5 13
-10 10 -6 -4 -8 1 -4 11 4 10 3 15 -3 11 -9 -6 -14 10 -13 42 1 7 -4 10 -10 6
-6 -4 -8 0 -4 11 5 11 3 15 -5 10 -8 -5 -9 -2 -5 10 5 11 3 15 -5 10 -8 -5 -9
-2 -5 10 4 9 3 14 -2 11 -9 -5 -27 32 -23 48 1 5 -2 6 -8 2 -9 -6 -14 8 -11
28 1 5 -3 6 -9 2 -9 -6 -14 8 -11 28 1 5 -3 6 -8 3 -8 -5 -23 16 -25 37 -1 4
-5 8 -11 9 -10 2 -50 48 -50 58 -1 13 -17 30 -25 25 -4 -3 -25 14 -45 37 -36
42 -37 42 -29 13z m54 -51 c8 -7 20 -13 25 -13 6 -1 10 -4 10 -8 0 -19 48 -73
58 -67 7 4 9 4 5 -1 -4 -4 10 -33 31 -64 21 -31 52 -84 70 -118 l31 -63 -32
20 c-17 10 -35 17 -40 14 -5 -3 -7 0 -6 8 2 7 -5 12 -14 12 -10 -1 -16 2 -13
6 7 11 -94 72 -105 65 -6 -3 -7 1 -4 9 5 12 -5 55 -45 194 -10 34 -5 35 29 6z"/>
<path d="M11595 14406 c-32 -34 -60 -63 -60 -66 -2 -14 -23 -42 -31 -41 -5 1
-10 -3 -10 -9 -1 -5 -2 -15 -3 -21 0 -5 -6 -7 -11 -4 -6 4 -10 3 -9 -2 3 -20
-2 -34 -11 -28 -6 4 -10 3 -9 -2 3 -20 -2 -34 -11 -28 -6 4 -7 -1 -3 -11 4
-12 3 -15 -5 -10 -8 5 -10 1 -5 -10 4 -12 3 -15 -5 -10 -8 5 -10 1 -5 -10 4
-12 3 -15 -5 -10 -8 5 -10 1 -5 -10 4 -12 3 -15 -5 -10 -8 5 -10 1 -5 -10 4
-12 3 -15 -5 -10 -8 5 -10 1 -5 -10 5 -12 3 -15 -6 -9 -10 6 -11 3 -1 -15 11
-20 10 -22 -3 -17 -12 4 -14 2 -10 -10 5 -12 3 -14 -7 -8 -9 6 -11 4 -5 -5 4
-7 2 -16 -6 -21 -10 -6 -10 -9 -2 -9 7 0 17 9 23 20 6 11 15 18 20 15 5 -3 14
4 20 15 6 11 15 18 19 15 5 -3 12 2 15 11 3 8 10 13 15 10 5 -3 12 1 15 10 3
8 10 13 15 10 5 -3 12 1 15 10 3 8 10 12 16 9 5 -3 10 -1 10 5 0 6 5 8 10 5 6
-3 13 1 16 9 3 9 10 14 14 11 4 -3 11 2 14 11 3 8 10 13 15 10 5 -3 7 4 4 16
-4 19 -3 20 6 8 8 -11 10 -7 5 20 -4 27 -3 31 5 20 8 -11 9 -7 4 19 -4 22 -3
32 4 28 6 -4 8 4 6 21 -4 21 -2 24 6 12 12 -17 13 -4 2 25 -6 14 -14 -4 -30
-70 l-22 -90 -66 -40 c-36 -22 -78 -51 -95 -64 -16 -13 -31 -21 -34 -18 -8 8
64 146 111 212 24 33 66 82 94 109 27 27 48 53 45 57 -2 4 0 10 5 14 6 3 8 -2
6 -12 -8 -45 -12 -67 -8 -54 4 12 6 12 14 0 6 -9 7 -4 3 15 -5 19 -3 27 4 22
6 -4 8 2 4 16 -4 16 -2 19 9 13 8 -5 10 -4 6 0 -17 19 -34 9 -92 -49z"/>
<path d="M21290 14460 c-7 -23 -7 -39 1 -34 8 5 13 -10 10 -29 -1 -5 3 -6 9
-2 5 3 11 1 11 -4 1 -6 2 -15 3 -21 0 -5 5 -10 10 -9 9 1 30 -29 31 -43 0 -5
5 -9 10 -10 13 -1 34 -31 29 -39 -2 -3 8 -17 21 -29 14 -13 25 -20 25 -16 0 4
25 -22 56 -59 30 -36 59 -63 64 -60 5 3 19 -8 31 -24 12 -17 26 -28 30 -26 4
3 16 -6 27 -20 11 -13 22 -22 25 -19 2 3 15 -9 27 -26 12 -16 25 -28 30 -25 5
3 14 -4 20 -15 6 -11 15 -18 21 -15 5 4 12 -1 15 -9 3 -9 10 -14 14 -11 5 3
15 -3 22 -12 14 -20 38 -28 38 -14 0 5 3 18 6 28 6 16 5 16 -9 -2 -15 -19 -15
-17 -6 24 5 24 7 46 4 49 -3 3 -6 -3 -6 -14 -1 -12 -4 -8 -10 11 -6 21 -6 15
-3 -22 3 -29 3 -53 0 -53 -17 0 -232 175 -323 263 -92 89 -213 231 -213 251 0
4 13 -2 29 -13 16 -12 31 -21 34 -21 3 0 36 -17 74 -38 37 -22 102 -57 144
-80 42 -23 107 -59 145 -80 l69 -39 17 -69 c9 -38 17 -59 17 -47 1 12 4 30 7
40 5 15 4 16 -6 3 -9 -12 -11 -8 -6 20 4 25 3 31 -4 20 -8 -12 -10 -11 -10 7
0 30 -11 54 -21 47 -5 -3 -9 0 -9 6 0 6 -4 8 -10 5 -5 -3 -10 -1 -10 5 0 6 -5
8 -10 5 -6 -3 -13 1 -16 9 -3 9 -10 13 -15 10 -5 -3 -9 0 -9 6 0 6 -4 8 -10 5
-5 -3 -10 -1 -10 5 0 6 -4 9 -10 5 -5 -3 -18 3 -29 14 -11 11 -22 17 -25 14
-3 -4 -6 -1 -6 6 0 7 -4 9 -10 6 -5 -3 -10 -1 -10 5 0 6 -4 8 -10 5 -5 -3 -10
-1 -10 4 0 6 -3 10 -7 10 -21 -3 -33 2 -27 13 4 7 3 8 -4 4 -7 -4 -12 -2 -12
4 0 6 -4 8 -10 5 -5 -3 -10 -1 -10 5 0 6 -4 8 -10 5 -5 -3 -10 -1 -10 5 0 6
-4 8 -10 5 -5 -3 -10 -1 -10 5 0 6 -4 9 -9 6 -5 -3 -11 1 -15 9 -3 9 -12 12
-22 8 -13 -5 -15 -3 -9 7 5 9 4 11 -3 6 -7 -4 -12 -2 -12 4 0 6 -4 8 -10 5 -5
-3 -10 -1 -10 5 0 6 -4 8 -10 5 -5 -3 -10 -1 -10 4 0 6 -3 10 -7 10 -21 -3
-33 2 -27 13 4 7 3 8 -4 4 -7 -4 -12 -2 -12 4 0 6 -4 9 -9 6 -5 -4 -12 0 -14
6 -3 7 -6 11 -7 8z"/>
<path d="M11911 14272 c-1 -7 -5 -10 -11 -7 -5 3 -10 1 -10 -5 0 -6 -4 -9 -9
-6 -5 3 -12 -1 -15 -10 -3 -8 -10 -12 -16 -9 -5 3 -10 1 -10 -5 0 -6 -4 -8
-10 -5 -5 3 -10 1 -10 -5 0 -6 -4 -8 -10 -5 -5 3 -10 1 -10 -5 0 -6 -5 -8 -12
-4 -7 4 -8 3 -4 -4 6 -11 -6 -16 -26 -13 -5 0 -8 -4 -8 -10 0 -5 -4 -7 -10 -4
-5 3 -10 1 -10 -5 0 -6 -5 -8 -10 -5 -6 3 -13 -1 -16 -9 -3 -9 -10 -13 -15
-10 -5 3 -9 -5 -9 -18 0 -19 -2 -20 -10 -8 -7 11 -8 5 -4 -20 4 -26 3 -31 -5
-20 -8 11 -9 5 -5 -25 5 -32 3 -37 -6 -25 -10 13 -11 12 -6 -3 3 -10 6 -28 7
-40 1 -12 5 -2 11 23 26 121 20 113 129 175 55 31 102 55 105 53 11 -12 -94
-284 -162 -420 -44 -88 -144 -251 -151 -245 -1 2 13 84 32 183 20 98 33 186
31 194 -2 8 -5 2 -6 -15 -1 -26 -2 -28 -10 -10 -6 14 -7 6 -4 -25 4 -33 3 -41
-5 -30 -8 11 -9 5 -5 -25 4 -29 3 -36 -4 -26 -8 11 -9 2 -6 -30 3 -33 2 -39
-5 -24 -8 15 -9 9 -5 -25 3 -34 2 -40 -5 -25 -8 15 -9 8 -5 -25 4 -33 3 -41
-5 -30 -8 11 -9 5 -5 -25 4 -31 3 -37 -5 -25 -9 12 -10 8 -5 -15 3 -16 7 -36
10 -43 2 -7 -1 -10 -6 -7 -6 3 -10 13 -10 22 0 9 -3 14 -6 10 -10 -10 7 -48
19 -44 7 2 12 8 12 13 1 14 21 46 28 45 4 -1 7 2 6 5 0 4 5 10 13 15 7 5 14
13 14 19 1 5 2 15 3 21 0 5 6 7 11 4 6 -4 10 -3 9 2 -3 20 2 34 11 28 6 -4 7
1 3 11 -4 12 -3 15 6 10 6 -4 11 -4 10 1 -3 20 2 34 11 28 6 -4 7 1 3 11 -4
12 -3 15 5 10 8 -5 10 -1 5 10 -4 12 -3 15 5 10 8 -5 10 -1 5 10 -4 12 -3 15
5 10 8 -5 10 -1 5 10 -4 12 -3 15 5 10 8 -5 10 -1 5 10 -4 12 -3 15 5 10 8 -5
10 -1 5 10 -4 12 -3 15 5 10 8 -5 10 -1 5 10 -4 12 -3 15 5 10 8 -5 10 -1 5
10 -4 11 -2 15 4 11 6 -4 11 -1 10 6 -1 32 4 48 13 42 6 -4 7 1 3 11 -4 11 -3
15 4 11 7 -5 9 1 6 15 -4 19 -3 20 7 8 9 -12 10 -11 5 9 -5 15 -3 21 3 17 6
-4 8 3 5 16 -4 19 -3 20 7 8 9 -12 10 -11 5 9 -5 15 -3 21 3 17 6 -4 8 2 4 16
-3 13 -1 19 5 15 7 -5 9 1 5 15 -3 13 -1 19 5 15 7 -5 9 1 5 15 -3 13 -1 19 5
15 7 -5 9 1 6 15 -4 19 -3 20 6 8 9 -12 10 -9 5 15 -4 23 -3 26 5 15 14 -19
14 -5 1 21 -7 13 -7 19 0 19 5 0 10 -5 10 -12 0 -6 2 -9 5 -6 3 3 1 16 -4 29
-5 13 -10 18 -10 11z"/>
<path d="M11846 13836 c5 -13 4 -17 -4 -12 -8 5 -10 1 -5 -10 4 -12 3 -15 -5
-10 -8 5 -10 1 -5 -10 4 -12 3 -15 -5 -10 -8 5 -10 1 -5 -10 4 -12 3 -15 -5
-10 -8 5 -10 1 -5 -10 4 -12 3 -15 -6 -10 -6 4 -10 4 -9 -1 4 -16 -14 -53 -23
-48 -5 3 -6 -2 -2 -11 4 -12 3 -15 -6 -10 -6 4 -11 4 -10 -1 3 -20 -2 -34 -11
-28 -6 4 -10 3 -9 -2 3 -20 -2 -34 -11 -28 -6 4 -10 3 -9 -2 3 -20 -2 -34 -11
-28 -6 4 -10 3 -9 -2 3 -20 -2 -33 -13 -30 -7 1 -13 -4 -14 -10 -1 -7 -2 -17
-3 -23 0 -5 -6 -9 -13 -7 -7 1 -12 -2 -13 -8 -1 -15 -19 -43 -30 -47 -5 -2 -9
-6 -8 -10 2 -4 -13 -19 -32 -34 -19 -14 -34 -29 -33 -32 2 -13 -14 -42 -22
-37 -4 2 -5 -8 -3 -23 4 -22 2 -24 -7 -12 -8 12 -9 8 -4 -15 4 -23 3 -27 -5
-15 -9 12 -10 9 -5 -14 5 -19 3 -27 -4 -22 -6 4 -8 -2 -4 -16 3 -13 1 -19 -5
-15 -7 5 -9 -1 -5 -15 3 -13 1 -19 -5 -15 -7 5 -9 -1 -5 -15 3 -13 1 -19 -5
-15 -7 5 -9 -1 -6 -15 4 -19 3 -20 -7 -8 -9 12 -10 11 -5 -9 5 -15 3 -21 -3
-17 -6 4 -8 -2 -4 -16 3 -14 1 -19 -6 -14 -8 5 -10 1 -5 -10 4 -12 3 -15 -5
-10 -8 5 -10 1 -5 -10 5 -13 3 -15 -7 -9 -8 5 -11 4 -6 -3 8 -13 -44 -123 -56
-116 -4 3 -5 -3 -1 -12 4 -12 3 -15 -6 -10 -6 4 -11 4 -10 -1 3 -20 -2 -34
-11 -28 -6 4 -7 -1 -3 -11 4 -12 3 -15 -6 -10 -6 4 -11 4 -10 -1 3 -20 -2 -34
-11 -28 -6 4 -10 3 -9 -2 4 -21 -2 -34 -13 -27 -6 4 -8 3 -5 -3 4 -6 0 -14 -8
-17 -8 -3 -15 -9 -14 -13 3 -20 -2 -34 -11 -28 -6 4 -10 3 -9 -2 3 -20 -2 -33
-13 -30 -9 1 -12 -12 -11 -48 2 -39 1 -46 -7 -30 -9 18 -10 17 -5 -5 2 -14 5
-34 6 -45 2 -28 16 31 18 72 1 22 24 67 72 140 111 168 180 313 234 495 20 66
35 90 101 170 137 164 267 379 244 402 -8 8 -9 6 -4 -8z"/>
<path d="M22341 13416 c-7 -8 -11 -25 -8 -38 4 -21 4 -20 6 4 0 15 4 29 9 32
4 2 6 -12 4 -32 -1 -21 2 -89 7 -152 l10 -115 -5 138 c-3 75 -1 137 3 137 5 0
52 -44 105 -97 l96 -98 11 -116 c6 -63 11 -176 12 -250 0 -73 4 -156 7 -184 4
-27 7 55 7 184 0 129 -3 221 -7 205 -4 -17 -6 3 -4 46 2 48 0 68 -5 55 -7 -15
-8 -8 -6 23 1 23 -1 42 -6 42 -4 0 -6 4 -3 8 5 9 -141 157 -156 157 -5 0 -22
15 -37 33 -24 30 -29 32 -40 18z"/>
<path d="M17050 13411 l-65 -6 94 -7 c52 -5 147 -8 211 -8 64 0 200 3 301 8
l184 7 -130 6 c-158 8 -505 8 -595 0z"/>
<path d="M10857 13343 c-28 -99 -47 -242 -54 -403 l-6 -155 -84 -95 c-104
-119 -199 -251 -251 -350 -47 -87 -105 -247 -99 -269 3 -9 5 -5 7 9 1 23 2 24
11 5 7 -15 7 -11 3 14 -4 21 -3 31 4 27 6 -4 8 2 4 16 -3 13 -1 19 5 15 7 -5
9 1 5 15 -3 13 -1 19 5 15 7 -5 9 1 5 15 -3 14 -1 19 6 14 8 -5 10 -1 5 10 -4
11 -3 15 4 11 7 -5 9 1 5 15 -3 14 -1 19 6 14 8 -5 10 -1 5 10 -4 12 -3 15 5
10 8 -5 10 -1 5 10 -4 12 -3 15 5 10 8 -5 10 -1 5 10 -4 12 -3 15 5 10 8 -5
10 -1 5 10 -4 12 -3 15 5 10 8 -5 10 -1 5 10 -4 12 -3 15 6 10 6 -4 11 -4 10
1 -3 20 2 34 11 28 6 -4 7 1 3 11 -4 12 -3 15 6 10 6 -4 11 -4 10 1 -3 20 2
34 11 28 6 -4 10 -3 9 2 -3 20 2 34 11 28 6 -4 10 -3 9 2 -4 21 2 34 13 27 6
-4 9 -3 5 2 -6 11 17 46 30 45 4 -1 9 4 9 9 1 6 2 14 3 20 0 5 7 9 14 7 6 -1
11 3 10 10 -2 7 11 21 27 33 17 12 28 25 25 30 -3 5 19 29 49 54 l53 46 2 96
c1 53 6 142 11 198 5 55 10 110 10 121 l1 20 9 -20 c6 -13 7 -3 4 30 -3 37 -2
45 5 30 8 -15 9 -9 5 25 -3 34 -2 40 6 25 7 -15 8 -11 4 20 -4 31 -3 37 6 25
8 -12 9 -9 4 14 -5 19 -3 27 4 22 6 -4 8 2 5 14 -3 11 -6 20 -8 20 -1 0 -10
-26 -18 -57z"/>
<path d="M15654 13021 c-542 -266 -1040 -687 -1336 -1131 -136 -204 -295 -564
-269 -607 9 -15 10 -12 5 12 -4 23 -3 27 5 15 9 -12 10 -9 5 14 -5 19 -3 27 4
22 6 -4 8 2 4 16 -3 13 -1 19 5 15 7 -5 9 1 5 15 -3 13 -1 19 5 15 7 -5 9 1 5
15 -3 13 -1 19 5 15 7 -5 9 1 5 15 -3 14 -1 19 6 14 8 -5 10 -1 5 10 -4 11 -2
15 4 11 6 -4 11 -1 10 6 -1 32 4 48 13 42 6 -4 7 1 3 11 -4 12 -3 15 5 10 8
-5 10 -1 5 10 -4 12 -3 15 5 10 8 -5 10 -1 5 10 -4 12 -3 15 5 10 8 -5 10 -1
5 10 -4 12 -3 15 5 10 8 -5 10 -1 5 10 -4 12 -3 15 5 10 8 -5 10 -1 5 10 -4
12 -3 15 5 10 8 -5 10 -1 5 10 -4 12 -3 15 5 10 8 -5 10 -1 5 10 -4 12 -3 15
5 10 8 -5 10 -1 5 10 -4 12 -3 15 5 10 8 -5 10 -1 5 10 -4 12 -3 15 5 10 8 -5
10 -1 5 10 -4 12 -3 15 6 10 6 -4 11 -4 10 1 -3 20 2 34 11 28 6 -4 7 1 3 11
-4 12 -3 15 6 10 6 -4 11 -4 10 1 -3 20 2 34 11 28 6 -3 7 1 4 10 -4 10 -2 15
7 13 9 -2 13 4 11 16 -2 11 1 15 8 11 6 -3 10 -3 9 2 -3 20 2 33 14 31 7 -2
11 5 9 15 -2 10 2 16 10 15 6 -2 13 3 14 10 1 6 2 17 3 22 0 6 6 9 13 8 7 -2
13 3 14 10 1 6 2 17 3 23 0 5 6 7 13 3 6 -4 9 -3 5 2 -6 11 17 46 30 45 4 -1
8 2 9 7 2 18 17 41 24 37 8 -5 48 35 40 40 -3 2 14 20 38 41 24 20 40 39 37
42 -8 8 146 162 156 156 4 -2 24 16 44 41 21 25 41 43 45 40 5 -3 23 13 40 35
18 23 35 38 38 36 3 -3 12 3 19 14 8 11 18 18 23 15 4 -3 15 7 24 20 9 14 21
23 26 20 5 -3 14 4 20 15 6 11 15 18 20 15 5 -3 14 4 20 15 6 11 15 18 19 15
5 -3 12 2 15 11 3 8 10 13 15 9 6 -3 15 4 21 15 6 11 15 18 19 15 5 -3 12 2
15 11 3 8 10 13 15 10 5 -3 12 1 15 10 3 8 10 13 15 10 5 -3 12 1 15 10 3 8
10 13 15 10 5 -3 12 1 15 10 3 8 10 12 16 9 5 -3 10 -1 10 5 0 6 5 8 12 4 7
-4 8 -3 4 4 -6 11 6 16 27 13 4 0 7 4 7 10 0 5 5 7 10 4 6 -3 13 1 16 9 3 9
10 13 15 10 5 -3 9 0 9 6 0 6 5 8 10 5 6 -3 13 1 16 9 3 9 10 13 15 10 5 -3 9
0 9 6 0 6 4 9 9 6 5 -3 12 1 15 10 3 8 10 12 16 9 5 -3 10 -1 10 5 0 6 5 8 10
5 6 -3 10 -1 10 5 0 6 5 8 10 5 6 -3 10 -1 10 5 0 6 5 8 10 5 6 -3 10 -1 10 5
0 6 5 8 10 5 6 -3 10 -1 10 5 0 6 5 8 10 5 6 -3 10 -2 10 4 0 11 64 44 86 44
7 0 10 5 7 10 -4 6 0 8 10 4 10 -3 17 -2 17 4 0 6 5 7 10 4 6 -3 10 -1 10 5 0
6 5 8 12 4 7 -4 8 -3 4 4 -4 7 -8 12 -10 12 -2 0 -47 -22 -102 -49z"/>
<path d="M15986 12989 c5 -9 -1 -10 -22 -5 -23 5 -26 4 -14 -4 12 -9 10 -11
-12 -7 -17 2 -25 0 -21 -6 4 -6 -4 -7 -21 -3 -20 5 -26 3 -21 -5 5 -8 1 -9
-15 -4 -17 5 -21 4 -15 -6 6 -9 2 -11 -13 -7 -14 4 -20 2 -15 -5 4 -6 -2 -8
-15 -5 -14 4 -20 2 -15 -5 4 -6 -2 -8 -15 -5 -12 4 -22 2 -22 -4 0 -6 -7 -7
-16 -4 -10 4 -13 2 -8 -6 5 -7 0 -9 -14 -6 -14 4 -20 2 -16 -4 4 -6 -2 -8 -16
-3 -17 5 -21 4 -15 -6 6 -9 3 -11 -8 -6 -10 3 -17 2 -17 -3 0 -5 -7 -6 -17 -3
-12 5 -14 3 -8 -7 6 -10 4 -12 -9 -7 -11 4 -15 3 -10 -4 4 -8 -1 -9 -16 -4
-17 5 -21 4 -15 -6 6 -9 3 -11 -8 -6 -10 3 -17 2 -17 -4 0 -6 -4 -7 -10 -4 -5
3 -10 1 -10 -5 0 -6 -5 -8 -12 -4 -7 5 -8 3 -3 -6 6 -10 4 -12 -8 -7 -10 3
-17 2 -17 -4 0 -6 -4 -7 -10 -4 -5 3 -10 1 -10 -5 0 -6 -4 -8 -10 -5 -5 3 -10
1 -10 -5 0 -6 -4 -8 -10 -5 -5 3 -10 1 -10 -5 0 -6 -4 -8 -10 -5 -5 3 -10 1
-10 -5 0 -6 -4 -8 -10 -5 -5 3 -10 1 -10 -5 0 -6 -4 -9 -9 -6 -5 3 -12 -1 -15
-10 -3 -8 -10 -12 -16 -9 -5 3 -10 1 -10 -5 0 -6 -4 -9 -9 -6 -5 3 -12 -1 -15
-10 -3 -8 -10 -12 -16 -9 -5 3 -10 1 -10 -5 0 -6 -5 -8 -10 -5 -6 3 -13 -1
-16 -9 -3 -9 -10 -14 -15 -11 -4 3 -13 -4 -19 -15 -6 -11 -15 -18 -19 -15 -5
3 -12 -2 -15 -11 -3 -8 -10 -13 -15 -9 -6 3 -15 -4 -21 -15 -6 -11 -15 -18
-19 -15 -5 2 -16 -6 -25 -20 -9 -14 -20 -24 -25 -22 -4 1 -29 -22 -55 -51 -27
-28 -51 -50 -55 -47 -10 5 -53 -39 -46 -47 3 -3 -18 -27 -47 -53 -29 -26 -53
-50 -53 -54 -1 -13 -22 -43 -31 -42 -5 1 -10 -3 -10 -9 -1 -5 -2 -14 -3 -20 0
-5 -6 -9 -13 -7 -7 1 -13 -4 -14 -10 -1 -7 -2 -18 -3 -24 0 -5 -6 -7 -11 -4
-6 4 -10 3 -9 -2 3 -20 -2 -33 -13 -30 -8 1 -12 -6 -10 -17 2 -11 -1 -15 -8
-11 -6 3 -10 3 -9 -2 3 -20 -2 -34 -11 -28 -6 4 -10 3 -9 -2 3 -20 -2 -34 -11
-28 -6 4 -7 -1 -3 -11 4 -12 3 -15 -5 -10 -8 5 -10 1 -5 -10 4 -12 3 -15 -6
-10 -6 4 -10 4 -9 -1 4 -16 -14 -53 -23 -48 -5 3 -6 -2 -2 -11 4 -12 3 -15 -5
-10 -8 5 -10 1 -5 -10 4 -12 3 -15 -5 -10 -8 5 -10 1 -5 -10 3 -10 2 -15 -3
-12 -5 4 -10 -5 -11 -19 0 -16 20 13 54 78 267 504 689 819 1331 995 42 11 59
20 50 25 -19 12 -30 11 -22 -2z"/>
<path d="M10842 12243 c-1 -7 -7 -12 -14 -10 -7 1 -12 -2 -13 -8 0 -15 -28
-52 -40 -54 -5 0 -10 -4 -10 -8 -1 -13 -20 -41 -30 -45 -5 -2 -9 -6 -8 -10 2
-4 -8 -15 -22 -24 -14 -9 -22 -20 -20 -25 3 -4 -4 -13 -15 -19 -11 -6 -18 -15
-15 -19 2 -5 -7 -16 -20 -25 -14 -9 -23 -21 -20 -25 3 -5 -2 -12 -10 -15 -8
-3 -15 -9 -14 -13 3 -20 -2 -34 -11 -28 -6 4 -10 3 -9 -2 3 -20 -2 -34 -11
-28 -6 4 -10 3 -9 -2 3 -20 -2 -33 -13 -30 -8 1 -12 -6 -10 -17 2 -11 -1 -15
-8 -11 -6 3 -10 3 -9 -2 3 -20 -2 -34 -11 -28 -6 4 -7 -1 -3 -11 4 -12 3 -15
-6 -10 -6 4 -11 4 -10 -1 3 -20 -2 -34 -11 -28 -6 4 -7 -1 -3 -11 4 -12 3 -15
-5 -10 -8 5 -10 1 -5 -10 4 -10 2 -15 -3 -11 -6 3 -10 -11 -11 -36 0 -27 1
-32 4 -14 9 57 139 258 286 442 52 66 93 124 90 130 -3 5 0 5 6 -1 8 -7 14
-59 18 -140 l6 -129 -81 -133 c-45 -73 -93 -149 -106 -169 -14 -20 -23 -40
-20 -45 9 -14 23 2 17 19 -4 11 -3 14 6 9 6 -4 11 -4 10 1 -3 20 2 34 11 28 6
-4 10 -3 9 2 -4 21 2 34 13 27 6 -4 8 -3 5 3 -4 6 0 13 8 17 9 3 12 12 8 22
-4 12 -3 15 6 10 6 -4 11 -4 10 1 -3 20 2 34 11 28 6 -4 10 -3 9 2 -3 20 2 34
11 28 6 -4 7 1 3 11 -4 12 -3 15 6 10 6 -4 11 -4 10 1 -3 20 2 34 11 28 6 -4
7 1 3 11 -4 12 -3 15 6 10 6 -4 11 -4 10 1 -3 20 2 34 11 28 6 -4 7 1 3 11 -4
11 -2 15 4 11 6 -4 11 20 12 66 0 40 3 110 5 157 2 47 1 63 -2 35 l-6 -50 -6
60 c-4 33 -7 54 -8 48z"/>
<path d="M17599 10558 c-1 -47 -2 -50 -10 -23 -7 25 -7 22 -3 -13 6 -56 -5
-119 -18 -100 -5 8 -6 2 -2 -16 5 -19 3 -27 -4 -22 -6 4 -8 -2 -4 -16 3 -13 1
-19 -5 -15 -7 5 -9 -1 -5 -15 3 -13 1 -19 -5 -15 -7 5 -9 -1 -5 -15 3 -14 1
-19 -6 -14 -8 5 -10 1 -5 -10 4 -12 3 -15 -5 -10 -8 5 -10 1 -5 -10 5 -13 3
-15 -7 -9 -8 5 -11 4 -6 -3 8 -13 -24 -83 -36 -76 -4 3 -5 -3 -1 -12 5 -13 3
-15 -7 -9 -7 5 -11 4 -7 -1 6 -11 -14 -51 -28 -56 -5 -2 -9 -9 -7 -16 2 -7 -3
-11 -10 -10 -6 2 -13 -3 -14 -9 -1 -7 -2 -18 -3 -24 0 -5 -6 -7 -13 -3 -6 4
-9 3 -5 -2 6 -11 -13 -40 -28 -42 -5 -1 -10 -5 -10 -9 0 -10 -218 -228 -227
-228 -4 0 -15 -10 -23 -23 -9 -12 -20 -20 -25 -17 -5 3 -14 -4 -20 -15 -6 -11
-15 -18 -21 -15 -5 4 -12 -1 -15 -9 -3 -9 -10 -14 -15 -11 -4 3 -13 -4 -19
-15 -6 -11 -15 -18 -19 -15 -5 3 -12 -2 -15 -11 -3 -8 -10 -12 -16 -9 -5 3
-10 1 -10 -5 0 -6 -5 -8 -10 -5 -6 3 -13 -1 -16 -9 -3 -9 -10 -14 -14 -11 -4
3 -11 -2 -14 -11 -3 -8 -10 -12 -16 -9 -5 3 -10 1 -10 -5 0 -6 -4 -8 -10 -5
-5 3 -10 1 -10 -5 0 -6 -4 -8 -10 -5 -5 3 -10 1 -10 -5 0 -6 -5 -8 -12 -4 -7
5 -8 3 -3 -6 6 -10 4 -12 -9 -7 -9 4 -15 3 -12 -2 7 -11 -22 -23 -36 -14 -7 4
-8 1 -3 -7 6 -10 4 -12 -9 -7 -11 5 -15 3 -10 -5 5 -8 2 -9 -9 -5 -10 3 -17 2
-17 -4 0 -6 -4 -7 -10 -4 -5 3 -10 1 -10 -5 0 -6 -4 -8 -10 -5 -5 3 -10 2 -10
-4 0 -6 -7 -7 -17 -4 -12 5 -14 3 -8 -7 6 -10 4 -12 -9 -7 -11 4 -15 3 -10 -4
4 -8 -1 -9 -16 -4 -17 5 -21 4 -15 -6 6 -9 3 -11 -9 -6 -11 4 -15 3 -10 -4 4
-8 -1 -9 -16 -4 -17 5 -21 4 -15 -6 6 -9 4 -11 -8 -6 -9 3 -19 2 -22 -4 -4 -5
-11 -6 -17 -3 -7 5 -8 2 -3 -6 6 -10 3 -12 -13 -8 -14 4 -20 2 -16 -4 5 -7 -3
-9 -22 -4 -23 5 -26 4 -11 -5 20 -12 87 5 87 22 0 6 4 8 9 4 14 -8 150 48 279
116 466 244 807 661 839 1027 3 39 3 72 -1 72 -3 0 -7 -24 -7 -52z"/>
<path d="M10437 10329 c4 -15 3 -20 -5 -15 -8 5 -10 1 -5 -10 4 -11 3 -15 -4
-11 -7 5 -9 -1 -5 -15 3 -13 1 -19 -5 -15 -7 5 -9 -1 -5 -15 3 -13 1 -19 -5
-15 -7 5 -9 -1 -6 -15 4 -19 3 -20 -6 -8 -9 12 -10 9 -5 -15 4 -23 3 -27 -5
-15 -9 12 -10 8 -5 -15 4 -23 3 -27 -5 -15 -9 12 -10 9 -5 -14 4 -18 3 -27 -3
-23 -6 4 -8 -4 -6 -21 4 -21 2 -24 -6 -12 -8 11 -9 6 -5 -20 8 -42 14 -51 14
-21 0 36 81 274 90 265 12 -12 165 -338 225 -479 l47 -110 -22 -130 c-12 -71
-23 -131 -25 -133 -1 -2 -29 39 -60 90 -70 112 -71 113 -80 97 -6 -8 -4 -10 5
-4 10 6 12 4 7 -9 -4 -10 -1 -19 8 -22 8 -4 12 -11 8 -17 -3 -6 -1 -7 5 -3 11
7 17 -6 13 -27 -1 -5 4 -5 10 -1 9 5 10 2 6 -10 -4 -10 -3 -15 3 -11 9 6 14
-8 11 -28 -1 -5 3 -6 9 -2 9 6 14 -8 11 -28 -1 -5 3 -5 9 -2 7 4 10 0 8 -11
-2 -12 2 -18 11 -16 8 2 11 -3 8 -12 -4 -9 -3 -18 2 -20 4 -3 8 0 9 7 1 7 5
28 8 47 6 30 8 32 15 15 5 -12 6 -2 3 25 -4 32 -3 41 5 31 7 -11 8 -2 5 30 -3
32 -2 39 5 24 7 -14 8 -4 5 35 -3 39 -1 48 5 30 7 -20 8 -14 7 26 0 29 -5 50
-10 47 -4 -3 -5 5 -1 18 5 20 4 21 -5 9 -10 -12 -11 -11 -7 8 3 14 1 20 -6 15
-7 -4 -8 0 -4 11 4 10 3 15 -3 11 -9 -6 -14 10 -13 42 1 7 -4 10 -10 6 -6 -4
-8 0 -4 11 5 11 3 15 -5 10 -8 -5 -9 -2 -5 10 5 11 3 15 -5 10 -7 -5 -9 0 -6
14 4 14 2 20 -5 15 -7 -4 -8 0 -4 11 5 11 3 15 -5 10 -8 -5 -9 -2 -5 10 5 11
3 15 -5 10 -8 -5 -9 -2 -5 10 4 10 3 15 -3 11 -9 -6 -14 10 -13 42 1 7 -4 10
-10 6 -6 -4 -8 0 -4 11 5 11 3 15 -5 10 -8 -5 -9 -2 -5 10 5 11 3 15 -5 10 -8
-5 -9 -2 -5 10 5 11 3 15 -5 10 -8 -5 -9 -2 -5 10 5 11 3 15 -5 10 -8 -5 -9
-2 -5 10 5 11 3 15 -5 10 -8 -5 -9 -2 -5 10 5 11 3 15 -5 10 -7 -5 -9 0 -6 14
4 14 2 20 -5 15 -7 -4 -8 0 -4 11 5 11 3 15 -5 10 -8 -5 -9 -2 -5 10 5 11 3
15 -5 10 -8 -5 -9 -2 -5 10 5 11 3 15 -5 10 -8 -5 -9 -2 -5 10 5 11 3 15 -5
10 -8 -5 -9 -2 -5 10 5 11 3 15 -5 10 -8 -5 -9 -2 -5 10 4 10 3 15 -3 11 -6
-3 -10 0 -10 8 0 8 -6 20 -14 26 -12 10 -13 8 -9 -10z"/>
<path d="M14121 10246 c-2 -17 92 -171 159 -261 114 -155 286 -317 440 -416
148 -96 345 -188 364 -169 8 8 6 9 -8 4 -15 -6 -17 -4 -11 6 6 10 4 12 -8 7
-10 -3 -17 -3 -17 1 0 4 -10 9 -22 9 -13 1 -24 7 -26 13 -2 5 -8 8 -13 4 -5
-3 -9 0 -9 6 0 6 -4 8 -10 5 -5 -3 -10 -1 -10 5 0 6 -4 8 -10 5 -5 -3 -10 -1
-10 5 0 6 -4 8 -10 5 -5 -3 -10 -1 -10 5 0 6 -4 8 -10 5 -5 -3 -10 -1 -10 5 0
6 -4 8 -10 5 -5 -3 -10 -1 -10 5 0 6 -4 8 -10 5 -5 -3 -10 -1 -10 5 0 6 -4 8
-10 5 -5 -3 -10 -1 -10 4 0 6 -3 10 -7 10 -21 -3 -33 2 -27 13 4 7 3 8 -4 4
-7 -4 -12 -2 -12 4 0 6 -5 8 -10 5 -6 -3 -13 1 -16 9 -3 9 -10 14 -14 11 -4
-3 -11 2 -14 11 -3 8 -10 13 -15 10 -5 -3 -12 1 -15 10 -3 8 -10 12 -16 9 -6
-3 -13 1 -16 9 -3 9 -10 14 -14 11 -4 -3 -15 7 -24 20 -9 14 -21 23 -25 20 -5
-2 -16 6 -25 20 -9 14 -20 24 -24 22 -8 -2 -187 174 -187 186 0 4 -4 7 -9 6
-10 -1 -30 29 -31 46 -1 6 -6 9 -13 8 -7 -2 -13 2 -13 7 -1 6 -2 16 -3 23 -1
6 -7 11 -14 10 -11 -3 -16 10 -13 30 1 5 -3 6 -9 2 -9 -6 -14 7 -11 28 0 4 -5
6 -11 5 -7 -2 -12 5 -12 14 1 10 -2 15 -7 12 -8 -5 -13 10 -10 29 1 5 -4 5
-10 1 -9 -5 -10 -2 -6 10 5 11 3 15 -5 10 -8 -5 -9 -2 -5 10 4 10 3 15 -3 11
-9 -6 -14 8 -11 28 1 5 -4 5 -10 1 -9 -5 -10 -2 -6 10 5 11 3 15 -5 10 -8 -5
-9 -2 -5 10 4 9 3 15 -2 11 -5 -3 -12 1 -14 7 -3 7 -6 9 -6 4z"/>
<path d="M10217 9878 c-38 -312 60 -618 303 -948 l48 -65 -10 -68 c-5 -38 -7
-85 -5 -105 3 -28 4 -21 7 23 2 55 3 57 10 25 6 -24 7 -12 5 40 -3 56 -2 67 5
45 9 -29 9 -29 4 5 -2 19 -5 40 -6 47 -1 7 -5 10 -9 8 -7 -5 -23 25 -20 38 1
5 -3 6 -9 2 -5 -3 -11 -1 -11 4 -1 6 -2 16 -3 21 0 6 -7 14 -14 19 -8 5 -14
12 -15 17 -1 5 -5 8 -9 7 -8 -3 -12 13 -9 30 1 5 -3 6 -9 2 -9 -6 -14 8 -11
28 1 5 -4 5 -10 1 -9 -5 -10 -2 -6 10 4 10 3 15 -3 11 -9 -6 -14 8 -11 28 1 5
-3 6 -8 3 -9 -6 -27 31 -23 47 1 5 -3 5 -9 1 -9 -5 -10 -2 -6 10 5 11 3 15 -5
10 -8 -5 -9 -2 -5 10 4 9 3 15 -2 12 -11 -7 -33 43 -25 56 5 7 2 8 -6 3 -10
-6 -12 -4 -7 9 5 11 3 15 -5 10 -8 -5 -9 -2 -5 10 5 11 3 15 -5 10 -7 -5 -9 0
-6 14 4 14 2 20 -5 15 -7 -4 -8 0 -4 11 5 11 3 15 -5 10 -7 -5 -9 0 -6 14 4
14 2 20 -5 15 -6 -4 -8 2 -5 15 4 14 2 20 -5 15 -6 -4 -8 2 -5 15 4 14 2 20
-4 16 -7 -5 -9 3 -4 22 5 23 4 26 -5 14 -8 -12 -9 -7 -5 20 5 27 3 31 -5 20
-8 -11 -9 -4 -5 30 4 33 3 40 -5 25 -7 -14 -8 -3 -5 40 3 39 2 51 -4 35 -5
-16 -8 21 -8 100 0 80 3 116 8 100 6 -16 7 -6 3 30 -3 30 -7 56 -8 58 -1 1 -5
-21 -8 -50z"/>
<path d="M17962 8643 c4 -16 -14 -53 -23 -48 -5 3 -6 -2 -2 -11 4 -12 3 -15
-6 -10 -6 4 -11 4 -10 -1 3 -20 -2 -34 -11 -28 -6 4 -7 -1 -3 -11 4 -12 3 -15
-6 -10 -6 4 -11 4 -10 -1 3 -20 -2 -34 -11 -28 -6 4 -7 -1 -3 -11 4 -12 3 -15
-6 -10 -6 4 -11 4 -10 -1 3 -20 -2 -34 -11 -28 -6 4 -10 3 -9 -2 3 -20 -2 -34
-11 -28 -6 3 -7 -1 -4 -10 4 -10 2 -15 -7 -13 -7 2 -14 -3 -15 -9 -1 -7 -2
-18 -3 -24 0 -5 -6 -7 -11 -4 -6 4 -10 3 -9 -2 3 -20 -2 -34 -11 -28 -6 4 -10
3 -9 -2 3 -20 -2 -33 -13 -30 -7 1 -13 -4 -14 -10 -1 -7 -2 -17 -3 -23 0 -5
-6 -9 -13 -7 -7 1 -13 -4 -14 -10 -1 -7 -2 -18 -3 -24 0 -5 -6 -7 -11 -4 -6 4
-9 3 -8 -2 2 -4 -5 -19 -15 -33 -9 -13 -17 -21 -17 -16 0 5 -7 3 -15 -4 -8 -6
-14 -15 -13 -18 2 -13 -14 -42 -22 -37 -4 2 -15 -4 -25 -15 -10 -11 -15 -20
-10 -20 4 0 -39 -46 -95 -102 -57 -57 -107 -102 -111 -101 -5 2 -20 -13 -35
-32 -14 -19 -30 -33 -34 -30 -5 3 -18 -8 -30 -25 -12 -17 -25 -28 -30 -25 -4
3 -15 -7 -25 -21 -9 -14 -19 -23 -22 -20 -4 3 -13 -3 -20 -14 -8 -11 -18 -18
-23 -15 -4 3 -11 -2 -14 -11 -3 -8 -10 -13 -15 -10 -5 3 -12 -1 -15 -10 -3 -8
-10 -12 -16 -9 -6 3 -13 -1 -16 -9 -3 -9 -10 -13 -15 -10 -5 3 -12 -2 -15 -10
-3 -9 -10 -14 -14 -11 -4 3 -11 -2 -14 -11 -3 -8 -10 -12 -16 -9 -5 3 -10 1
-10 -5 0 -6 -5 -8 -12 -4 -7 4 -8 3 -4 -4 6 -11 -6 -16 -26 -13 -5 0 -8 -4 -8
-10 0 -5 -4 -8 -9 -5 -5 3 -12 -1 -15 -10 -3 -8 -10 -12 -16 -9 -5 3 -10 1
-10 -5 0 -6 -4 -8 -10 -5 -5 3 -10 1 -10 -5 0 -6 -4 -8 -10 -5 -5 3 -10 1 -10
-5 0 -6 -4 -8 -10 -5 -5 3 -10 1 -10 -6 0 -7 -3 -9 -7 -6 -3 4 -11 0 -17 -9
-6 -8 -21 -16 -33 -17 -12 0 -19 -5 -16 -11 4 -5 -1 -7 -10 -3 -10 3 -17 2
-17 -4 0 -6 -4 -7 -10 -4 -5 3 -10 1 -10 -5 0 -6 -4 -8 -10 -5 -5 3 -10 1 -10
-5 0 -6 -4 -8 -10 -5 -5 3 -10 1 -10 -5 0 -7 -7 -10 -15 -6 -8 3 -15 1 -15 -5
0 -6 -5 -7 -12 -3 -7 5 -8 3 -3 -6 6 -10 4 -12 -8 -7 -10 4 -17 2 -17 -4 0 -6
-8 -8 -17 -4 -14 5 -15 4 -6 -6 10 -10 33 -3 110 32 499 226 912 594 1214
1084 77 124 91 153 79 160 -6 4 -9 3 -8 -2z"/>
<path d="M17320 8458 c-264 -478 -583 -792 -1004 -988 -47 -22 -75 -40 -68
-44 7 -4 12 -2 12 4 0 7 7 10 15 6 8 -3 15 -1 15 5 0 6 5 7 10 4 6 -3 10 -1
10 5 0 6 5 8 10 5 6 -3 10 -1 10 5 0 6 5 8 10 5 6 -3 10 -1 10 5 0 6 5 8 10 5
6 -3 10 -1 10 5 0 6 5 8 10 5 6 -3 10 -1 10 5 0 6 5 8 10 5 6 -3 10 -1 10 5 0
6 5 8 10 5 6 -3 10 -1 10 5 0 6 5 8 10 5 6 -3 10 -1 10 5 0 6 5 8 10 5 6 -3
10 -1 10 5 0 6 5 8 12 4 7 -4 8 -3 4 4 -4 7 -2 12 3 12 6 0 13 0 16 0 3 0 14
9 25 20 12 12 25 18 29 15 5 -2 12 2 15 11 3 8 10 13 15 10 5 -3 12 1 15 10 3
8 10 13 15 10 5 -3 12 1 15 10 3 8 10 13 15 10 5 -3 12 1 15 10 3 8 10 13 15
9 6 -3 15 4 21 15 6 11 15 18 19 15 5 -2 21 11 35 30 15 19 30 34 34 33 9 -2
207 195 204 204 -1 4 14 19 33 34 19 14 33 30 30 34 -3 4 6 15 20 24 14 9 24
20 24 24 -3 20 2 33 11 27 6 -4 10 -3 9 2 -4 15 13 43 22 37 5 -3 9 -2 8 3 -3
20 2 33 13 31 7 -2 13 3 14 10 1 6 2 17 3 23 0 5 6 7 11 4 6 -4 10 -3 9 2 -3
20 2 34 11 28 6 -4 10 -3 9 2 -3 20 2 34 11 28 6 -4 7 1 3 11 -4 12 -3 15 6
10 6 -4 11 -4 10 1 -3 20 2 34 11 28 6 -4 10 -3 9 2 -3 20 2 34 11 28 6 -4 7
1 3 11 -4 12 -3 15 6 10 6 -4 11 -4 10 1 -3 20 2 34 11 28 6 -4 7 1 3 11 -4
12 -3 15 5 10 8 -5 10 -1 5 10 -4 11 -2 15 4 11 6 -4 10 1 9 11 0 9 4 16 11
15 8 -2 10 4 6 14 -4 11 -3 14 5 9 8 -5 10 -1 5 10 -4 12 -3 15 5 10 8 -5 10
-1 5 10 -4 12 -3 15 5 10 8 -5 10 -1 5 10 -5 13 -3 15 7 9 9 -5 11 -4 6 3 -4
7 -9 12 -10 12 -2 0 -32 -50 -66 -112z"/>
<path d="M22582 8452 c-1 -7 -6 -11 -11 -8 -9 6 -29 -12 -30 -27 -1 -15 -18
-39 -27 -38 -5 1 -9 -2 -9 -6 -1 -15 -20 -42 -30 -42 -5 -1 -10 -6 -10 -11 0
-6 -7 -15 -15 -20 -8 -5 -15 -13 -15 -17 -1 -13 -21 -45 -31 -46 -4 -1 -8 -13
-6 -27 1 -18 0 -21 -6 -8 -4 9 -7 -39 -7 -107 0 -69 -3 -125 -7 -125 -5 0 -8
-5 -8 -12 0 -6 13 1 29 16 16 15 31 26 34 24 3 -1 41 35 84 82 l80 85 4 120
c3 66 3 104 0 85 -4 -29 -6 -24 -11 30 -4 36 -7 59 -8 52z m5 -158 l6 -129
-71 -65 c-39 -35 -69 -67 -66 -71 2 -4 -3 -12 -11 -19 -8 -7 -15 -9 -15 -5 0
5 -10 0 -21 -11 l-22 -19 9 105 c4 58 8 117 8 132 1 14 4 24 8 22 8 -5 33 37
30 49 -1 5 2 6 7 2 12 -7 33 29 23 40 -4 5 -2 5 5 1 12 -7 40 31 35 47 -1 5 2
6 7 2 6 -3 16 5 23 17 11 21 14 27 17 45 0 4 6 2 11 -3 6 -6 13 -69 17 -140z"/>
<path d="M10916 8318 c-9 -208 -12 -537 -4 -498 5 24 6 14 4 -30 -3 -40 -1
-57 4 -45 8 19 9 19 9 -2 1 -13 1 -26 1 -30 1 -14 133 -142 141 -137 4 2 22
-14 40 -36 17 -21 36 -37 40 -34 5 3 8 24 8 47 l-2 42 -6 -35 -7 -35 -102 100
-102 100 -10 75 c-10 83 -12 471 -1 564 l6 59 83 -106 83 -106 8 -78 c6 -60 9
-67 10 -32 0 26 3 62 6 80 4 29 3 30 -4 9 l-9 -25 -2 28 c-1 15 -3 32 -4 37 0
6 -8 15 -16 20 -8 5 -15 14 -15 20 0 5 -4 10 -9 9 -10 -1 -30 29 -31 46 -1 6
-6 9 -13 8 -7 -2 -13 2 -13 7 -1 6 -2 14 -3 20 -1 13 -26 36 -26 25 0 -5 -8 2
-17 15 -10 14 -18 29 -18 34 0 5 -5 11 -11 13 -8 3 -14 -36 -18 -129z"/>
<path d="M10556 8320 c10 -175 100 -392 236 -567 26 -35 48 -71 48 -80 0 -32
46 -186 79 -265 45 -106 137 -242 235 -345 73 -78 85 -97 110 -168 76 -217
229 -422 417 -560 42 -31 61 -54 87 -108 102 -208 283 -401 487 -519 71 -41
222 -110 242 -112 13 0 23 -4 23 -8 0 -3 21 -13 46 -22 33 -11 51 -13 63 -5
13 8 11 9 -8 3 -17 -4 -21 -3 -16 6 5 9 1 10 -15 5 -14 -5 -20 -3 -16 3 4 6
-2 8 -16 4 -16 -4 -19 -2 -13 8 5 8 4 11 -3 6 -6 -3 -13 -2 -17 3 -3 6 -13 7
-22 4 -11 -4 -14 -3 -9 5 5 8 1 10 -10 5 -12 -5 -15 -3 -9 6 6 10 2 11 -15 6
-17 -5 -21 -4 -15 5 5 9 4 11 -3 6 -7 -4 -12 -3 -12 3 0 6 -7 8 -15 5 -8 -4
-15 -1 -15 6 0 6 -4 8 -10 5 -5 -3 -10 -1 -10 5 0 6 -4 8 -10 5 -5 -3 -10 -1
-10 5 0 6 -4 8 -10 5 -5 -3 -10 -1 -10 5 0 6 -4 8 -10 5 -5 -3 -10 -1 -10 5 0
6 -4 9 -9 6 -5 -3 -12 1 -15 10 -3 8 -10 12 -16 9 -5 -3 -10 -1 -10 5 0 6 -4
8 -10 5 -5 -3 -10 -1 -10 5 0 6 -4 9 -9 5 -6 -3 -14 3 -20 12 -5 10 -12 17
-15 16 -15 -7 -26 -2 -20 9 4 6 3 8 -3 5 -6 -4 -14 0 -17 9 -3 8 -10 13 -15 9
-6 -3 -15 4 -21 15 -6 11 -14 19 -19 17 -4 -1 -41 33 -81 76 -40 43 -75 75
-78 72 -7 -6 -38 37 -34 48 1 5 -2 6 -7 3 -9 -6 -26 22 -22 37 1 5 -3 6 -9 2
-9 -6 -14 8 -11 28 1 5 -3 6 -9 2 -9 -6 -14 8 -11 28 1 5 -4 5 -10 1 -9 -5
-10 -2 -6 10 5 11 3 15 -5 10 -8 -5 -9 -2 -5 10 4 10 3 15 -3 11 -9 -6 -14 8
-11 28 1 5 -4 5 -10 1 -9 -5 -10 -2 -6 10 5 11 3 15 -5 10 -8 -5 -9 -2 -5 10
5 11 3 15 -5 10 -8 -5 -9 -2 -5 10 5 11 3 15 -5 10 -8 -5 -9 -2 -5 10 5 11 3
15 -4 10 -7 -4 -10 -1 -7 6 4 13 -23 48 -39 51 -5 1 -14 10 -21 21 -7 10 -17
16 -22 13 -5 -3 -14 4 -20 15 -6 11 -14 19 -18 17 -9 -2 -157 144 -157 156 0
4 -3 6 -7 5 -11 -4 -37 36 -31 46 4 5 1 6 -5 2 -11 -6 -17 6 -13 27 1 4 -6 10
-14 13 -8 3 -12 11 -8 17 3 6 1 7 -5 3 -11 -7 -17 6 -13 27 1 5 -4 5 -10 1 -9
-5 -10 -2 -6 10 5 11 3 15 -5 10 -8 -5 -9 -2 -5 10 5 11 3 15 -5 10 -8 -5 -9
-2 -5 10 5 11 3 15 -5 10 -8 -5 -9 -2 -5 10 5 11 3 15 -5 10 -8 -5 -9 -2 -5
10 5 11 3 15 -5 10 -8 -5 -9 -2 -5 10 5 11 3 15 -5 10 -7 -5 -9 0 -6 14 4 14
2 20 -5 15 -7 -4 -8 0 -4 11 5 11 3 15 -5 10 -7 -5 -9 0 -6 14 4 14 2 20 -5
15 -6 -4 -8 2 -5 15 4 14 2 20 -5 15 -6 -4 -8 2 -5 15 4 14 2 20 -5 15 -6 -4
-8 2 -5 15 4 12 0 26 -8 33 -8 6 -14 8 -14 3 0 -4 -16 7 -35 26 -19 18 -32 36
-30 40 2 4 -7 18 -20 30 -14 13 -25 19 -25 14 -1 -10 -24 27 -25 39 0 4 -4 8
-10 9 -15 2 -34 31 -28 42 4 5 1 6 -5 2 -11 -7 -17 6 -13 27 1 5 -3 6 -9 2 -9
-6 -14 8 -11 28 1 5 -4 5 -10 1 -9 -5 -10 -2 -6 10 4 10 3 15 -3 11 -9 -6 -14
8 -11 28 1 5 -4 5 -10 1 -9 -5 -10 -2 -6 10 5 11 3 15 -5 10 -8 -5 -9 -2 -5
10 5 11 3 15 -5 10 -8 -5 -9 -2 -5 10 5 11 3 15 -5 10 -8 -5 -9 -2 -5 10 5 11
3 15 -5 10 -7 -5 -9 0 -6 14 4 14 2 20 -5 15 -7 -4 -8 0 -4 11 5 11 3 15 -5
10 -7 -5 -9 0 -6 14 4 14 2 20 -5 15 -6 -4 -8 2 -5 15 4 14 2 20 -5 15 -6 -4
-8 2 -5 15 4 14 2 20 -4 16 -7 -5 -9 3 -4 22 5 23 4 26 -5 14 -8 -12 -9 -7 -5
20 5 27 3 31 -5 20 -8 -11 -9 -5 -5 25 4 30 3 35 -4 20 -9 -17 -10 -15 -7 12
2 20 -2 34 -10 37 -7 3 -12 11 -11 18 2 7 -3 12 -9 10 -7 -1 -14 2 -14 8 -1 6
-2 15 -3 20 0 6 -5 11 -11 12 -15 2 -34 31 -28 42 4 5 0 6 -7 1 -10 -6 -12 -4
-7 9 4 10 3 15 -3 11 -9 -6 -14 8 -11 28 1 5 -3 5 -9 2 -7 -4 -10 0 -8 11 2
12 -2 18 -11 16 -9 -2 -11 3 -7 13 4 11 2 14 -6 9 -8 -5 -9 -2 -5 10 5 11 3
15 -5 10 -8 -5 -9 -2 -5 10 5 11 3 15 -5 10 -8 -5 -9 -2 -5 10 5 11 3 15 -5
10 -8 -5 -9 -2 -5 10 4 11 3 15 -4 10 -8 -4 -9 1 -4 17 5 20 4 21 -5 9 -10
-12 -11 -11 -7 8 3 13 1 20 -5 16 -6 -4 -8 2 -3 17 5 19 4 21 -5 9 -9 -12 -10
-9 -6 15 5 23 4 27 -5 15 -8 -12 -9 -8 -5 15 5 23 4 27 -4 15 -9 -12 -11 -10
-7 12 2 17 0 25 -6 21 -6 -4 -8 4 -5 20 3 16 1 24 -5 20 -5 -3 -7 11 -3 38 4
34 3 38 -4 19 -7 -20 -9 -13 -6 30 1 30 0 44 -3 30 -4 -20 -6 -17 -12 20 -5
35 -6 30 -3 -20z"/>
<path d="M14439 8284 c0 -25 -2 -26 -9 -9 -5 12 -6 -5 -4 -45 2 -41 1 -54 -4
-35 -5 19 -7 -7 -7 -70 0 -63 2 -89 7 -70 5 19 6 6 4 -35 -3 -45 -1 -59 5 -45
7 15 8 9 4 -20 -3 -30 -2 -36 6 -25 8 12 10 9 6 -12 -2 -17 0 -25 6 -21 6 4 8
-2 5 -15 -4 -14 -2 -20 5 -15 6 4 8 -2 5 -15 -4 -14 -2 -20 5 -15 6 4 8 -2 5
-15 -4 -14 -2 -20 5 -15 7 4 8 0 4 -11 -5 -11 -3 -15 5 -10 8 5 9 2 5 -10 -5
-11 -3 -15 5 -10 8 5 9 2 5 -10 -5 -11 -3 -15 5 -10 8 5 9 2 5 -10 -5 -11 -3
-15 5 -10 8 5 9 2 5 -10 -4 -10 -3 -15 3 -11 9 6 14 -8 11 -28 -1 -5 3 -6 9
-2 9 6 14 -8 11 -28 -1 -5 3 -6 9 -2 5 3 11 1 11 -4 1 -6 2 -15 3 -21 0 -5 5
-10 10 -9 10 1 28 -26 25 -37 -2 -10 84 -93 92 -88 4 2 14 -5 22 -16 7 -11 16
-17 20 -14 3 3 10 -4 17 -15 6 -12 15 -19 21 -16 5 4 9 1 9 -5 0 -6 5 -8 10
-5 6 3 10 1 10 -4 0 -6 3 -10 8 -10 20 3 32 -2 26 -13 -4 -7 -3 -8 4 -4 7 4
12 3 12 -3 0 -6 7 -8 15 -5 8 4 15 1 15 -6 0 -6 5 -8 10 -5 6 3 10 2 10 -4 0
-6 7 -7 17 -4 12 5 14 3 8 -7 -5 -8 -4 -11 3 -6 6 3 13 2 17 -3 3 -6 13 -7 22
-4 12 5 14 3 8 -6 -6 -10 -2 -11 15 -6 16 5 20 4 15 -4 -5 -8 1 -10 21 -5 18
5 25 3 20 -4 -4 -6 2 -8 16 -4 19 5 12 9 -36 24 -32 10 -62 15 -67 12 -5 -3
-9 -1 -9 4 0 5 -25 20 -56 33 -311 126 -517 488 -474 833 6 49 8 91 5 94 -3 3
-5 -8 -6 -24z"/>
<path d="M14082 8229 c-3 -40 42 -205 79 -294 95 -229 312 -451 567 -580 72
-37 96 -45 105 -36 9 9 8 11 -7 5 -13 -5 -17 -4 -12 4 5 8 1 10 -10 5 -13 -5
-15 -3 -9 7 6 10 4 12 -8 7 -10 -3 -17 -2 -17 4 0 6 -4 7 -10 4 -5 -3 -10 -1
-10 5 0 6 -4 8 -10 5 -5 -3 -10 -1 -10 5 0 6 -4 9 -9 6 -5 -3 -11 1 -15 9 -3
9 -12 12 -22 8 -13 -5 -15 -3 -9 7 5 9 4 11 -3 6 -7 -4 -12 -2 -12 4 0 6 -4 9
-9 6 -5 -3 -12 1 -15 10 -3 8 -10 13 -15 10 -5 -3 -12 1 -15 10 -3 8 -10 13
-15 10 -5 -3 -12 1 -15 10 -3 8 -10 12 -16 9 -6 -3 -13 1 -16 9 -3 9 -10 14
-15 11 -4 -3 -16 6 -25 20 -9 13 -19 23 -23 20 -9 -5 -157 142 -155 153 1 4
-2 6 -7 4 -5 -1 -10 2 -10 8 -1 6 -2 16 -3 23 -1 6 -7 11 -14 9 -11 -2 -16 11
-13 31 1 5 -3 6 -9 2 -9 -6 -14 8 -11 28 1 5 -3 6 -9 2 -9 -6 -14 8 -11 28 1
5 -4 5 -10 1 -9 -5 -10 -2 -6 10 5 11 3 15 -5 10 -8 -5 -9 -2 -5 10 5 11 3 15
-5 10 -8 -5 -9 -2 -5 10 5 11 3 15 -5 10 -8 -5 -9 -2 -5 10 5 11 3 15 -5 10
-8 -5 -9 -2 -5 10 4 10 3 15 -3 11 -9 -6 -14 10 -13 42 1 7 -4 10 -10 6 -6 -4
-8 2 -5 15 4 14 2 20 -5 15 -6 -4 -8 2 -5 15 4 14 2 20 -5 15 -6 -4 -8 2 -5
15 4 14 2 20 -4 16 -7 -5 -9 2 -6 19 3 16 1 24 -5 20 -7 -4 -8 6 -4 28 5 26 4
30 -4 19 -8 -11 -9 -2 -5 35 3 33 2 41 -3 25 -8 -24 -8 -23 -13 10 -4 27 -5
29 -6 9z"/>
<path d="M11246 8012 c-3 -5 18 -52 45 -105 28 -54 70 -157 94 -230 46 -142
103 -382 92 -393 -4 -4 -30 11 -59 33 -29 21 -74 55 -100 74 -26 19 -48 41
-48 49 -1 9 -3 11 -6 3 -7 -15 25 -65 37 -58 4 3 13 -4 19 -15 6 -11 15 -18
20 -15 5 3 14 -4 20 -15 6 -11 15 -18 19 -15 5 3 12 -2 15 -11 3 -8 10 -13 15
-9 6 3 15 -4 21 -15 6 -11 15 -18 21 -15 5 4 12 0 15 -8 8 -22 32 -16 39 11 3
13 4 27 0 30 -3 3 -5 -2 -5 -11 0 -9 -4 -19 -10 -22 -5 -3 -8 0 -6 7 3 7 7 27
10 43 5 23 4 27 -5 15 -8 -12 -9 -6 -5 25 3 23 2 34 -3 27 -11 -18 -24 50 -16
81 5 18 4 19 -5 7 -9 -12 -10 -8 -6 20 5 27 3 31 -5 20 -8 -12 -10 -9 -6 12 2
17 0 25 -6 21 -6 -4 -7 5 -3 23 5 23 4 26 -5 14 -8 -12 -9 -7 -5 20 5 27 3 31
-5 20 -8 -12 -9 -8 -5 15 5 24 4 27 -5 15 -9 -12 -10 -11 -6 8 3 14 1 20 -6
15 -6 -4 -8 2 -5 15 4 14 2 20 -5 15 -6 -4 -8 2 -5 15 4 14 2 20 -5 15 -6 -4
-8 2 -5 15 4 14 2 20 -5 15 -7 -4 -8 0 -4 11 5 11 3 15 -5 10 -7 -5 -9 0 -6
14 4 14 2 20 -5 15 -7 -4 -8 0 -4 11 5 11 3 15 -5 10 -8 -5 -9 -2 -5 10 5 11
3 15 -5 10 -8 -5 -9 -2 -5 10 5 11 3 15 -5 10 -8 -5 -9 -2 -5 10 5 11 3 15 -5
10 -8 -5 -9 -2 -5 10 5 11 3 15 -5 10 -8 -5 -9 -2 -5 10 5 11 3 15 -5 10 -8
-5 -9 -2 -5 10 4 10 3 15 -3 11 -9 -6 -14 8 -11 28 1 5 -4 5 -10 1 -9 -5 -10
-2 -6 9 7 18 2 23 -7 9z"/>
<path d="M22576 7759 c-20 -171 -104 -390 -201 -517 -26 -35 -49 -61 -52 -58
-2 2 2 62 11 133 22 181 38 411 34 458 -3 25 -6 7 -8 -45 -3 -80 -4 -82 -10
-35 -5 31 -6 7 -4 -65 2 -72 0 -106 -5 -90 -5 16 -7 -2 -5 -55 3 -54 1 -72 -5
-55 -6 17 -8 3 -5 -45 3 -52 1 -64 -6 -45 -7 20 -8 17 -4 -17 7 -54 -16 -205
-27 -177 -6 14 -8 15 -8 3 -1 -9 2 -19 6 -22 8 -9 54 33 48 44 -3 4 7 17 22
29 16 12 28 26 28 31 0 5 7 14 15 19 8 5 16 14 16 20 1 5 2 15 3 21 0 5 6 7
13 3 6 -4 8 -3 5 3 -4 6 0 13 8 17 9 3 12 12 8 22 -4 12 -3 15 5 10 8 -5 10
-1 5 10 -4 12 -3 15 5 10 8 -5 10 -1 5 10 -4 12 -3 15 5 10 8 -5 10 -1 5 10
-4 12 -3 15 5 10 8 -5 10 -1 5 10 -4 12 -3 15 5 10 8 -5 10 -1 5 10 -4 11 -3
15 4 11 7 -5 9 1 5 15 -3 14 -1 19 6 14 8 -5 10 -1 5 10 -4 11 -3 15 4 11 7
-5 9 1 5 15 -3 13 -1 19 5 15 7 -5 9 1 5 15 -3 13 -1 19 5 15 6 -4 8 4 6 21
-4 21 -2 24 6 12 8 -11 10 -7 5 20 -4 26 -3 31 5 20 8 -11 9 -5 6 25 -4 30 -3
35 4 20 7 -15 9 -6 5 30 -3 36 -2 45 5 30 7 -14 8 -6 4 30 -3 28 -7 51 -8 53
-1 1 -5 -25 -9 -59z"/>
<path d="M22167 7642 c-57 -57 -97 -106 -97 -117 0 -17 -2 -17 -10 -5 -7 11
-8 5 -4 -20 4 -27 3 -31 -5 -20 -8 11 -10 7 -5 -20 4 -26 3 -31 -5 -20 -8 11
-9 5 -6 -25 4 -31 3 -36 -5 -20 -7 15 -8 11 -4 -20 4 -30 3 -36 -5 -25 -8 11
-9 5 -5 -25 4 -30 3 -36 -5 -25 -8 11 -9 5 -6 -25 4 -28 3 -34 -3 -20 -7 15
-9 6 -8 -30 1 -27 -2 -70 -6 -95 -8 -53 9 22 58 250 l35 165 90 90 90 90 -6
-80 c-21 -274 -61 -563 -83 -601 -9 -16 -95 -82 -159 -123 -29 -19 -50 -39
-46 -45 4 -7 1 -7 -7 1 -10 9 -9 29 5 101 13 66 15 94 7 108 -9 15 -10 11 -6
-21 3 -32 2 -36 -6 -20 -8 16 -9 14 -4 -12 7 -41 -5 -110 -17 -91 -5 7 -6 -4
-3 -27 5 -32 3 -37 -6 -25 -10 13 -11 12 -6 -3 3 -10 6 -23 6 -28 0 -5 5 -9
11 -9 6 0 8 7 5 16 -5 14 -4 15 9 4 12 -10 16 -9 21 4 3 9 11 13 17 9 6 -3 7
-1 3 5 -4 7 -2 12 3 12 21 0 26 3 39 22 7 10 18 16 23 13 5 -4 9 -1 9 5 0 6 4
9 9 5 6 -3 15 4 21 15 6 11 15 18 19 15 5 -2 16 7 26 21 9 14 19 23 22 20 14
-14 32 17 27 47 -4 24 -3 28 5 17 8 -11 9 -5 6 25 -4 31 -3 35 4 20 8 -15 9
-9 5 25 -3 33 -2 40 5 25 7 -14 8 -6 5 30 -4 34 -3 46 4 36 7 -9 9 2 6 35 -3
35 -2 43 5 29 6 -14 8 1 5 45 -2 47 -1 57 5 35 6 -20 8 -3 5 55 -2 53 0 70 4
45 4 -24 7 20 7 108 1 81 0 147 0 147 0 0 -44 -44 -98 -98z"/>
<path d="M11275 7310 c-5 -8 -4 -15 2 -17 7 -3 7 -19 2 -46 -10 -53 -10 -68 1
-42 5 11 9 32 9 48 1 15 3 27 6 27 2 0 53 -35 112 -78 l107 -78 27 -132 c14
-73 23 -132 19 -132 -10 0 -202 143 -217 161 -6 8 -20 55 -31 104 -11 50 -21
80 -21 68 -1 -12 -4 -30 -7 -40 -5 -15 -4 -16 6 -3 9 12 11 7 6 -25 -4 -30 -3
-36 5 -25 8 11 9 6 5 -20 -4 -26 -3 -31 4 -20 9 12 10 10 8 -10 -3 -25 36 -78
53 -73 5 2 13 -6 19 -17 6 -11 15 -18 20 -15 5 3 14 -4 20 -15 6 -11 15 -18
21 -15 5 4 12 -1 15 -9 3 -9 10 -14 15 -11 4 3 13 -4 19 -15 6 -11 15 -18 19
-15 5 3 12 -2 15 -11 3 -8 10 -13 15 -10 5 4 11 0 14 -6 6 -19 14 -7 21 32 5
28 4 31 -4 15 -8 -15 -9 -10 -6 25 4 34 3 40 -5 25 -7 -15 -8 -11 -4 20 3 30
2 36 -6 25 -8 -11 -9 -5 -5 25 3 24 2 35 -3 26 -6 -9 -11 4 -16 40 -8 60 -21
92 -35 84 -5 -3 -14 4 -20 15 -6 11 -15 18 -19 15 -5 -3 -12 2 -15 11 -3 8
-10 12 -16 9 -6 -3 -13 1 -16 9 -3 9 -10 14 -15 11 -4 -3 -13 4 -19 15 -6 11
-15 18 -20 15 -5 -3 -14 4 -20 15 -6 11 -15 19 -20 17 -5 -1 -15 7 -23 17 -11
15 -16 16 -22 6z"/>
<path d="M21595 6983 c-20 -49 -60 -157 -88 -240 -29 -84 -55 -153 -60 -153
-4 0 -37 -18 -73 -40 -36 -22 -68 -40 -70 -40 -10 0 -209 -131 -294 -194 -111
-81 -280 -247 -369 -361 -56 -71 -73 -85 -154 -129 -188 -99 -304 -183 -452
-327 -67 -65 -91 -81 -150 -102 -184 -66 -373 -166 -519 -276 -53 -40 -93 -62
-120 -67 l-41 -7 29 -8 c19 -5 35 -4 43 3 7 6 13 7 13 2 0 -5 5 -1 11 9 6 9
14 15 19 12 5 -3 17 6 26 20 9 14 19 23 22 20 3 -3 12 4 19 15 8 11 18 18 23
15 4 -3 11 2 14 11 3 8 10 13 15 10 5 -3 12 1 15 10 3 8 10 13 15 10 5 -3 12
1 15 10 3 8 10 12 16 9 5 -3 10 -1 10 5 0 6 5 8 10 5 6 -3 13 1 16 9 3 9 10
13 15 10 5 -3 9 0 9 6 0 6 5 8 12 4 7 -4 8 -3 4 4 -6 11 6 16 27 13 4 0 7 4 7
10 0 5 5 7 10 4 6 -3 10 -1 10 5 0 6 5 8 10 5 6 -3 10 -1 10 5 0 6 5 8 10 5 6
-3 10 -1 10 5 0 6 5 8 10 5 6 -3 10 -1 10 5 0 6 5 8 10 5 6 -3 10 -1 10 5 0 7
7 9 16 6 10 -4 13 -2 8 6 -5 8 -2 9 10 5 11 -5 15 -3 10 5 -5 8 -2 9 9 5 10
-4 17 -2 17 4 0 6 7 8 16 5 10 -4 13 -2 8 6 -5 8 -2 9 9 5 9 -3 19 -2 22 4 4
5 11 6 17 3 7 -5 8 -2 3 6 -6 10 -3 12 13 8 14 -4 20 -2 16 4 -4 6 2 8 16 3
16 -5 20 -4 15 5 -5 9 -2 10 14 5 13 -4 21 -2 21 5 0 6 4 9 9 6 5 -3 14 1 21
9 7 8 9 15 4 15 -4 0 9 18 31 40 21 21 42 37 46 34 4 -2 24 16 44 41 21 25 41
42 46 40 4 -3 16 6 25 20 9 13 20 22 25 20 4 -3 13 4 19 15 6 11 15 18 20 15
5 -3 14 4 20 15 6 11 15 18 19 15 5 -3 12 2 15 11 3 8 10 13 15 10 5 -3 12 1
15 10 3 8 10 12 16 9 5 -3 10 -1 10 5 0 6 5 8 10 5 6 -3 13 1 16 9 3 9 10 13
15 10 5 -3 9 0 9 6 0 6 4 9 9 6 5 -3 12 1 15 10 3 8 10 12 16 9 5 -3 10 -1 10
5 0 6 5 8 10 5 6 -3 10 -1 10 5 0 6 5 8 10 5 6 -3 10 -1 10 5 0 6 5 8 10 5 6
-3 10 -1 10 5 0 6 5 8 10 5 6 -3 10 -1 10 5 0 6 5 8 12 4 7 -5 8 -3 3 6 -6 10
-4 12 8 7 10 -3 17 -2 17 3 0 6 5 9 12 7 7 -1 12 4 13 11 0 7 7 17 15 22 8 5
15 13 15 17 1 14 20 42 30 42 6 1 10 5 10 10 0 5 12 19 27 31 15 11 27 24 26
28 -3 9 195 206 204 204 4 -1 16 12 28 28 12 17 26 27 32 24 6 -4 8 -2 5 3 -6
10 19 28 35 25 4 -1 12 7 18 18 6 11 15 18 19 15 5 -3 12 2 15 11 3 8 10 13
15 10 5 -3 12 1 15 10 3 8 10 13 15 10 5 -3 12 1 15 10 3 8 10 13 15 10 5 -3
12 1 15 10 3 8 10 12 16 9 5 -3 10 -1 10 5 0 6 5 8 10 5 6 -3 13 1 16 9 3 9
10 14 14 11 4 -3 11 2 14 11 3 8 10 12 16 9 5 -3 10 -1 10 5 0 6 4 9 9 6 5 -3
12 1 15 10 3 8 10 12 16 9 5 -3 10 -1 10 5 0 6 4 9 9 6 5 -3 12 1 15 10 3 8
10 12 16 9 5 -3 10 -1 10 5 0 6 5 8 10 5 6 -3 10 -1 10 5 0 6 5 8 10 5 6 -3
10 -1 10 5 0 6 5 8 12 4 7 -4 8 -3 4 4 -6 11 6 16 27 13 4 0 7 4 7 10 0 5 4 8
9 5 5 -4 7 4 3 16 -3 13 -1 19 5 15 7 -5 9 1 6 15 -4 19 -3 20 6 8 9 -12 10
-9 5 14 -5 19 -3 27 4 22 6 -4 8 2 4 16 -3 13 -1 19 5 15 7 -5 9 1 5 15 -3 13
-1 19 5 15 7 -5 9 1 6 15 -4 19 -3 20 6 8 9 -12 10 -9 5 14 -5 19 -3 27 4 22
6 -4 8 2 4 16 -3 14 -1 19 6 14 8 -5 10 -1 5 10 -4 11 -3 15 4 11 7 -5 9 1 5
15 -3 13 -1 19 5 15 7 -5 9 1 5 15 -3 14 -1 19 6 14 8 -5 10 -1 5 10 -4 11 -3
15 4 11 7 -5 9 1 5 15 -3 14 -1 19 6 14 8 -5 10 -1 5 10 -4 11 -3 15 4 11 7
-5 9 1 5 15 -3 14 -1 19 6 14 8 -5 10 -1 5 10 -3 10 -2 15 3 12 5 -4 10 5 10
18 1 13 1 24 -1 24 -2 0 -19 -39 -40 -87z"/>
<path d="M11625 7033 c-9 -24 -4 -39 6 -18 7 15 8 8 5 -25 -4 -34 -3 -40 5
-25 7 15 8 9 5 -24 -3 -32 -2 -41 6 -30 7 10 8 4 4 -21 -5 -27 -3 -31 5 -20 8
11 9 4 5 -30 -4 -33 -3 -40 5 -25 7 15 8 11 4 -20 -3 -28 -2 -35 5 -25 8 13
10 12 10 -3 0 -10 5 -15 10 -12 6 3 13 -1 16 -9 3 -9 10 -13 15 -10 5 3 9 0 9
-6 0 -6 5 -8 10 -5 6 3 10 1 10 -5 0 -6 5 -8 10 -5 6 3 13 -1 16 -9 3 -9 10
-13 15 -10 5 3 9 0 9 -6 0 -6 5 -8 10 -5 6 3 10 1 10 -5 0 -6 5 -8 10 -5 6 3
10 1 10 -4 0 -6 3 -10 8 -10 20 3 32 -2 26 -13 -4 -7 -3 -8 4 -4 7 4 12 2 12
-4 0 -6 5 -8 10 -5 6 3 10 1 10 -5 0 -6 5 -8 10 -5 6 3 10 1 10 -5 0 -6 5 -8
10 -5 6 3 10 1 10 -5 0 -6 4 -9 10 -5 5 3 18 -3 29 -14 11 -11 22 -17 25 -13
3 3 6 0 6 -7 0 -7 5 -9 10 -6 6 3 10 1 10 -5 0 -6 5 -8 10 -5 6 3 10 1 10 -4
0 -6 3 -10 8 -10 20 3 32 -2 26 -13 -4 -7 -3 -8 4 -4 7 4 12 2 12 -4 0 -6 5
-8 10 -5 6 3 10 1 10 -5 0 -6 5 -8 10 -5 6 3 10 1 10 -5 0 -6 5 -8 10 -5 6 3
13 -1 16 -9 3 -9 10 -13 15 -10 5 3 9 0 9 -7 0 -7 3 -9 7 -6 3 4 11 -1 18 -10
9 -13 14 -13 20 -3 5 9 4 11 -3 6 -11 -7 -17 6 -13 27 1 5 -3 6 -9 2 -9 -6
-14 8 -11 28 1 5 -3 6 -8 3 -9 -6 -26 22 -22 37 1 5 -3 6 -9 2 -5 -3 -11 -1
-11 4 -1 6 -2 16 -3 21 0 6 -5 10 -9 9 -11 -1 -37 34 -31 42 2 3 -15 21 -36
38 -22 18 -38 36 -36 40 6 10 -48 63 -56 56 -3 -4 -23 14 -44 39 -20 25 -41
43 -45 40 -4 -2 -18 9 -30 25 -12 17 -26 28 -30 25 -5 -2 -16 7 -25 21 -9 13
-20 22 -25 20 -4 -3 -13 4 -19 15 -6 11 -15 18 -20 15 -5 -3 -14 4 -20 15 -6
11 -15 18 -20 15 -5 -3 -14 4 -20 15 -6 11 -15 18 -21 15 -5 -4 -12 0 -15 8
-6 18 -32 18 -39 0z m84 -48 c24 -19 48 -32 54 -28 6 3 7 1 3 -5 -8 -13 28
-35 39 -24 5 4 5 2 1 -5 -7 -12 31 -40 47 -35 5 1 6 -2 3 -7 -6 -9 54 -59 64
-53 3 1 5 -2 5 -6 0 -11 71 -73 77 -67 2 3 15 -6 28 -20 13 -14 20 -25 16 -25
-4 0 5 -15 20 -32 15 -18 32 -33 38 -33 6 0 11 -4 11 -10 1 -21 27 -55 37 -49
6 4 8 3 5 -3 -4 -5 8 -30 26 -54 l32 -43 -60 33 c-33 19 -64 37 -70 41 -5 4
-59 33 -118 65 -60 31 -145 78 -190 104 l-80 46 -18 80 c-26 122 -32 165 -22
165 4 0 28 -16 52 -35z"/>
<path d="M11359 6891 c8 -5 10 -14 6 -21 -6 -9 -4 -11 5 -5 10 6 12 4 7 -9 -5
-11 -3 -15 5 -10 8 5 9 2 5 -10 -5 -11 -3 -15 5 -10 7 5 9 0 6 -14 -4 -14 -2
-20 5 -15 7 4 8 0 4 -11 -5 -11 -3 -15 5 -10 8 5 9 2 5 -10 -4 -10 -1 -19 8
-22 8 -4 12 -11 8 -17 -4 -6 -1 -7 7 -2 10 6 12 4 7 -9 -4 -10 -3 -15 3 -11 9
6 14 -8 11 -28 -1 -5 3 -6 9 -2 5 3 11 1 11 -4 1 -6 2 -17 3 -23 1 -7 7 -12
14 -10 11 2 16 -10 13 -30 0 -3 16 -18 35 -33 19 -15 33 -30 30 -33 -8 -8 25
-43 35 -37 4 3 21 -11 37 -31 l29 -35 5 25 c3 16 1 23 -5 19 -6 -4 -8 2 -5 15
4 14 2 20 -4 16 -7 -5 -9 3 -4 22 5 21 4 25 -4 14 -8 -13 -10 -12 -10 4 0 11
-3 17 -6 13 -4 -3 -1 -20 5 -38 6 -18 9 -35 6 -37 -8 -9 -71 56 -130 133 -52
67 -130 203 -122 212 2 2 47 -25 100 -59 l95 -63 18 -70 c13 -53 19 -65 25
-50 11 29 10 42 -2 25 -8 -11 -9 -6 -5 20 5 27 3 31 -5 20 -8 -11 -9 -7 -5 20
5 27 3 31 -5 20 -9 -12 -10 -11 -6 8 3 12 1 19 -4 16 -5 -3 -12 2 -15 10 -3 9
-10 14 -14 11 -4 -3 -11 2 -14 11 -3 8 -10 12 -16 9 -5 -3 -10 -1 -10 5 0 6
-5 8 -10 5 -6 -3 -13 1 -16 9 -3 9 -10 13 -15 10 -5 -3 -12 2 -15 10 -3 9 -10
14 -15 11 -4 -3 -13 4 -19 15 -6 11 -15 18 -19 15 -5 -3 -12 2 -15 11 -3 8
-10 13 -15 9 -6 -3 -15 4 -21 15 -6 11 -16 20 -23 20 -8 0 -8 -3 2 -9z"/>
<path d="M11747 6643 c-4 -7 -4 -14 0 -16 12 -7 91 -50 163 -89 148 -80 189
-103 280 -157 52 -31 103 -59 112 -63 18 -7 133 -226 124 -235 -9 -9 -346 135
-461 197 -157 85 -143 68 -198 235 -18 54 -25 64 -29 47 -4 -14 -2 -20 5 -15
6 4 8 -2 5 -15 -4 -14 -2 -20 4 -16 7 5 9 -3 4 -22 -5 -23 -4 -26 5 -14 9 12
10 11 6 -8 -3 -14 -1 -20 6 -15 6 4 8 -2 5 -15 -4 -14 -2 -20 5 -15 6 4 8 -2
5 -15 -4 -14 -2 -20 5 -15 7 4 8 0 4 -11 -4 -10 -3 -15 3 -11 6 3 10 -3 10
-15 0 -12 5 -18 10 -15 6 3 13 -1 16 -9 3 -9 10 -13 15 -10 5 3 9 0 9 -6 0 -6
5 -8 10 -5 6 3 13 -1 16 -9 3 -9 10 -13 15 -10 5 3 9 0 9 -6 0 -6 5 -8 10 -5
6 3 10 1 10 -5 0 -6 5 -8 10 -5 6 3 10 1 10 -4 0 -6 3 -10 8 -9 12 4 92 -35
92 -45 0 -4 5 -5 10 -2 6 3 10 2 10 -4 0 -6 7 -7 17 -4 12 5 14 3 8 -7 -5 -9
-4 -11 3 -6 7 4 12 2 12 -4 0 -6 5 -8 10 -5 6 3 10 2 10 -3 0 -6 6 -10 13 -9
32 1 48 -4 42 -13 -4 -6 1 -7 11 -3 12 4 15 3 10 -5 -5 -8 -1 -10 10 -5 13 5
15 3 9 -7 -6 -10 -4 -12 8 -7 10 3 17 2 17 -3 0 -5 7 -6 17 -3 11 4 14 3 9 -5
-5 -8 -2 -10 8 -6 9 3 16 1 16 -6 0 -6 5 -8 10 -5 6 3 10 2 10 -4 0 -6 7 -8
15 -5 8 4 15 1 15 -5 0 -6 7 -8 17 -4 11 4 14 3 9 -5 -5 -8 -2 -10 8 -6 9 3
16 1 16 -6 0 -6 5 -8 10 -5 6 3 10 1 10 -5 0 -7 6 -10 14 -7 8 3 16 1 19 -6 2
-6 6 -3 10 7 5 11 3 15 -5 10 -8 -5 -9 -2 -5 10 5 11 3 15 -5 10 -8 -5 -9 -2
-5 10 5 11 3 15 -5 10 -8 -5 -9 -2 -5 10 5 11 3 15 -5 10 -8 -5 -9 -2 -5 10 5
11 3 15 -5 10 -8 -5 -9 -2 -5 10 5 11 3 15 -5 10 -8 -5 -9 -2 -5 10 5 11 3 15
-5 10 -8 -5 -9 -2 -5 10 5 11 3 15 -5 10 -8 -5 -9 -2 -5 10 5 11 3 15 -5 10
-8 -5 -9 -2 -5 10 5 11 3 15 -5 10 -8 -5 -9 -2 -5 10 5 11 3 15 -5 10 -8 -5
-9 -2 -5 10 4 10 3 15 -3 11 -9 -6 -14 8 -11 28 1 5 -3 6 -8 3 -5 -4 -14 2
-20 11 -5 10 -12 17 -15 16 -15 -7 -26 -2 -20 9 4 7 3 8 -4 4 -7 -4 -12 -2
-12 4 0 6 -5 8 -10 5 -6 -3 -13 1 -16 9 -3 9 -10 13 -15 10 -5 -3 -9 0 -9 6 0
6 -4 9 -9 6 -5 -3 -12 1 -15 10 -3 8 -10 12 -16 9 -5 -3 -10 -1 -10 5 0 6 -4
8 -10 5 -5 -3 -10 -1 -10 5 0 6 -4 8 -10 5 -5 -3 -10 -1 -10 5 0 6 -4 9 -10 5
-5 -3 -18 3 -29 14 -11 11 -22 17 -25 14 -3 -4 -6 -1 -6 6 0 7 -4 9 -10 6 -5
-3 -10 -1 -10 5 0 6 -4 8 -10 5 -5 -3 -10 -1 -10 4 0 6 -3 10 -7 10 -21 -3
-33 2 -27 13 4 7 3 8 -4 4 -7 -4 -12 -2 -12 4 0 6 -4 8 -10 5 -5 -3 -10 -1
-10 5 0 6 -4 8 -10 5 -5 -3 -10 -1 -10 5 0 6 -4 8 -10 5 -5 -3 -10 -1 -10 5 0
6 -5 8 -10 5 -6 -3 -13 1 -16 9 -3 9 -10 13 -15 10 -5 -3 -9 0 -9 6 0 6 -4 8
-10 5 -5 -3 -10 -1 -10 5 0 6 -4 8 -10 5 -5 -3 -10 -1 -10 4 0 6 -3 10 -7 10
-21 -3 -33 2 -27 13 4 6 3 8 -4 4 -5 -3 -12 -1 -14 6 -3 9 -6 9 -11 1z"/>
<path d="M12304 6498 c-4 -7 -3 -8 4 -4 11 7 17 -6 13 -27 -1 -5 4 -5 10 -1 9
5 10 2 6 -10 -4 -10 -3 -15 3 -11 9 6 14 -8 11 -28 -1 -5 4 -5 10 -1 9 5 10 2
6 -10 -4 -10 -3 -15 3 -11 6 3 11 1 11 -4 1 -6 2 -17 3 -23 1 -7 7 -12 14 -10
7 1 15 -5 18 -13 3 -8 10 -12 15 -9 5 3 12 -2 15 -10 3 -9 10 -14 15 -11 4 3
13 -4 19 -15 6 -11 15 -18 19 -15 5 3 12 -2 15 -11 3 -8 10 -13 15 -9 6 3 18
-6 27 -20 9 -13 20 -22 25 -20 4 3 16 -6 25 -20 9 -13 19 -23 23 -20 10 5 153
-139 146 -147 -4 -3 8 -16 25 -28 16 -12 28 -25 25 -30 -6 -10 20 -32 28 -23
4 3 8 1 8 -5 1 -7 2 -17 3 -23 0 -6 9 -17 19 -24 10 -7 18 -17 18 -22 1 -12
36 -43 43 -36 3 4 6 1 6 -6 0 -7 5 -9 10 -6 6 3 10 1 10 -5 0 -6 5 -8 10 -5 6
3 10 1 10 -5 0 -6 5 -8 10 -5 6 3 10 1 10 -5 0 -6 5 -8 10 -5 6 3 10 1 10 -5
0 -6 5 -8 10 -5 6 3 10 1 10 -5 0 -6 5 -8 10 -5 6 3 10 1 10 -4 0 -6 3 -10 8
-10 20 3 32 -2 26 -13 -4 -7 -3 -8 4 -4 7 4 12 2 12 -3 0 -6 3 -10 8 -10 20 3
32 -2 26 -13 -4 -7 -3 -8 4 -4 7 4 12 2 12 -4 0 -6 5 -8 10 -5 6 3 13 -1 16
-9 3 -9 10 -14 15 -11 4 3 13 -4 19 -15 6 -11 15 -18 21 -15 5 4 12 -1 15 -9
3 -9 10 -14 15 -11 4 3 16 -6 25 -20 9 -13 20 -23 24 -20 4 2 26 -18 49 -45
24 -28 46 -48 50 -46 8 5 110 -93 111 -106 0 -5 3 -8 8 -9 4 0 14 -7 23 -15
10 -9 24 -12 34 -8 13 5 16 4 11 -4 -9 -14 3 -15 23 -3 11 7 3 12 -30 21 -35
10 -65 33 -149 114 -153 148 -275 237 -444 322 -69 34 -86 49 -151 129 -124
153 -338 349 -441 403 -12 6 -40 43 -63 82 -23 38 -44 70 -46 70 -2 0 -7 -5
-11 -12z"/>
<path d="M21410 6469 c0 -5 -4 -7 -10 -4 -5 3 -10 1 -10 -5 0 -6 -5 -8 -12 -4
-7 4 -8 3 -4 -4 6 -11 -6 -16 -26 -13 -5 0 -8 -4 -8 -10 0 -5 -4 -8 -9 -5 -5
3 -12 -1 -15 -10 -3 -8 -10 -12 -16 -9 -5 3 -10 1 -10 -5 0 -6 -4 -9 -9 -6 -5
3 -12 -1 -15 -10 -3 -8 -10 -12 -16 -9 -5 3 -10 1 -10 -5 0 -6 -5 -8 -10 -5
-6 3 -13 -1 -16 -9 -3 -9 -10 -14 -14 -11 -4 3 -11 -2 -14 -11 -3 -8 -11 -12
-17 -8 -8 4 -9 3 -5 -4 6 -11 -5 -16 -26 -13 -4 0 -12 -8 -18 -19 -6 -11 -15
-18 -19 -15 -5 3 -12 -2 -15 -11 -3 -8 -10 -13 -15 -9 -6 3 -15 -4 -21 -15 -6
-11 -15 -18 -19 -15 -5 2 -16 -6 -25 -20 -9 -14 -20 -24 -24 -22 -5 1 -23 -15
-41 -35 -18 -21 -36 -36 -40 -33 -4 2 -25 -14 -46 -35 -22 -22 -35 -40 -30
-40 5 0 -4 -13 -19 -29 -18 -19 -25 -34 -20 -43 6 -10 4 -10 -9 1 -9 7 -18 11
-18 7 -1 -3 -2 -9 -3 -13 -1 -5 -5 -14 -10 -21 -4 -7 -5 -16 -2 -19 3 -4 6 -1
6 6 0 8 7 11 15 7 8 -3 15 -1 15 5 0 6 5 7 10 4 6 -3 10 -2 10 4 0 6 7 7 17 4
12 -5 14 -3 8 7 -6 10 -4 12 9 7 11 -4 15 -3 10 4 -4 8 1 9 16 4 17 -5 21 -4
15 6 -6 9 -3 11 9 6 11 -4 15 -3 10 4 -4 8 1 9 16 4 17 -5 21 -4 15 6 -6 9 -3
11 9 6 11 -5 15 -3 10 5 -5 7 0 9 14 6 12 -4 22 -2 22 3 0 4 8 6 18 3 16 -5
16 -5 0 5 -13 9 -37 3 -108 -25 -50 -20 -94 -34 -97 -30 -9 8 112 131 197 200
68 56 255 186 267 186 3 0 14 6 22 13 9 8 43 29 75 47 46 26 58 30 53 16 -4
-10 -9 -28 -11 -39 -2 -12 -1 -16 1 -8 4 12 6 12 14 0 7 -9 8 -4 3 16 -4 23
-3 27 5 15 9 -12 10 -9 5 14 -5 20 -4 27 4 22 8 -5 10 -2 6 8 -7 18 -24 22
-24 5z"/>
<path d="M11877 6216 c-5 -11 -3 -15 5 -10 8 5 9 2 5 -10 -4 -10 -3 -15 3 -11
9 6 14 -8 11 -28 -1 -5 3 -6 9 -2 9 6 14 -8 11 -28 -1 -5 3 -6 9 -2 9 6 14 -8
11 -28 -1 -5 3 -6 9 -2 5 3 11 1 11 -4 1 -6 2 -15 3 -21 0 -5 5 -10 10 -9 9 1
27 -24 27 -38 0 -13 102 -112 110 -107 5 2 16 -7 25 -21 9 -13 20 -22 25 -20
4 3 13 -4 19 -15 6 -11 15 -18 20 -15 5 3 13 -3 19 -12 5 -10 12 -17 15 -15
15 6 26 1 20 -10 -4 -6 -3 -8 3 -5 6 4 14 0 17 -9 3 -8 10 -12 16 -9 5 3 10 1
10 -5 0 -6 5 -8 10 -5 6 3 10 1 10 -5 0 -6 5 -8 10 -5 6 3 10 1 10 -5 0 -6 5
-8 10 -5 6 3 10 1 10 -5 0 -6 5 -8 10 -5 6 3 10 1 10 -5 0 -6 5 -8 10 -5 6 3
10 2 10 -4 0 -6 7 -7 17 -4 12 5 14 3 8 -7 -5 -9 -4 -11 3 -6 7 4 12 3 12 -3
0 -6 7 -7 17 -4 11 5 14 3 8 -6 -6 -10 -2 -11 15 -6 17 5 21 4 15 -5 -5 -9 -4
-11 3 -6 7 4 12 2 12 -4 0 -7 8 -9 21 -5 14 5 19 4 15 -4 -5 -7 -1 -8 10 -4
12 5 15 3 9 -6 -6 -10 -2 -11 15 -6 15 5 20 4 16 -4 -9 -14 0 -14 25 -1 18 10
29 -3 12 -13 -5 -2 -3 -2 4 -1 6 2 13 -2 16 -9 2 -6 6 -3 10 7 5 11 3 15 -5
10 -8 -5 -9 -2 -5 10 5 11 3 15 -5 10 -8 -5 -9 -2 -5 10 5 11 3 15 -5 10 -8
-5 -9 -2 -5 10 5 11 3 15 -5 10 -8 -5 -9 -2 -5 10 5 11 3 15 -5 10 -8 -5 -9
-2 -5 10 5 11 3 15 -5 10 -8 -5 -9 -2 -5 10 5 11 3 15 -5 10 -8 -5 -9 -2 -5
10 5 11 3 15 -5 10 -8 -5 -9 -2 -5 10 4 10 3 15 -3 11 -9 -6 -14 10 -13 42 1
7 -4 10 -10 6 -6 -4 -8 0 -4 11 5 11 3 15 -5 10 -8 -5 -9 -2 -5 10 5 11 3 15
-5 10 -8 -5 -9 -2 -5 10 5 11 3 15 -5 10 -7 -5 -9 -2 -6 7 3 8 -1 20 -8 27 -8
7 -14 9 -14 5 0 -4 -5 -2 -11 4 -6 6 -18 9 -27 6 -10 -4 -13 -2 -8 5 5 8 2 10
-8 6 -9 -3 -16 -1 -16 5 0 6 -7 8 -17 4 -11 -4 -14 -3 -9 5 5 8 1 10 -11 5
-14 -5 -10 -10 22 -25 22 -9 44 -16 50 -14 5 1 17 -5 26 -13 18 -17 142 -271
135 -278 -2 -2 -23 3 -47 11 -23 8 -46 13 -51 10 -4 -3 -8 -1 -8 5 0 5 -10 13
-22 17 -41 12 -201 95 -269 139 -37 24 -101 76 -142 115 -81 76 -182 213 -180
242 1 10 -2 16 -7 13 -4 -3 -10 0 -12 7 -3 7 -7 5 -11 -6z"/>
<path d="M12477 6206 c-5 -11 -3 -15 5 -10 8 5 9 2 5 -10 -5 -11 -3 -15 5 -10
8 5 9 2 5 -10 -5 -11 -3 -15 5 -10 8 5 9 1 4 -12 -4 -10 -4 -15 0 -11 10 9 46
-72 37 -86 -4 -6 -1 -7 7 -2 10 6 12 4 7 -9 -5 -11 -3 -15 5 -10 8 5 9 2 5
-10 -4 -10 -3 -15 3 -11 6 3 10 2 10 -4 0 -6 7 -7 17 -4 11 4 14 3 9 -5 -5 -8
-2 -10 8 -6 9 3 16 1 16 -5 0 -6 7 -8 17 -4 10 4 14 2 10 -4 -5 -7 1 -9 15 -5
14 3 19 1 14 -6 -5 -8 -1 -10 10 -5 12 4 15 3 10 -5 -5 -8 -2 -10 8 -6 9 3 16
1 16 -6 0 -6 5 -8 10 -5 6 3 10 2 10 -2 0 -5 9 -9 20 -9 18 0 17 3 -8 22 -15
12 -27 26 -27 31 0 12 -148 158 -157 156 -4 -2 -17 10 -28 25 -12 15 -26 27
-30 27 -5 0 -15 9 -23 19 -13 17 -14 17 -20 2z"/>
<path d="M21667 6144 c-3 -3 -3 -13 0 -22 4 -10 2 -13 -6 -8 -6 4 -11 4 -10
-1 3 -20 -2 -34 -11 -28 -6 4 -10 3 -9 -2 3 -20 -2 -33 -13 -30 -7 1 -12 -2
-13 -8 -1 -15 -21 -47 -28 -46 -4 1 -7 -2 -7 -6 -1 -14 -113 -122 -121 -117
-5 2 -16 -7 -25 -21 -9 -13 -20 -22 -25 -20 -4 3 -13 -4 -19 -15 -6 -11 -15
-18 -19 -15 -5 3 -12 -2 -15 -11 -3 -8 -10 -13 -15 -10 -5 3 -12 -1 -15 -10
-3 -8 -10 -12 -16 -9 -5 3 -10 1 -10 -6 0 -7 -3 -9 -7 -6 -3 4 -12 -1 -20 -11
-10 -11 -12 -12 -8 -2 4 10 2 9 -8 -2 -8 -10 -17 -15 -20 -11 -4 3 -7 1 -7 -6
0 -7 -5 -9 -10 -6 -6 4 -10 3 -9 -2 3 -20 -2 -34 -11 -28 -6 4 -7 -1 -3 -11 4
-12 3 -15 -6 -10 -6 4 -11 4 -10 -1 3 -20 -2 -33 -13 -31 -7 2 -13 -3 -14 -9
-1 -7 -2 -17 -3 -23 0 -6 -6 -9 -13 -8 -7 2 -13 -3 -14 -9 -1 -7 -2 -17 -3
-23 0 -5 -5 -9 -10 -7 -5 1 -10 -2 -10 -8 -2 -15 -133 -145 -142 -140 -4 3
-14 -7 -23 -20 -9 -14 -21 -23 -25 -20 -5 3 -12 -2 -15 -11 -3 -8 -10 -12 -16
-9 -6 3 -13 -1 -16 -9 -3 -9 -10 -14 -14 -11 -4 3 -11 -2 -14 -11 -3 -8 -10
-12 -16 -9 -5 3 -10 1 -10 -6 0 -7 -3 -10 -6 -6 -3 3 -16 -3 -27 -14 -12 -11
-27 -17 -35 -14 -8 3 -10 0 -6 -7 5 -8 2 -9 -9 -5 -10 3 -17 2 -17 -4 0 -6 -4
-7 -10 -4 -5 3 -10 1 -10 -5 0 -6 -5 -8 -12 -4 -7 5 -8 3 -3 -6 6 -10 4 -12
-8 -7 -10 4 -17 2 -17 -4 0 -6 -7 -9 -15 -6 -8 4 -17 2 -20 -4 -4 -5 -11 -6
-17 -3 -7 5 -8 2 -3 -6 6 -9 2 -10 -15 -5 -16 5 -20 4 -15 -5 5 -9 1 -10 -15
-5 -17 5 -21 4 -15 -6 6 -9 2 -11 -15 -6 -17 4 -20 3 -12 -5 13 -13 85 6 106
27 6 7 16 10 23 8 16 -6 164 71 248 127 38 26 103 80 144 120 71 71 191 222
191 241 0 6 12 15 28 22 138 61 337 242 436 399 15 23 9 48 -7 32z"/>
<path d="M20470 5719 c0 -5 -5 -7 -12 -3 -7 4 -8 3 -4 -4 6 -11 -6 -16 -26
-13 -5 0 -8 -4 -8 -10 0 -5 -4 -8 -9 -5 -5 3 -12 -1 -15 -10 -3 -8 -10 -12
-16 -9 -5 3 -10 1 -10 -5 0 -6 -5 -8 -10 -5 -6 3 -13 -1 -16 -9 -3 -9 -10 -13
-15 -10 -5 3 -12 -2 -15 -10 -3 -9 -10 -14 -15 -11 -4 3 -13 -4 -19 -15 -6
-11 -15 -18 -19 -15 -5 2 -16 -7 -25 -20 -9 -14 -21 -23 -25 -21 -4 3 -23 -13
-40 -34 -18 -22 -36 -38 -40 -35 -5 2 -16 -4 -26 -15 -10 -12 -13 -20 -7 -20
7 0 12 4 12 9 0 5 10 7 22 3 15 -4 19 -2 13 7 -6 10 -2 11 16 6 21 -7 22 -6
10 9 -13 15 -12 16 13 6 35 -13 45 -13 26 1 -11 8 -6 9 20 5 27 -5 31 -3 20 5
-11 8 -7 9 18 5 23 -4 31 -2 26 6 -5 7 1 9 19 4 14 -3 29 -1 32 4 4 6 11 8 16
5 5 -3 6 2 2 11 -4 12 -3 15 6 10 6 -4 11 -4 10 1 -4 21 2 34 13 27 6 -4 8 -3
5 3 -4 6 0 13 8 17 9 3 12 12 8 22 -4 12 -3 15 6 10 6 -4 11 -4 10 1 -3 20 2
34 11 28 6 -4 10 -3 9 2 -3 20 2 34 11 28 6 -4 10 -3 9 2 -3 20 2 34 11 28 6
-3 7 1 4 9 -7 18 -14 21 -14 5z m-26 -41 c-4 -7 -16 -25 -26 -40 -11 -16 -16
-34 -12 -40 4 -7 4 -10 -1 -6 -5 5 -19 -8 -32 -27 -13 -19 -31 -35 -41 -35
-15 0 -15 -2 -2 -11 13 -9 12 -10 -3 -5 -16 5 -79 -5 -132 -21 -16 -5 -18 -3
-8 8 6 8 12 19 12 24 1 6 4 10 9 10 20 1 52 27 46 38 -4 7 -4 9 1 5 10 -9 47
10 40 21 -2 5 3 8 13 7 9 0 16 5 15 12 -2 6 0 11 5 11 20 -3 32 2 26 13 -4 7
-3 8 4 4 7 -4 29 5 49 19 43 28 47 30 37 13z"/>
<path d="M12642 5552 c-9 -6 -1 -12 25 -20 34 -11 45 -24 101 -120 165 -280
365 -479 585 -582 36 -18 71 -29 77 -25 5 3 10 2 10 -4 0 -5 22 -17 50 -26 37
-12 54 -14 67 -6 15 9 13 10 -11 5 -19 -5 -27 -3 -22 4 4 6 -2 8 -16 4 -13 -3
-19 -1 -15 5 5 7 -1 9 -15 5 -16 -4 -19 -2 -13 8 5 8 4 11 -3 6 -6 -3 -13 -2
-17 3 -3 6 -12 8 -20 4 -8 -3 -15 0 -15 6 0 6 -7 8 -17 4 -12 -5 -14 -3 -8 7
5 9 4 11 -3 6 -7 -4 -12 -3 -12 3 0 6 -7 7 -17 4 -12 -5 -14 -3 -8 7 5 9 4 11
-3 6 -7 -4 -12 -2 -12 4 0 6 -4 8 -10 5 -5 -3 -10 -1 -10 5 0 6 -4 8 -10 5 -5
-3 -10 -1 -10 5 0 6 -4 8 -10 5 -5 -3 -10 -1 -10 5 0 6 -5 8 -10 5 -6 -3 -13
1 -16 9 -3 9 -10 13 -15 10 -5 -3 -12 2 -15 10 -3 9 -10 14 -15 11 -4 -3 -13
4 -19 15 -6 11 -15 18 -20 15 -5 -3 -17 6 -26 20 -9 13 -19 23 -23 20 -4 -2
-34 23 -66 55 -33 33 -55 60 -51 60 5 0 1 9 -9 20 -10 11 -22 17 -26 14 -8 -5
-13 9 -10 28 0 4 -10 15 -24 24 -14 9 -22 21 -18 27 3 5 1 7 -4 4 -11 -7 -28
20 -24 36 1 5 -3 6 -9 2 -9 -6 -14 8 -11 28 1 5 -3 5 -9 2 -7 -4 -10 0 -8 11
2 11 -2 18 -9 17 -12 -3 -17 9 -14 30 0 4 -4 7 -10 7 -5 0 -7 5 -3 12 4 7 3 8
-4 4 -11 -7 -17 6 -13 27 1 5 -4 5 -10 1 -9 -5 -10 -2 -6 10 5 11 3 15 -5 10
-8 -5 -9 -2 -5 10 4 11 3 15 -4 11 -6 -4 -9 1 -7 11 2 12 -2 18 -11 16 -9 -2
-11 3 -7 13 4 11 2 14 -6 9 -8 -5 -9 -2 -5 10 4 9 3 15 -2 12 -5 -3 -12 1 -15
10 -4 10 -13 13 -27 9 -15 -5 -19 -4 -15 4 8 13 -3 14 -22 3z"/>
<path d="M13650 5359 c-12 -8 -10 -9 9 -4 16 5 21 4 17 -4 -5 -7 -1 -9 8 -5 9
3 16 1 16 -5 0 -6 7 -8 17 -4 11 5 14 3 8 -6 -6 -10 -2 -11 15 -6 15 5 20 4
16 -4 -5 -7 -1 -8 10 -4 13 5 15 3 9 -7 -6 -10 -4 -12 8 -7 10 3 17 2 17 -4 0
-6 5 -7 10 -4 6 3 10 2 10 -4 0 -6 7 -7 17 -4 12 5 14 3 8 -7 -5 -9 -4 -11 3
-6 7 4 12 2 12 -4 0 -6 5 -8 10 -5 6 3 10 1 10 -5 0 -6 5 -8 10 -5 6 3 10 1
10 -5 0 -6 5 -8 10 -5 6 3 10 1 10 -5 0 -6 5 -8 10 -5 6 3 10 1 10 -5 0 -6 4
-9 9 -6 5 3 12 -1 15 -10 3 -8 10 -12 16 -9 5 3 10 1 10 -5 0 -6 4 -9 9 -6 5
3 12 -1 15 -10 3 -8 10 -13 15 -10 5 3 12 -1 15 -10 3 -8 10 -13 15 -10 5 3
12 -1 15 -10 3 -8 10 -12 16 -9 6 3 13 -1 16 -9 3 -9 10 -14 15 -11 4 3 13 -4
19 -15 6 -11 15 -18 20 -15 5 3 14 -4 20 -15 6 -11 15 -18 20 -15 5 3 18 -8
30 -25 12 -17 25 -28 30 -25 5 3 18 -8 30 -25 12 -17 25 -28 30 -25 5 3 21
-10 35 -30 15 -19 31 -33 35 -30 5 3 30 -19 56 -50 26 -30 50 -53 52 -50 3 3
11 0 18 -6 8 -7 80 -11 196 -11 121 0 171 -3 148 -9 -28 -6 -25 -7 20 -4 30 3
73 6 95 6 99 4 -91 17 -264 18 l-183 1 -87 78 c-173 157 -314 268 -436 342
-71 44 -239 126 -285 140 -14 4 -32 11 -40 14 -8 3 -22 1 -30 -5z"/>
<path d="M13652 5282 c2 -8 7 -12 11 -10 7 3 42 -41 42 -54 0 -5 5 -9 10 -9
11 -2 40 -39 40 -51 0 -4 10 -15 23 -23 12 -9 20 -20 17 -25 -3 -4 2 -13 10
-20 8 -7 15 -9 15 -4 0 5 8 -3 17 -16 10 -14 16 -29 15 -35 -2 -5 0 -7 4 -3 7
8 39 -29 39 -44 0 -5 4 -8 9 -7 9 1 30 -29 31 -43 0 -5 4 -8 8 -7 11 1 36 -34
31 -42 -2 -4 16 -23 41 -44 25 -20 43 -40 40 -45 -11 -18 23 -23 185 -24 l167
-1 -30 37 c-16 21 -33 35 -38 33 -4 -3 -22 13 -40 35 -17 21 -35 37 -40 35 -4
-3 -20 10 -34 30 -15 19 -31 32 -36 30 -4 -3 -13 4 -19 15 -6 11 -15 18 -20
15 -5 -3 -14 4 -20 15 -6 11 -15 18 -20 15 -5 -3 -14 4 -20 15 -6 11 -15 18
-21 15 -5 -4 -12 1 -15 9 -3 9 -10 13 -15 10 -5 -3 -12 2 -15 10 -3 9 -10 13
-15 10 -5 -3 -12 2 -15 10 -3 9 -10 14 -14 11 -4 -3 -11 2 -14 11 -3 8 -10 12
-16 9 -5 -3 -10 -1 -10 5 0 6 -4 8 -10 5 -5 -3 -10 -1 -10 4 0 6 -3 10 -7 10
-21 -3 -33 2 -27 13 4 6 3 8 -3 5 -13 -8 -84 28 -75 38 4 5 -1 5 -10 2 -10 -4
-18 -2 -18 3 0 5 -7 6 -17 3 -12 -5 -14 -3 -8 7 5 9 4 11 -3 6 -7 -4 -12 -2
-12 4 0 7 -8 9 -21 5 -16 -6 -20 -4 -14 6 5 8 5 11 0 7 -4 -4 -14 -3 -22 3 -7
6 -13 8 -13 3 0 -5 -5 -2 -11 6 -7 10 -9 11 -7 2z m175 -94 c59 -29 114 -52
121 -51 7 1 11 -2 8 -5 -9 -8 106 -82 117 -75 6 3 7 1 4 -4 -7 -11 20 -28 36
-24 5 1 6 -3 2 -8 -7 -12 29 -33 40 -23 5 4 5 2 2 -4 -8 -14 16 -36 34 -32 8
2 13 -2 12 -9 -3 -15 52 -55 62 -45 5 4 5 2 2 -4 -7 -12 59 -69 78 -69 6 0 10
-6 10 -13 0 -7 7 -17 15 -22 10 -6 -37 -10 -137 -10 -154 0 -169 1 -166 10 1
3 -17 25 -39 50 -22 25 -34 36 -27 25 13 -18 13 -19 -3 -6 -10 7 -16 17 -13
21 7 11 -25 51 -36 44 -5 -3 -8 -2 -7 3 5 16 -23 54 -35 47 -7 -4 -9 -4 -5 1
9 9 -69 110 -84 110 -6 0 -12 8 -14 18 -3 24 -24 48 -35 41 -5 -3 -8 -2 -7 3
4 12 -33 64 -41 58 -4 -2 -8 2 -8 10 0 8 2 15 3 15 2 0 52 -23 111 -52z"/>
<path d="M20173 5097 c-8 -12 -9 -17 -12 -38 0 -5 -6 -7 -11 -4 -6 4 -10 3 -9
-2 3 -20 -2 -33 -13 -30 -7 1 -13 -4 -14 -10 -1 -7 -2 -18 -3 -24 0 -5 -6 -7
-11 -4 -6 4 -10 3 -9 -2 4 -14 -13 -43 -21 -38 -5 3 -12 0 -17 -7 -8 -13 -9
-18 -12 -39 0 -5 -5 -8 -10 -5 -5 3 -14 -1 -21 -9 -7 -8 -10 -15 -6 -15 8 0
-187 -194 -196 -195 -4 0 -15 -10 -23 -23 -9 -12 -20 -20 -25 -17 -4 3 -11 -2
-14 -11 -3 -8 -10 -12 -16 -9 -6 3 -13 -1 -16 -9 -3 -9 -11 -13 -17 -9 -6 3
-7 1 -3 -5 6 -11 -6 -16 -26 -13 -5 0 -8 -4 -8 -10 0 -5 -4 -8 -9 -5 -5 3 -12
-1 -15 -10 -4 -9 -13 -14 -22 -10 -10 4 -13 2 -8 -6 5 -8 2 -9 -10 -5 -11 5
-15 3 -10 -5 5 -8 2 -9 -10 -5 -11 5 -15 3 -10 -5 5 -8 2 -9 -10 -5 -11 5 -15
3 -10 -5 5 -8 2 -9 -9 -5 -10 4 -17 2 -17 -4 0 -6 -7 -9 -15 -6 -8 4 -17 2
-20 -4 -4 -5 -10 -7 -15 -4 -5 3 -11 1 -15 -5 -4 -6 -11 -7 -17 -4 -7 5 -8 2
-3 -6 6 -10 2 -11 -19 -6 -20 5 -26 4 -20 -5 5 -9 -1 -10 -22 -5 -25 5 -26 5
-10 -5 15 -9 31 -8 73 5 29 9 53 21 53 26 0 5 6 7 14 4 24 -9 207 93 297 165
102 82 205 192 306 326 84 111 88 115 122 115 31 0 25 5 -16 13 -20 4 -35 2
-40 -6z"/>
<path d="M19640 5032 c0 -6 -15 -9 -37 -7 -30 3 -34 2 -18 -6 15 -7 7 -8 -29
-4 -58 6 -57 -2 1 -13 l40 -7 -96 -115 c-52 -63 -152 -172 -221 -241 l-126
-126 -89 -5 c-50 -2 -124 -2 -165 1 l-75 6 27 21 c14 11 86 77 160 146 247
233 302 277 350 285 l43 7 -35 7 c-23 5 -37 3 -42 -4 -4 -7 -8 -8 -8 -2 0 5
-7 -1 -16 -13 -8 -12 -19 -20 -24 -17 -4 3 -20 -11 -35 -30 -14 -20 -30 -33
-34 -31 -4 3 -29 -19 -55 -50 -26 -30 -51 -52 -55 -50 -4 3 -40 -31 -80 -75
-40 -43 -76 -77 -81 -74 -4 3 -33 -24 -65 -60 -31 -36 -60 -63 -65 -60 -4 3
-13 -1 -18 -8 -9 -10 3 -12 56 -11 56 2 59 1 22 -4 -26 -4 20 -7 106 -7 103 1
157 5 166 13 8 6 17 9 20 7 3 -3 17 10 32 30 15 19 31 33 35 31 9 -6 134 118
126 126 -3 3 17 24 45 48 27 23 48 46 45 50 -3 5 8 18 25 30 16 12 29 24 27
28 -3 9 25 48 38 53 6 2 9 7 8 11 -2 4 11 16 27 28 16 12 29 24 28 28 -2 13
14 42 22 37 10 -6 35 23 26 32 -3 3 -6 1 -6 -5z"/>
<path d="M14199 4636 c41 -41 77 -74 81 -73 11 4 69 -51 62 -58 -4 -5 -1 -5 6
-1 7 4 14 1 17 -6 4 -10 44 -13 180 -12 96 0 178 4 182 9 5 4 3 5 -3 2 -7 -4
-42 27 -84 73 -40 44 -76 78 -80 75 -4 -3 -22 11 -39 30 l-30 35 -183 0 -182
0 73 -74z m131 54 c-203 -7 -197 -11 14 -10 l159 1 28 -27 c16 -15 29 -24 29
-19 0 5 13 -4 30 -20 16 -15 27 -32 25 -36 -3 -4 11 -21 31 -37 l37 -30 -48
-8 c-27 -4 -97 -4 -157 -1 -105 5 -109 6 -151 41 -24 20 -46 34 -49 31 -2 -3
-15 7 -29 23 l-24 27 28 -24 c45 -40 30 -18 -20 29 -26 25 -39 35 -29 23 29
-35 14 -27 -23 11 l-33 34 173 -1 174 -1 -165 -6z"/>
<path d="M20479 2953 c113 -3 136 -6 147 -21 7 -9 14 -13 14 -7 0 5 8 -2 17
-15 10 -14 17 -28 16 -31 -1 -4 7 -15 17 -24 11 -10 20 -14 20 -9 0 5 8 -3 17
-16 10 -14 17 -28 16 -31 -1 -4 7 -15 17 -24 11 -10 20 -15 20 -10 0 4 10 -5
23 -21 12 -16 21 -32 20 -35 -1 -4 4 -13 12 -19 8 -7 15 -9 15 -5 0 4 10 -5
23 -21 12 -16 22 -32 22 -36 0 -4 6 -13 13 -19 6 -7 12 -9 12 -4 0 5 8 -2 17
-15 10 -14 17 -28 16 -31 -1 -4 7 -15 17 -24 11 -10 20 -14 20 -9 0 5 8 -3 17
-16 10 -14 17 -28 16 -31 -1 -4 7 -15 17 -24 11 -10 20 -15 20 -11 0 4 12 -7
28 -25 15 -18 27 -38 27 -43 0 -6 5 -11 12 -11 13 0 55 -50 48 -57 -3 -3 4
-13 15 -23 20 -18 20 -18 18 271 l-3 289 -2 -278 c-2 -153 -7 -276 -11 -273
-4 2 -5 135 -2 296 5 289 3 309 -27 304 -7 -1 -32 -3 -55 -4 -42 -3 -42 -3 12
-9 l55 -6 2 -275 c3 -263 2 -274 -15 -253 -9 11 -134 154 -277 317 l-259 296
-141 -2 -140 -2 134 -3z"/>
<path d="M31069 2953 c124 -3 169 -13 156 -33 -2 -4 4 -15 15 -25 11 -10 20
-15 20 -11 0 4 12 -7 28 -25 15 -18 27 -38 27 -43 0 -6 5 -11 12 -11 13 0 55
-50 47 -58 -3 -3 11 -17 30 -32 20 -15 34 -31 31 -35 -3 -5 13 -23 35 -41 21
-17 37 -35 35 -39 -3 -5 17 -27 45 -50 28 -23 48 -45 45 -50 -3 -4 2 -13 10
-20 8 -7 15 -9 15 -5 0 4 10 -5 23 -21 12 -16 21 -32 20 -35 -1 -4 4 -13 12
-19 8 -7 15 -9 15 -4 0 5 8 -3 17 -16 10 -14 17 -28 16 -31 -1 -4 7 -15 17
-24 11 -10 20 -14 20 -9 0 5 5 2 10 -6 13 -20 13 503 0 550 l-10 35 -52 -5
-53 -5 51 -3 c49 -3 52 -5 58 -34 11 -53 7 -516 -4 -523 -6 -4 -9 -2 -8 3 3 9
-233 285 -465 545 l-78 87 -137 -2 -137 -2 134 -3z"/>
<path d="M24120 2915 c-7 -13 -18 -23 -23 -22 -10 2 -12 -2 -16 -34 0 -5 -6
-7 -11 -4 -6 4 -10 3 -9 -2 3 -20 -2 -33 -13 -30 -7 1 -13 -4 -14 -10 -1 -7
-2 -17 -3 -23 0 -5 -6 -9 -13 -7 -7 1 -13 -4 -14 -10 -1 -7 -2 -18 -3 -24 0
-5 -6 -7 -11 -4 -6 4 -10 3 -9 -2 3 -20 -2 -33 -13 -30 -7 1 -13 -4 -14 -10
-1 -7 -2 -18 -3 -24 0 -5 -6 -7 -13 -3 -7 4 -8 3 -4 -4 3 -6 -3 -16 -14 -22
-11 -6 -19 -14 -19 -18 3 -20 -2 -32 -13 -29 -7 1 -13 -4 -14 -10 -1 -7 -2
-18 -3 -24 0 -5 -6 -7 -13 -3 -7 4 -8 3 -4 -4 3 -6 -3 -16 -14 -22 -11 -6 -19
-14 -19 -18 3 -20 -2 -32 -13 -30 -7 2 -13 -3 -14 -9 -1 -7 -2 -18 -3 -24 0
-5 -6 -7 -11 -4 -6 4 -10 3 -9 -2 3 -20 -2 -33 -13 -31 -7 2 -13 -3 -14 -9 -1
-7 -2 -18 -3 -24 0 -5 -6 -7 -11 -4 -6 4 -10 3 -9 -2 4 -16 -13 -43 -24 -36
-6 3 -7 1 -3 -5 3 -6 -3 -16 -14 -22 -11 -6 -19 -14 -19 -18 3 -20 -2 -32 -11
-27 -6 4 -10 3 -9 -2 4 -15 -13 -43 -22 -37 -5 3 -9 2 -8 -3 3 -20 -2 -33 -13
-30 -7 1 -13 -4 -14 -10 -1 -7 -2 -17 -3 -23 0 -5 -5 -9 -10 -7 -5 1 -9 -2 -9
-7 0 -5 -6 -12 -14 -17 -7 -5 -14 -13 -14 -19 -1 -5 -2 -15 -3 -21 0 -5 -6 -7
-13 -3 -7 4 -8 3 -4 -4 5 -9 69 -11 224 -10 l217 2 -210 6 -210 6 228 1 c160
1 233 5 243 14 8 6 14 8 14 3 0 -11 25 14 26 27 1 5 2 14 3 20 0 5 5 8 10 5 5
-4 7 4 3 16 -3 14 -1 19 6 14 8 -5 10 -1 5 10 -4 11 -3 15 4 11 7 -5 9 1 6 14
-5 18 -9 13 -25 -27 -10 -27 -30 -59 -44 -71 -24 -22 -31 -23 -244 -23 -165 0
-221 3 -226 13 -4 6 -4 9 1 5 8 -8 41 35 300 392 280 387 297 411 293 416 -3
2 -11 -7 -18 -21z"/>
<path d="M3889 2878 c-7 -9 -16 -15 -20 -12 -4 2 -5 -6 -2 -18 4 -19 3 -21 -7
-8 -10 13 -11 12 -6 -3 3 -10 6 -84 6 -163 l0 -144 210 0 210 0 0 144 c0 79 3
153 6 163 5 15 4 15 -5 3 -6 -9 -11 -70 -11 -152 l0 -138 -200 0 -200 0 0 138
c0 167 7 185 70 192 l45 6 -42 5 c-32 3 -45 0 -54 -13z"/>
<path d="M29810 2879 c-13 -9 -13 -10 0 -7 8 3 19 1 25 -4 5 -5 24 -18 41 -28
155 -92 189 -482 58 -671 -15 -22 -47 -48 -75 -62 -26 -14 -46 -27 -44 -29 3
-2 -22 -2 -54 0 -32 2 -66 0 -74 -4 -13 -7 124 -10 143 -4 3 2 8 2 13 1 4 0 7
4 7 10 0 5 5 7 10 4 6 -3 10 -1 10 4 0 6 4 10 9 9 5 -2 22 14 39 34 16 21 33
34 36 30 4 -4 7 -2 6 3 -5 21 0 36 10 30 6 -4 7 1 3 11 -4 12 -3 15 5 10 8 -5
10 -1 5 10 -4 11 -3 15 4 11 7 -5 9 1 5 15 -3 13 -1 19 5 15 7 -5 9 1 6 15 -4
18 -3 20 6 8 8 -11 9 -5 6 25 -4 29 -3 35 4 20 6 -14 8 -2 5 40 -2 34 -1 50 4
37 4 -14 7 16 7 70 0 60 -2 82 -7 63 -5 -19 -6 -7 -4 35 3 45 1 59 -5 45 -7
-15 -8 -11 -4 15 4 27 2 31 -6 20 -8 -12 -10 -9 -6 12 2 17 0 25 -6 21 -6 -4
-8 0 -4 11 4 9 3 15 -2 12 -9 -6 -26 40 -22 57 1 5 -3 6 -9 2 -9 -5 -14 8 -7
19 4 9 -46 55 -55 50 -4 -3 -11 2 -14 10 -3 9 -10 13 -15 10 -5 -3 -9 0 -9 6
0 6 -4 8 -10 5 -5 -3 -10 -1 -10 4 0 14 -11 14 -30 0z"/>
<path d="M5620 2705 l0 -175 128 0 c86 0 122 3 112 10 -8 5 -63 10 -122 10
l-108 0 0 150 0 150 158 0 c182 0 193 -4 216 -78 8 -26 15 -39 15 -30 1 9 4
25 7 35 5 15 4 16 -6 3 -10 -13 -11 -11 -7 8 3 12 1 20 -4 16 -5 -3 -10 0 -10
5 -3 21 -4 26 -12 39 -5 7 -13 10 -18 7 -5 -4 -9 -3 -9 2 0 4 -75 8 -167 7
l-168 0 155 6 155 6 -157 2 -158 2 0 -175z"/>
<path d="M23695 2870 l170 -6 -187 0 c-102 1 -184 -2 -181 -6 4 -7 -20 -12
-39 -9 -5 0 -7 -2 -7 -6 3 -20 -2 -34 -10 -29 -5 4 -7 -4 -4 -16 4 -19 3 -20
-6 -8 -8 11 -10 7 -5 -20 5 -28 3 -32 -6 -20 -10 13 -11 12 -6 -3 3 -10 6 -26
7 -35 0 -9 9 11 19 46 9 35 23 69 29 75 17 17 369 23 385 7 8 -8 8 -11 0 -8
-14 4 -575 -767 -581 -797 -3 -20 -3 -20 5 0 8 18 9 17 16 -8 l6 -27 395 0
c257 0 395 4 395 10 0 6 -138 10 -395 10 -233 0 -395 4 -395 9 0 5 -3 17 -6
26 -4 10 -2 15 7 13 7 -2 14 3 15 10 1 6 2 17 3 22 0 6 4 9 9 8 4 -2 8 1 9 6
1 5 7 12 15 17 7 5 14 13 14 19 1 5 2 15 3 20 0 6 6 9 13 8 7 -2 13 3 14 10 1
6 2 17 3 23 0 5 6 7 11 4 6 -4 10 -3 9 2 -3 20 2 33 13 31 7 -2 13 3 14 10 1
6 2 17 3 22 0 6 6 9 13 8 7 -2 13 3 14 10 1 6 2 17 3 23 0 5 6 7 11 4 6 -4 10
-3 9 2 -4 21 2 34 13 27 6 -4 9 -3 5 2 -5 9 20 51 28 47 3 -2 5 0 4 4 0 3 6
10 15 15 9 5 14 13 11 18 -3 5 4 14 15 20 11 6 19 14 19 18 -3 20 2 32 11 27
6 -4 10 -3 9 2 -3 20 2 33 13 30 7 -1 13 4 14 11 1 6 2 17 3 22 0 5 6 9 13 8
7 -2 13 3 14 10 1 6 2 17 3 23 0 5 6 7 11 4 6 -4 10 -3 9 2 -3 20 2 34 11 28
6 -4 10 -3 9 2 -4 15 13 43 22 37 5 -3 9 -2 8 3 -3 20 2 33 13 31 7 -2 13 3
14 10 1 6 2 17 3 22 0 5 6 9 13 8 7 -2 13 3 14 10 1 6 2 17 3 23 0 5 6 7 13 3
7 -4 8 -3 4 4 -3 6 3 16 14 22 11 6 19 14 19 18 -3 21 2 32 13 26 7 -4 8 -3 4
4 -5 9 -59 11 -184 10 l-177 -2 170 -6z"/>
<path d="M21272 2433 c-1 -233 -6 -423 -10 -423 -5 0 -19 11 -32 25 -13 14
-25 23 -28 21 -6 -6 -58 56 -55 65 1 4 -18 24 -42 44 -25 20 -43 40 -40 44 2
5 -14 23 -35 40 -22 18 -38 36 -35 41 3 4 -13 23 -35 40 -22 17 -38 35 -35 39
2 5 -7 19 -20 31 -14 13 -25 20 -25 16 0 -4 -12 7 -27 25 -16 18 -28 36 -28
40 0 5 -6 14 -12 21 -7 6 -13 8 -13 4 0 -5 -10 4 -22 20 -13 16 -22 32 -21 35
1 4 -7 15 -17 24 -11 10 -20 14 -20 9 0 -5 -8 3 -17 16 -10 14 -17 28 -16 32
2 4 -14 21 -35 38 l-37 31 -2 -48 c-5 -107 -8 -531 -3 -526 3 2 7 127 10 276
l5 271 145 -165 c206 -233 203 -230 220 -248 9 -9 67 -73 129 -143 108 -123
144 -149 156 -115 3 6 4 199 2 427 l-2 415 -3 -422z"/>
<path d="M31200 2432 c0 -161 -3 -300 -6 -309 -5 -16 -4 -16 6 -3 10 13 11 11
7 -8 -3 -12 -1 -20 3 -17 5 3 11 -4 15 -15 4 -11 10 -18 15 -15 5 3 10 1 12
-4 2 -6 17 -6 38 -1 32 9 33 9 5 7 -21 -2 -39 5 -55 20 l-25 23 -3 288 c-2
174 1 283 6 277 19 -20 189 -213 247 -280 33 -38 83 -94 111 -124 28 -31 86
-96 130 -146 114 -130 113 -129 120 -122 4 4 -5 16 -20 28 -14 11 -24 24 -21
28 2 5 -4 16 -15 26 -11 10 -20 14 -20 9 0 -5 -8 3 -17 16 -10 14 -17 28 -16
32 2 4 -22 28 -52 54 -30 25 -53 50 -50 54 2 4 -14 22 -35 39 -22 18 -38 36
-35 41 3 4 -15 24 -40 45 -25 20 -43 40 -40 44 2 5 -4 16 -15 26 -11 10 -20
15 -20 10 0 -4 -10 5 -22 21 -13 16 -22 32 -21 35 1 4 -7 15 -17 24 -11 10
-20 15 -20 11 0 -4 -12 7 -27 25 -16 18 -28 36 -28 40 0 5 -6 14 -12 21 -7 6
-13 8 -13 4 0 -5 -10 4 -22 20 -13 16 -23 32 -23 36 0 4 -5 12 -12 19 -9 9
-12 -54 -13 -279z"/>
<path d="M3858 2288 c-2 -97 1 -174 5 -171 5 3 7 -4 5 -15 -2 -12 2 -22 7 -22
6 -1 17 -8 26 -16 13 -11 24 -12 55 -4 l39 10 -43 -4 c-23 -2 -40 0 -36 5 3 5
-2 9 -11 9 -27 0 -35 47 -35 211 l0 159 201 0 200 0 -3 -174 c-3 -201 -8 -213
-82 -209 l-41 2 40 -9 c29 -6 44 -4 55 5 8 8 20 14 25 15 6 0 9 10 7 22 -2 11
0 18 5 15 4 -3 7 74 5 171 l-3 177 -209 0 -209 0 -3 -177z"/>
<path d="M15525 2280 c0 -93 3 -162 8 -152 5 12 6 9 4 -10 -3 -17 0 -25 6 -21
6 4 8 0 4 -11 -4 -10 -3 -15 3 -11 6 3 10 2 10 -4 0 -6 7 -7 17 -4 11 4 14 3
9 -5 -5 -8 2 -10 26 -5 44 8 48 13 11 13 -17 0 -41 9 -54 19 -23 18 -24 25
-27 175 l-4 156 34 -1 c30 0 42 -11 148 -146 63 -81 139 -175 168 -210 l53
-63 125 0 c76 0 124 4 124 10 0 6 -50 10 -131 10 -80 0 -128 4 -124 10 3 5 -6
17 -20 26 -13 9 -23 20 -20 24 3 4 -2 13 -10 20 -8 7 -15 9 -15 4 0 -4 -6 1
-14 11 -8 11 -12 23 -10 26 2 4 -8 14 -21 23 -14 9 -23 21 -20 26 3 5 -4 14
-16 20 -11 7 -18 14 -15 17 9 9 -15 34 -25 27 -8 -5 -13 9 -11 28 1 3 -5 12
-13 18 -8 7 -15 9 -15 4 0 -5 -6 0 -14 11 -7 11 -13 23 -12 27 0 4 -8 14 -19
22 -11 8 -20 19 -20 25 0 6 -3 10 -7 9 -10 -4 -37 35 -32 44 3 5 -14 8 -38 8
l-43 0 0 -170z"/>
<path d="M18930 2314 c0 -8 -4 -12 -10 -9 -6 4 -7 -1 -3 -11 4 -11 3 -15 -4
-11 -7 5 -9 -1 -5 -15 3 -14 1 -19 -6 -14 -8 5 -10 1 -5 -10 4 -12 3 -15 -5
-10 -8 5 -10 1 -5 -10 4 -11 3 -15 -4 -11 -7 5 -9 -1 -5 -15 3 -14 1 -19 -6
-14 -8 5 -10 1 -5 -10 4 -12 3 -15 -5 -10 -8 5 -10 1 -5 -10 3 -10 2 -15 -3
-12 -5 4 -9 -11 -8 -33 1 -21 3 -38 6 -37 3 2 11 -2 19 -8 8 -6 26 -7 44 -3
l30 8 -31 -2 c-33 -3 -54 12 -54 40 0 10 17 57 37 105 l37 88 171 0 171 0 37
-88 c20 -48 37 -94 37 -103 0 -23 -21 -39 -54 -40 l-31 -1 30 -9 c19 -5 31 -5
33 1 2 6 8 8 13 4 5 -3 9 2 9 11 0 9 3 14 8 12 4 -3 7 10 7 28 0 18 -4 31 -9
27 -5 -3 -6 2 -3 12 4 9 3 14 -2 11 -12 -7 -24 31 -15 46 5 8 3 9 -6 4 -10 -6
-12 -4 -7 9 5 11 3 15 -5 10 -8 -5 -9 -2 -5 10 5 11 3 15 -5 10 -7 -5 -9 0 -6
14 4 14 2 20 -5 15 -7 -4 -8 0 -4 11 5 11 3 15 -5 10 -8 -5 -9 -2 -5 9 6 15
-10 17 -173 17 -156 0 -180 -2 -180 -16z"/>
</g>
</svg>
