<?xml version="1.0" standalone="no"?>
<!DOCTYPE svg PUBLIC "-//W3C//DTD SVG 20010904//EN"
 "http://www.w3.org/TR/2001/REC-SVG-20010904/DTD/svg10.dtd">
<svg version="1.0" xmlns="http://www.w3.org/2000/svg"
 width="3400.000000pt" height="1903.000000pt" viewBox="0 0 3400.000000 1903.000000"
 preserveAspectRatio="xMidYMid meet">
<metadata>
Created by potrace 1.15, written by Peter Selinger 2001-2017
</metadata>
<g transform="translate(0.000000,1903.000000) scale(0.100000,-0.100000)"
fill="#000000" stroke="none">
<path d="M0 9515 l0 -9515 17000 0 17000 0 0 9515 0 9515 -17000 0 -17000 0 0
-9515z m16652 7476 c117 -27 243 -70 376 -129 l109 -49 89 28 c421 137 765
120 1070 -52 48 -28 63 -31 171 -35 246 -9 447 -78 643 -220 37 -26 64 -35
145 -49 228 -38 414 -125 576 -270 45 -40 75 -58 117 -70 342 -94 587 -305
793 -681 22 -40 45 -76 52 -82 7 -5 61 -25 121 -46 390 -133 642 -339 799
-651 30 -59 46 -78 103 -120 100 -72 201 -178 268 -278 57 -85 145 -274 146
-310 0 -10 37 -57 83 -106 46 -48 105 -117 130 -153 70 -98 142 -257 174 -383
23 -92 34 -118 68 -161 208 -256 286 -584 241 -999 l-13 -120 24 -35 c291
-412 377 -705 310 -1060 -12 -59 -11 -71 9 -135 77 -244 77 -479 2 -723 -18
-60 -19 -68 -4 -155 35 -203 12 -409 -69 -612 -43 -108 -44 -113 -44 -225 0
-135 -12 -220 -47 -333 -59 -187 -171 -363 -356 -564 l-58 -62 0 -83 c0 -112
-18 -307 -36 -398 -48 -242 -140 -414 -319 -600 -73 -76 -85 -94 -110 -165
-78 -223 -213 -409 -392 -540 -58 -43 -73 -60 -105 -125 -103 -207 -265 -380
-459 -489 -42 -23 -66 -47 -94 -89 -191 -289 -456 -449 -885 -533 l-105 -21
-35 -51 c-65 -95 -207 -263 -276 -326 -178 -162 -379 -257 -617 -291 -70 -10
-88 -18 -159 -66 -205 -140 -402 -204 -629 -204 -92 0 -102 -2 -150 -31 -76
-45 -206 -96 -301 -119 -95 -24 -291 -35 -388 -23 -60 7 -74 5 -175 -29 -137
-46 -257 -62 -400 -55 -182 8 -372 59 -576 154 l-100 46 -102 -31 c-427 -132
-736 -118 -1044 48 -73 39 -76 40 -178 40 -222 0 -425 66 -623 202 -70 49 -86
55 -174 71 -236 41 -423 131 -588 282 -35 33 -62 46 -125 64 -105 29 -283 116
-365 179 -138 104 -319 329 -415 514 l-30 57 -120 41 c-405 138 -654 339 -813
656 -30 59 -50 87 -79 106 -186 123 -350 341 -426 566 -21 63 -35 84 -99 150
-164 170 -256 337 -309 561 -15 61 -30 96 -53 125 -114 143 -192 309 -231 491
-24 110 -30 338 -15 500 l12 133 -59 84 c-143 201 -238 400 -274 572 -23 113
-25 299 -4 420 15 83 14 91 -4 151 -75 241 -77 466 -7 706 25 84 25 86 9 175
-20 117 -13 348 15 449 21 79 55 172 78 217 12 24 16 59 15 152 -4 329 100
575 377 890 l92 106 0 93 c0 292 61 555 170 737 54 90 162 222 218 267 30 24
42 45 61 104 32 101 90 223 141 299 57 84 177 208 260 270 56 42 72 61 103
122 105 214 238 358 439 479 62 38 89 61 115 101 135 205 307 345 535 436 93
37 243 78 408 112 54 11 56 13 113 94 124 178 295 347 440 434 124 75 282 129
443 151 60 9 82 18 154 66 199 133 367 189 612 200 103 5 110 7 195 50 188 97
347 131 575 122 134 -5 154 -4 196 14 54 24 175 56 257 69 86 13 285 3 387
-19z m2611 -14243 c53 -123 137 -317 187 -433 50 -115 103 -222 117 -236 13
-15 38 -29 54 -33 16 -3 29 -10 29 -16 0 -6 -65 -10 -185 -10 -104 0 -185 4
-185 9 0 5 19 15 42 23 66 21 69 46 14 170 l-44 103 -187 0 -187 0 -45 -104
c-55 -125 -53 -148 15 -169 23 -8 42 -18 42 -23 0 -5 -58 -9 -130 -9 -97 0
-130 3 -130 13 0 6 15 19 32 27 18 8 40 26 50 40 14 19 337 742 379 848 5 12
15 22 22 22 8 0 53 -91 110 -222z m6247 -175 c231 -532 221 -514 288 -528 18
-4 30 -11 26 -16 -7 -12 -374 -12 -374 0 0 5 19 15 42 23 67 21 69 44 17 169
l-44 104 -189 0 -188 0 -45 -108 c-54 -126 -52 -148 17 -167 74 -20 44 -30
-90 -30 -109 0 -130 2 -130 15 0 8 8 15 18 15 23 0 64 43 91 98 12 23 93 205
180 405 197 450 182 417 196 417 7 0 90 -179 185 -397z m-11351 358 c85 -26
140 -61 199 -126 255 -279 109 -729 -258 -795 -223 -40 -443 99 -512 323 -16
55 -20 88 -16 170 3 92 7 109 39 177 61 128 154 211 277 251 77 24 193 24 271
0z m3482 -7 c114 -35 130 -35 147 -1 27 56 36 29 48 -160 4 -58 3 -103 -2
-103 -5 0 -17 20 -27 44 -28 68 -80 121 -155 158 -63 31 -73 33 -172 33 -95 0
-110 -3 -158 -28 -109 -57 -182 -169 -203 -311 -30 -204 61 -390 229 -469 59
-28 78 -32 152 -32 75 0 92 4 145 30 l60 30 3 145 c2 96 -1 154 -9 173 -13 30
-60 57 -99 57 -11 0 -20 5 -20 10 0 6 72 10 195 10 107 0 195 -4 195 -9 0 -5
-20 -14 -45 -20 -28 -7 -49 -20 -57 -34 -9 -14 -15 -80 -18 -187 l-5 -165 -65
-32 c-91 -44 -167 -58 -300 -57 -97 1 -128 5 -195 28 -98 33 -158 71 -220 137
-234 250 -87 668 268 764 87 23 212 19 308 -11z m12238 7 c276 -86 407 -403
276 -669 -172 -347 -653 -343 -823 7 -34 71 -37 83 -40 186 -4 121 13 195 65
278 109 177 326 259 522 198z m-27059 -78 c0 -43 3 -88 6 -100 11 -41 -22 -26
-34 15 -25 84 -80 112 -219 112 l-83 0 0 -390 0 -391 25 -24 c13 -14 35 -25
49 -25 13 0 31 -3 40 -6 46 -18 -3 -24 -189 -24 -128 0 -205 4 -205 10 0 5 19
13 41 16 23 4 53 17 68 30 l26 22 0 389 0 388 -95 3 c-82 2 -101 0 -140 -20
-38 -19 -48 -31 -65 -75 -11 -29 -23 -53 -27 -53 -5 0 -8 45 -8 100 l0 100
405 0 405 0 0 -77z m1160 67 c0 -5 -14 -10 -30 -10 -51 0 -88 -25 -99 -68 -6
-20 -11 -99 -11 -174 l0 -138 230 0 230 0 -1 143 c0 82 -5 157 -12 177 -13 39
-46 60 -94 60 -18 0 -33 5 -33 10 0 6 75 10 205 10 130 0 205 -4 205 -10 0 -5
-16 -10 -36 -10 -26 0 -43 -8 -65 -29 l-29 -29 0 -377 0 -376 23 -23 c13 -13
42 -26 65 -30 23 -3 42 -11 42 -16 0 -6 -77 -10 -205 -10 -128 0 -205 4 -205
10 0 5 19 13 42 16 55 9 85 40 93 95 3 24 5 109 3 189 l-3 145 -225 0 -225 0
0 -188 0 -189 26 -22 c15 -13 45 -26 68 -30 22 -3 41 -11 41 -16 0 -6 -77 -10
-205 -10 -127 0 -205 4 -205 10 0 5 12 12 28 15 59 12 77 21 89 45 10 19 13
118 13 393 l0 369 -29 29 c-22 21 -39 29 -65 29 -20 0 -36 5 -36 10 0 6 75 10
205 10 130 0 205 -4 205 -10z m2074 -27 c16 -99 -1 -221 -18 -129 -4 19 -16
46 -27 60 -40 50 -64 56 -244 56 l-165 0 0 -175 0 -175 140 0 c105 0 148 4
169 15 28 14 51 58 51 96 0 11 5 19 10 19 6 0 10 -60 10 -160 0 -100 -4 -160
-10 -160 -5 0 -10 9 -10 20 0 11 -7 36 -15 56 -22 54 -61 65 -213 62 l-127 -3
0 -188 c0 -177 1 -190 20 -204 16 -11 49 -14 170 -11 131 3 155 6 191 25 46
24 88 70 112 120 9 18 21 33 28 33 9 0 0 -36 -25 -112 l-38 -113 -366 -3
c-222 -1 -367 1 -367 7 0 5 15 12 33 16 101 20 97 3 97 439 0 364 0 365 -23
391 -15 18 -36 28 -65 32 -23 3 -42 10 -42 14 0 5 161 9 359 9 l358 0 7 -37z
m2236 27 c0 -5 -14 -10 -30 -10 -45 0 -89 -26 -97 -58 -5 -15 -8 -187 -8 -382
0 -323 2 -358 18 -383 9 -15 27 -29 40 -31 67 -14 77 -17 77 -26 0 -6 -78 -10
-205 -10 -128 0 -205 4 -205 10 0 5 19 13 42 16 23 4 52 17 65 30 l23 23 0
376 0 377 -29 29 c-22 21 -39 29 -65 29 -20 0 -36 5 -36 10 0 6 75 10 205 10
130 0 205 -4 205 -10z m1180 0 c0 -5 -11 -10 -24 -10 -37 0 -86 -20 -96 -40
-11 -20 -14 -370 -4 -370 12 0 203 171 255 228 63 69 89 109 89 139 0 24 -26
43 -59 43 -12 0 -21 5 -21 10 0 6 63 10 170 10 107 0 170 -4 170 -10 0 -5 -10
-10 -23 -10 -56 0 -123 -51 -287 -216 l-165 -166 218 -213 c223 -218 275 -257
360 -270 20 -3 37 -10 37 -15 0 -6 -92 -10 -235 -10 -154 0 -235 4 -235 10 0
6 13 13 30 16 38 8 54 28 46 56 -3 13 -84 102 -181 198 l-175 175 0 -188 c0
-183 1 -189 23 -211 13 -13 42 -26 65 -30 24 -3 40 -11 37 -16 -8 -13 -405
-13 -405 -1 0 12 25 21 56 21 14 0 36 11 49 25 l25 24 0 375 c0 206 -3 382 -6
391 -9 22 -57 45 -94 45 -16 0 -30 5 -30 10 0 6 75 10 205 10 130 0 205 -4
205 -10z m1740 1 c0 -4 -19 -11 -42 -14 -51 -7 -75 -32 -83 -90 -4 -23 -5
-163 -3 -312 4 -305 9 -328 79 -389 48 -41 97 -56 181 -56 96 0 162 23 213 75
70 69 75 100 75 431 0 279 0 283 -23 309 -15 18 -36 28 -65 32 -91 12 -34 23
123 23 103 0 165 -4 165 -10 0 -5 -16 -10 -35 -10 -47 0 -82 -18 -94 -49 -6
-15 -11 -149 -13 -316 l-3 -290 -29 -63 c-35 -76 -95 -133 -175 -163 -74 -29
-240 -32 -317 -6 -73 25 -139 70 -168 114 -48 73 -56 132 -56 436 l0 279 -29
29 c-22 21 -39 29 -65 29 -20 0 -36 5 -36 10 0 6 73 10 200 10 110 0 200 -4
200 -9z m4606 -6 c163 -48 224 -237 116 -357 -36 -40 -120 -88 -154 -88 -10 0
-18 -3 -18 -6 0 -11 246 -310 290 -352 26 -25 62 -48 88 -55 73 -22 53 -32
-70 -35 l-116 -3 -173 216 -173 215 -43 0 -43 0 0 -175 c0 -170 1 -177 23
-199 13 -13 42 -26 65 -30 24 -3 40 -11 37 -16 -8 -13 -395 -13 -395 -1 0 11
25 21 50 21 11 0 32 11 47 24 l28 24 0 370 c0 396 -1 408 -52 431 -13 6 -35
11 -48 11 -14 0 -25 5 -25 10 0 17 506 13 566 -5z m5046 -258 c131 -150 262
-299 292 -332 l55 -60 1 298 0 298 -25 24 c-18 18 -35 25 -65 25 -22 0 -40 5
-40 10 0 6 62 10 165 10 103 0 165 -4 165 -10 0 -5 -22 -10 -50 -10 -37 0 -55
-5 -70 -20 -19 -19 -20 -33 -20 -450 0 -245 -4 -430 -9 -430 -5 0 -154 164
-332 365 l-324 365 -3 -312 c-3 -357 -4 -351 81 -377 26 -8 47 -18 47 -23 0
-4 -74 -8 -165 -8 -96 0 -165 4 -165 9 0 6 19 13 43 16 97 15 97 14 97 419 l0
345 -32 37 c-35 40 -82 64 -123 64 -14 0 -25 5 -25 10 0 6 51 10 133 10 l132
-1 237 -272z m1698 264 c0 -4 -21 -11 -46 -14 -29 -3 -54 -13 -68 -26 -21 -21
-21 -27 -21 -402 l0 -381 26 -22 c15 -13 45 -26 68 -30 22 -3 41 -11 41 -16 0
-6 -78 -10 -210 -10 -127 0 -210 4 -210 10 0 5 17 12 38 15 58 10 82 23 93 51
6 17 9 163 7 395 -3 361 -3 369 -24 390 -14 13 -39 23 -68 26 -25 3 -46 10
-46 14 0 5 95 9 210 9 116 0 210 -4 210 -9z m1545 -1 c-3 -5 -141 -196 -305
-422 l-299 -413 222 -3 c137 -2 236 1 259 8 45 13 82 55 105 120 10 28 21 50
25 50 12 0 9 -34 -10 -140 l-18 -95 -392 -3 c-326 -2 -392 0 -392 11 0 8 135
200 300 428 l299 414 -182 3 c-110 2 -197 -1 -219 -8 -45 -13 -76 -50 -84
-100 -7 -40 -20 -68 -28 -59 -3 2 -2 53 1 112 l6 107 359 0 c236 0 357 -3 353
-10z m3249 -27 c3 -21 6 -66 6 -101 0 -73 -14 -79 -36 -17 -28 83 -87 109
-229 103 l-70 -3 -2 -375 c-2 -285 0 -381 10 -400 13 -26 45 -46 90 -55 15 -3
27 -10 27 -15 0 -6 -76 -10 -200 -10 -124 0 -200 4 -200 10 0 5 12 12 28 16
54 11 80 26 91 50 7 17 11 144 11 404 l0 380 -87 0 c-142 0 -189 -23 -218
-106 -7 -21 -19 -40 -26 -43 -9 -3 -11 12 -6 65 4 38 7 84 7 102 l0 32 399 0
398 0 7 -37z m1166 27 c0 -5 -14 -10 -30 -10 -37 0 -85 -23 -94 -45 -3 -9 -6
-185 -6 -391 l0 -375 23 -23 c13 -13 42 -26 65 -30 23 -3 42 -11 42 -16 0 -6
-77 -10 -205 -10 -128 0 -205 4 -205 10 0 5 19 13 41 16 23 4 53 17 68 30 l26
22 0 364 c0 391 -3 415 -51 437 -14 6 -38 11 -54 11 -17 0 -30 5 -30 10 0 6
75 10 205 10 130 0 205 -4 205 -10z m2975 -317 c157 -181 291 -329 296 -331
13 -5 12 533 -1 580 -13 44 -34 58 -89 58 -23 0 -41 5 -41 10 0 6 63 10 170
10 107 0 170 -4 170 -10 0 -5 -22 -10 -49 -10 -33 0 -56 -6 -72 -19 l-24 -19
-3 -431 c-2 -237 -6 -431 -10 -430 -6 0 -567 628 -634 709 -9 11 -19 20 -22
20 -11 0 -6 -583 5 -623 11 -42 37 -62 92 -71 80 -14 20 -26 -134 -26 -152 0
-201 10 -122 25 102 19 103 23 103 426 l0 332 -26 35 c-29 37 -93 71 -136 72
-16 0 -28 5 -28 10 0 6 51 10 134 10 l134 0 287 -327z"/>
<path d="M16255 16954 c-125 -29 -195 -49 -195 -54 0 -3 26 -11 58 -19 93 -21
286 -86 462 -156 l165 -65 158 62 158 62 -36 18 c-71 37 -213 90 -320 119 -97
27 -129 31 -270 34 -88 2 -169 2 -180 -1z"/>
<path d="M15606 16869 c-124 -18 -346 -95 -346 -120 0 -5 15 -9 33 -9 17 0 84
-10 148 -21 l116 -22 105 66 c58 36 122 74 142 83 20 10 36 21 36 26 0 10
-156 8 -234 -3z"/>
<path d="M17525 16861 c-95 -17 -276 -65 -302 -80 -14 -7 294 -181 321 -181 9
0 97 20 194 44 211 53 361 84 442 93 33 3 60 9 60 13 0 12 -131 68 -225 95
-123 36 -342 44 -490 16z"/>
<path d="M15855 16812 c-136 -72 -222 -130 -205 -136 8 -3 150 -40 315 -82
193 -49 321 -77 360 -77 50 -1 82 7 198 52 75 29 137 56 137 60 0 7 -83 40
-280 113 -123 45 -383 118 -420 118 -8 0 -55 -22 -105 -48z"/>
<path d="M16975 16693 c-150 -60 -151 -60 -143 -68 13 -14 306 -118 328 -117
14 0 85 15 159 33 132 31 134 32 111 49 -29 22 -294 160 -306 160 -5 -1 -72
-26 -149 -57z"/>
<path d="M14874 16685 c-81 -14 -123 -27 -209 -62 -67 -28 -205 -104 -205
-114 0 -4 75 -9 168 -11 l167 -4 45 36 c129 104 157 127 185 147 l30 22 -55 0
c-30 -1 -87 -7 -126 -14z"/>
<path d="M15068 16638 c-110 -80 -187 -141 -188 -149 0 -3 73 -15 162 -26
l162 -19 142 100 c79 56 143 104 143 107 1 7 -170 35 -269 44 l-65 6 -87 -63z"/>
<path d="M18255 16693 c-161 -21 -626 -120 -643 -137 -2 -2 61 -38 140 -79
l143 -75 100 8 c149 13 625 74 625 80 -1 6 -167 135 -232 178 -45 31 -62 34
-133 25z"/>
<path d="M18474 16678 c16 -13 76 -60 133 -106 87 -70 108 -83 131 -78 15 3
89 7 165 8 81 1 136 6 134 12 -5 14 -134 85 -212 116 -91 36 -198 60 -299 66
l-81 5 29 -23z"/>
<path d="M15429 16538 c-77 -55 -138 -102 -136 -104 2 -3 76 -11 163 -19 181
-17 384 -19 494 -5 90 11 270 51 270 59 0 5 -325 91 -558 147 l-93 22 -140
-100z"/>
<path d="M16608 16546 c-70 -28 -130 -54 -133 -58 -3 -3 47 -11 112 -18 118
-13 331 -8 403 9 35 8 35 8 10 18 -120 50 -255 103 -260 102 -3 0 -62 -24
-132 -53z"/>
<path d="M17405 16505 c-49 -13 -100 -24 -112 -24 -50 -2 -18 -19 75 -40 115
-26 240 -41 337 -41 l70 0 -118 65 c-65 36 -128 64 -140 64 -12 -1 -62 -12
-112 -24z"/>
<path d="M14340 16419 c-108 -78 -507 -520 -475 -527 11 -3 225 29 298 44 35
7 127 85 376 318 225 211 226 193 -10 195 l-146 1 -43 -31z"/>
<path d="M16285 16429 c-33 -10 -112 -31 -175 -46 -113 -27 -121 -28 -400 -27
-194 1 -317 6 -385 16 l-100 15 -125 -87 c-311 -217 -525 -322 -785 -386 -55
-13 -111 -33 -125 -44 -14 -11 -78 -56 -143 -100 -128 -87 -246 -147 -402
-205 -86 -32 -109 -46 -165 -99 -178 -167 -291 -249 -465 -338 -94 -48 -104
-56 -165 -136 -161 -208 -347 -365 -651 -547 l-177 -106 -52 -152 c-122 -356
-215 -534 -387 -738 -76 -91 -80 -98 -121 -225 -50 -152 -121 -299 -216 -443
-63 -97 -68 -110 -82 -195 -31 -192 -82 -350 -170 -527 l-53 -106 -6 -124
c-16 -321 -73 -534 -240 -898 l-47 -103 46 -152 c113 -374 146 -622 117 -881
-7 -65 -5 -78 31 -185 53 -158 76 -282 89 -471 l11 -161 63 -131 c78 -163 117
-286 151 -470 26 -142 26 -142 89 -237 162 -243 247 -470 326 -865 l22 -110
96 -70 c332 -242 492 -404 640 -649 46 -76 60 -91 148 -153 124 -87 265 -221
366 -348 75 -93 86 -103 166 -144 152 -77 303 -184 430 -306 l118 -115 103
-35 c258 -90 437 -203 726 -458 l131 -115 244 -11 c357 -16 496 -41 729 -131
l125 -48 170 -6 c188 -5 294 -21 463 -68 113 -31 114 -31 205 -17 124 19 514
17 617 -2 73 -14 77 -14 170 14 219 64 274 72 540 71 167 0 286 -5 373 -17
l128 -16 122 85 c308 216 519 321 776 383 108 27 126 34 183 79 142 111 341
219 513 278 72 24 89 36 165 109 155 148 288 244 466 333 73 36 88 50 151 129
184 234 352 372 692 570 l134 78 52 155 c121 360 231 566 411 768 55 62 63 76
98 187 47 150 124 309 214 445 66 100 70 110 86 202 35 205 84 355 175 538
l48 95 7 144 c14 292 69 496 232 858 l54 122 -34 108 c-53 162 -103 365 -122
493 -13 92 -15 156 -11 317 l6 202 -34 100 c-59 175 -95 390 -95 567 0 54 -6
73 -44 145 -88 168 -157 379 -186 573 -11 73 -17 86 -92 199 -156 237 -226
421 -308 816 -16 79 -31 145 -32 146 -2 1 -48 35 -103 75 -322 235 -491 413
-658 691 -9 14 -62 59 -119 99 -114 81 -306 267 -387 374 -46 62 -62 75 -152
123 -191 101 -287 171 -434 314 -96 94 -104 99 -190 129 -269 94 -472 222
-767 486 l-117 104 -164 0 c-346 0 -569 39 -831 145 l-112 45 -155 0 c-174 0
-280 15 -460 64 l-117 32 -118 -18 c-188 -27 -466 -20 -659 17 -11 2 -47 -5
-80 -16z m1430 -3049 c465 -21 944 -74 1480 -165 144 -24 581 -110 618 -121
36 -11 14 -21 -73 -32 -163 -22 -275 -79 -387 -195 -77 -80 -121 -149 -199
-312 -118 -247 -207 -527 -343 -1078 -186 -754 -501 -1968 -546 -2107 -287
-882 -746 -1487 -1404 -1850 -506 -279 -1165 -386 -1719 -279 -354 68 -671
257 -848 505 -177 248 -249 652 -163 915 99 301 388 520 708 536 174 9 282
-26 368 -119 89 -97 126 -200 126 -348 1 -105 -20 -205 -33 -160 -22 77 -85
145 -175 187 -54 25 -70 28 -160 27 -160 -2 -259 -47 -377 -172 -121 -129
-178 -284 -178 -487 0 -325 174 -606 463 -750 174 -86 268 -107 514 -112 289
-7 473 18 716 98 143 46 365 154 492 238 371 245 684 655 941 1231 115 258
231 616 317 975 25 105 109 456 187 780 194 811 217 894 347 1225 193 493 408
801 666 952 82 48 70 55 -168 98 -626 113 -1224 201 -1600 236 -321 30 -764
10 -1070 -47 -572 -107 -983 -309 -1302 -642 -320 -334 -490 -734 -525 -1234
-25 -366 30 -689 165 -974 198 -414 569 -693 1067 -801 93 -20 133 -22 345
-22 211 0 252 2 342 22 358 78 626 233 815 470 223 281 251 689 60 885 -57 59
-99 82 -174 96 -136 25 -276 -42 -340 -162 l-17 -32 -1 91 c0 115 25 200 83
285 77 113 181 163 337 161 151 -1 259 -50 369 -167 137 -147 178 -331 126
-574 -92 -437 -548 -863 -1130 -1055 -245 -81 -452 -111 -719 -103 -374 11
-695 108 -989 300 -360 235 -607 589 -694 997 -28 133 -25 471 5 600 161 680
702 1309 1502 1745 432 236 990 406 1450 444 150 12 469 12 725 1z"/>
<path d="M18792 16442 c-20 -6 -11 -18 97 -119 l119 -113 188 0 188 0 -69 71
c-39 39 -96 93 -128 120 l-58 49 -157 -1 c-86 -1 -167 -4 -180 -7z"/>
<path d="M18370 16399 c-168 -21 -318 -39 -335 -41 -25 -2 -15 -9 60 -36 184
-68 364 -98 645 -107 l185 -6 -110 106 c-60 58 -117 110 -125 114 -8 4 -152
-9 -320 -30z"/>
<path d="M14131 16405 c-186 -48 -363 -156 -512 -312 -68 -71 -213 -253 -207
-259 3 -2 303 34 335 41 12 3 71 65 139 147 65 79 176 203 248 276 88 90 123
132 110 132 -10 -1 -61 -12 -113 -25z"/>
<path d="M14738 16364 c-237 -218 -417 -388 -414 -391 10 -10 249 80 361 136
119 60 445 266 445 282 0 7 -135 26 -251 36 l-66 6 -75 -69z"/>
<path d="M19353 16323 l108 -110 138 -12 c75 -6 148 -15 162 -18 22 -6 23 -5
10 11 -23 27 -173 124 -242 155 -69 31 -179 66 -244 76 l-40 7 108 -109z"/>
<path d="M19115 16114 c193 -175 369 -306 518 -384 86 -46 226 -105 232 -98 3
3 -297 369 -381 466 l-55 62 -182 0 -182 -1 50 -45z"/>
<path d="M19520 16147 c0 -4 44 -60 98 -124 54 -65 153 -185 221 -266 68 -82
133 -154 145 -162 24 -16 292 -88 307 -83 23 8 -259 416 -378 546 -47 52 -50
53 -133 67 -100 18 -260 31 -260 22z"/>
<path d="M20028 16008 c76 -95 179 -242 278 -399 l79 -125 163 -41 c110 -28
162 -37 158 -28 -2 7 -29 53 -60 102 -151 244 -291 385 -479 484 -63 33 -176
79 -194 79 -2 0 22 -33 55 -72z"/>
<path d="M13937 15845 l-139 -20 -85 -98 c-47 -54 -83 -101 -80 -103 18 -18
372 166 446 232 11 10 -15 8 -142 -11z"/>
<path d="M13575 15799 c-33 -4 -95 -13 -137 -20 l-78 -11 -86 -135 c-47 -74
-83 -137 -81 -140 3 -3 74 14 158 36 l151 42 47 52 c26 29 65 72 86 97 22 25
48 55 59 68 l19 22 -39 -1 c-21 -1 -66 -5 -99 -10z"/>
<path d="M13120 15720 c-251 -64 -417 -147 -561 -279 -80 -73 -172 -187 -143
-178 10 3 78 26 149 51 72 25 222 69 334 98 l205 53 73 115 c41 63 80 127 89
143 14 26 14 27 -8 27 -13 -1 -75 -14 -138 -30z"/>
<path d="M20072 15501 c2 -4 39 -40 83 -80 83 -76 223 -174 308 -218 l50 -25
-24 39 c-13 21 -49 79 -81 128 l-58 90 -141 37 c-77 20 -139 33 -137 29z"/>
<path d="M13271 15452 l-134 -37 -73 -115 c-40 -63 -71 -116 -69 -118 7 -7
169 92 244 149 88 66 191 158 176 158 -5 0 -70 -17 -144 -37z"/>
<path d="M20430 15413 c0 -3 42 -69 94 -147 l94 -142 94 -41 c137 -61 200 -85
196 -74 -1 5 -36 79 -77 165 -66 139 -77 156 -105 165 -71 23 -296 79 -296 74z"/>
<path d="M13005 15385 c-5 -2 -78 -22 -161 -44 -170 -46 -312 -92 -427 -141
l-79 -33 -48 -97 c-48 -96 -102 -221 -97 -226 1 -1 34 11 72 27 39 15 171 69
295 118 348 138 308 113 406 260 46 71 84 131 84 135 0 6 -27 7 -45 1z"/>
<path d="M20832 15300 c2 -5 37 -81 78 -168 l75 -160 193 -77 c107 -43 255
-108 330 -145 75 -38 139 -66 141 -64 2 2 -20 42 -50 90 -94 150 -243 287
-429 391 -94 53 -345 152 -338 133z"/>
<path d="M12178 15069 c-119 -81 -226 -199 -307 -337 -17 -29 -31 -54 -31 -56
0 -2 62 28 138 66 l137 69 28 67 c15 37 44 102 64 145 20 42 34 79 32 81 -2 2
-30 -14 -61 -35z"/>
<path d="M20702 15020 c2 -5 34 -44 72 -89 65 -76 163 -166 253 -231 l42 -31
-62 129 -62 130 -123 50 c-67 27 -121 46 -120 42z"/>
<path d="M12477 14896 c-170 -67 -313 -129 -318 -137 -12 -19 -112 -329 -108
-333 7 -7 286 166 387 239 53 39 142 115 197 170 101 100 174 185 158 185 -4
-1 -147 -56 -316 -124z"/>
<path d="M21030 14883 c0 -5 31 -69 69 -143 l68 -135 74 -46 c41 -25 171 -99
289 -164 118 -64 230 -126 249 -138 l33 -20 -7 34 c-4 19 -26 90 -48 159 -32
99 -47 131 -73 156 -40 39 -288 162 -488 243 -151 62 -166 67 -166 54z"/>
<path d="M12015 14699 c-33 -17 -96 -51 -141 -76 -81 -46 -81 -46 -107 -117
-32 -84 -88 -278 -83 -284 3 -2 69 32 148 76 l143 80 56 176 c31 97 54 176 50
176 -3 -1 -33 -14 -66 -31z"/>
<path d="M11647 14462 c-71 -62 -134 -132 -186 -208 -43 -64 -104 -188 -116
-237 -7 -27 -3 -25 83 35 50 35 112 77 138 93 48 30 48 30 75 135 15 58 36
133 47 168 11 34 18 62 17 62 -2 0 -28 -21 -58 -48z"/>
<path d="M21790 14506 c0 -2 7 -23 16 -47 8 -24 28 -91 43 -149 l28 -105 74
-49 c41 -26 105 -71 142 -98 59 -42 68 -46 62 -26 -18 60 -95 200 -148 270
-71 94 -217 232 -217 204z"/>
<path d="M21261 14453 c71 -117 199 -262 329 -375 110 -94 294 -230 298 -219
3 9 -41 247 -54 292 -2 9 -68 51 -147 95 -78 43 -209 115 -291 161 -82 46
-151 83 -153 83 -3 0 6 -17 18 -37z"/>
<path d="M11804 14219 l-141 -80 -16 -77 c-9 -42 -37 -184 -62 -314 -25 -130
-48 -245 -51 -255 -10 -31 65 58 128 151 70 105 123 207 177 344 48 120 113
304 108 308 -1 2 -66 -33 -143 -77z"/>
<path d="M21900 14113 c0 -4 14 -78 31 -163 l31 -155 131 -95 c178 -129 161
-123 153 -54 -4 33 -16 104 -27 159 -22 113 -19 108 -169 215 -112 80 -150
104 -150 93z"/>
<path d="M11520 14049 c-35 -23 -98 -67 -140 -99 l-77 -58 -16 -79 c-33 -154
-76 -564 -66 -632 4 -22 16 -13 120 90 l116 114 27 130 c54 260 112 575 106
575 -4 0 -36 -18 -70 -41z"/>
<path d="M22275 13805 c22 -120 35 -205 35 -232 0 -28 12 -42 98 -116 53 -47
108 -96 121 -111 14 -14 28 -26 32 -26 11 0 -43 155 -81 230 -44 88 -99 167
-160 231 -49 52 -51 53 -45 24z"/>
<path d="M11164 13753 c-151 -178 -224 -346 -258 -590 -21 -149 -30 -316 -18
-312 5 2 68 58 140 124 l130 120 6 105 c12 195 35 434 51 524 9 49 14 91 11
93 -2 2 -30 -27 -62 -64z"/>
<path d="M21980 13699 c0 -35 77 -350 110 -452 42 -125 111 -273 179 -378 48
-75 46 -82 31 139 -5 81 -15 219 -21 307 -5 88 -13 168 -15 177 -3 9 -62 59
-132 111 -150 111 -152 112 -152 96z"/>
<path d="M22326 13418 c2 -18 13 -168 24 -333 11 -165 23 -319 26 -341 6 -40
48 -100 185 -264 l37 -44 8 100 c11 141 9 516 -4 599 l-11 70 -126 123 c-70
67 -130 122 -135 122 -5 0 -7 -15 -4 -32z"/>
<path d="M11308 13163 l-97 -98 -6 -95 c-3 -52 -8 -110 -11 -127 -3 -18 -1
-33 3 -33 10 0 115 180 143 245 40 93 80 205 72 205 -4 0 -51 -44 -104 -97z"/>
<path d="M22668 12930 c3 -100 -1 -265 -8 -367 -11 -176 -11 -187 7 -209 107
-135 189 -233 195 -233 11 -1 23 168 22 309 -3 226 -52 410 -155 581 -27 46
-54 88 -58 92 -4 4 -6 -74 -3 -173z"/>
<path d="M11017 12890 l-127 -122 0 -51 c0 -103 13 -277 21 -277 6 0 159 186
210 255 8 11 33 287 28 304 -3 7 -62 -43 -132 -109z"/>
<path d="M10739 12603 c-196 -234 -290 -429 -319 -663 -12 -100 -13 -150 -2
-150 4 1 27 33 52 73 59 95 168 241 291 389 63 76 98 126 95 137 -3 9 -8 82
-12 164 -4 81 -10 147 -15 147 -4 0 -45 -44 -90 -97z"/>
<path d="M11009 12465 l-94 -115 4 -77 c2 -43 6 -107 10 -143 l8 -65 40 85
c22 47 50 114 63 150 23 67 72 271 66 277 -2 2 -45 -48 -97 -112z"/>
<path d="M22400 12575 c0 -22 45 -207 64 -262 32 -94 97 -243 106 -243 4 0 10
65 13 145 l7 146 -92 109 c-87 105 -98 117 -98 105z"/>
<path d="M22636 12213 c-3 -42 -6 -118 -6 -169 l0 -93 77 -126 c42 -69 79
-122 83 -118 9 9 60 277 60 312 0 15 -35 67 -96 142 -52 65 -99 121 -103 124
-5 2 -11 -30 -15 -72z"/>
<path d="M10743 12143 c-133 -167 -215 -281 -277 -389 l-47 -81 11 -69 c15
-99 52 -264 59 -264 6 0 149 222 304 473 l89 142 -7 150 c-4 83 -10 156 -14
163 -5 9 -44 -33 -118 -125z"/>
<path d="M22891 11918 c-6 -29 -21 -108 -34 -174 l-23 -122 44 -68 c94 -144
226 -370 270 -462 44 -90 47 -95 53 -67 4 17 7 86 8 155 1 182 -32 318 -124
500 -33 67 -172 290 -180 290 -2 0 -8 -24 -14 -52z"/>
<path d="M10710 11579 c-91 -143 -173 -276 -183 -295 l-18 -35 51 -162 c29
-89 55 -166 59 -170 14 -14 160 339 199 483 31 111 50 223 58 338 4 56 5 102
3 102 -2 -1 -78 -118 -169 -261z"/>
<path d="M22633 11745 c3 -55 13 -136 22 -180 20 -99 56 -225 64 -225 6 0 52
239 51 267 0 7 -32 63 -71 125 l-71 113 5 -100z"/>
<path d="M10343 11480 c-48 -147 -64 -305 -44 -445 l7 -50 71 140 72 139 -30
126 c-49 208 -41 199 -76 90z"/>
<path d="M22789 11398 c-12 -73 -23 -151 -23 -173 0 -29 25 -94 91 -240 163
-360 198 -434 203 -435 7 0 75 185 100 273 l19 68 -39 91 c-65 148 -297 548
-320 548 -4 0 -18 -60 -31 -132z"/>
<path d="M10402 11053 c-33 -71 -64 -140 -67 -155 -4 -15 2 -58 14 -102 24
-88 92 -269 98 -262 2 2 35 69 73 149 l68 146 -57 175 c-31 97 -59 176 -62
176 -3 0 -33 -57 -67 -127z"/>
<path d="M22744 11044 c-12 -66 4 -293 31 -431 24 -124 96 -388 114 -422 9
-15 19 3 108 203 l35 79 -60 131 c-241 523 -220 482 -228 440z"/>
<path d="M23186 10723 c-10 -32 -35 -102 -56 -155 l-38 -97 54 -138 c29 -76
54 -146 54 -155 0 -9 4 -19 9 -23 5 -3 18 30 28 72 26 111 25 356 -1 471 -10
45 -22 82 -26 82 -3 0 -14 -26 -24 -57z"/>
<path d="M10282 10735 c-38 -143 -45 -324 -18 -468 27 -144 26 -144 79 0 25
70 51 142 58 158 10 27 6 45 -40 170 -74 199 -67 187 -79 140z"/>
<path d="M10543 10604 c-35 -75 -63 -142 -63 -150 0 -8 48 -117 106 -242 102
-217 134 -286 156 -342 10 -24 11 -24 18 -5 21 51 5 289 -31 465 -29 141 -106
410 -117 410 -4 0 -35 -61 -69 -136z"/>
<path d="M22987 10241 l-69 -149 58 -176 c32 -97 61 -173 65 -169 12 12 104
202 124 255 17 47 17 48 -10 135 -40 129 -86 253 -93 253 -4 0 -38 -67 -75
-149z"/>
<path d="M10403 10272 c-22 -59 -48 -137 -58 -173 l-17 -66 37 -86 c67 -155
310 -567 325 -550 7 8 23 89 45 233 l13 85 -48 115 c-27 63 -92 206 -144 318
-53 112 -96 207 -96 212 0 5 -4 11 -9 14 -5 3 -27 -43 -48 -102z"/>
<path d="M22856 9955 c-97 -212 -167 -411 -196 -556 -18 -90 -39 -321 -28
-309 6 6 295 459 335 526 l31 51 -45 143 c-24 78 -50 156 -57 174 l-13 31 -27
-60z"/>
<path d="M10303 9914 c-5 -11 -8 -89 -7 -174 1 -134 4 -168 27 -254 32 -121
113 -291 201 -425 37 -55 70 -102 74 -105 8 -5 72 298 72 337 0 9 -40 78 -88
154 -108 170 -170 277 -227 395 -36 72 -46 87 -52 72z"/>
<path d="M23127 9790 l-69 -137 26 -102 c14 -56 28 -124 32 -151 4 -28 10 -50
14 -50 8 0 51 130 71 215 15 61 17 341 4 354 -6 5 -35 -42 -78 -129z"/>
<path d="M10758 9453 l-26 -138 66 -105 c36 -58 70 -109 75 -115 13 -13 0 155
-18 254 -18 93 -58 241 -65 241 -3 0 -17 -62 -32 -137z"/>
<path d="M22997 9559 c-8 -13 -75 -118 -149 -234 -230 -359 -218 -335 -217
-446 1 -52 4 -127 8 -168 l6 -75 71 85 c147 175 291 376 343 478 27 52 26 77
-4 229 -31 151 -37 164 -58 131z"/>
<path d="M10686 9073 c-14 -82 -28 -158 -29 -171 -1 -16 28 -60 98 -147 55
-68 103 -120 107 -117 3 4 10 80 14 169 l7 162 -77 125 c-43 69 -81 126 -85
126 -4 0 -20 -66 -35 -147z"/>
<path d="M23038 9059 c-64 -101 -153 -220 -281 -374 l-108 -130 5 -45 c3 -25
8 -98 12 -162 4 -65 10 -118 13 -117 11 1 134 148 192 228 139 196 229 452
217 625 l-3 49 -47 -74z"/>
<path d="M10929 8808 c0 -29 -4 -96 -8 -148 l-6 -94 73 -89 c40 -49 81 -101
92 -115 11 -14 23 -23 25 -20 7 6 -19 132 -46 223 -24 82 -107 282 -120 291
-5 3 -9 -19 -10 -48z"/>
<path d="M22533 8780 c-23 -47 -53 -119 -67 -160 -26 -79 -69 -260 -63 -266 2
-2 45 46 97 107 l92 111 -9 147 -9 146 -41 -85z"/>
<path d="M10634 8744 c-13 -96 -10 -372 5 -454 18 -103 57 -222 99 -305 37
-74 93 -165 102 -165 3 0 2 48 -3 108 -7 95 5 466 18 577 5 39 2 44 -96 160
-55 66 -104 124 -109 129 -4 4 -12 -18 -16 -50z"/>
<path d="M22489 8361 c-81 -103 -106 -140 -111 -174 -9 -50 -26 -260 -22 -266
2 -2 62 52 134 120 l132 124 -7 145 c-4 80 -11 153 -14 163 -6 15 -28 -7 -112
-112z"/>
<path d="M10907 8449 c-14 -78 -20 -516 -8 -619 l12 -105 72 -73 c88 -90 186
-176 193 -170 5 5 -20 426 -36 608 -12 129 -9 123 -119 259 -42 51 -83 102
-92 114 -16 19 -16 19 -22 -14z"/>
<path d="M11196 8073 c2 -21 11 -148 19 -283 8 -135 18 -273 21 -308 l6 -62
129 -95 c70 -52 134 -98 142 -101 11 -4 8 23 -13 123 -46 211 -95 376 -150
499 -33 73 -135 250 -149 258 -5 4 -7 -11 -5 -31z"/>
<path d="M22250 8025 c-57 -94 -95 -174 -134 -284 l-27 -74 88 81 c128 117
120 100 127 240 4 67 5 122 2 122 -2 0 -28 -38 -56 -85z"/>
<path d="M22483 7960 l-132 -123 -5 -61 c-3 -34 -13 -151 -21 -261 -9 -110
-25 -247 -35 -305 -10 -58 -17 -106 -15 -108 6 -7 124 131 166 195 116 178
186 452 177 697 l-3 88 -132 -122z"/>
<path d="M22164 7657 l-111 -112 -21 -92 c-37 -159 -123 -615 -118 -620 6 -6
197 124 249 169 36 31 39 39 62 152 33 163 76 616 59 616 -5 0 -59 -51 -120
-113z"/>
<path d="M10945 7580 c26 -125 131 -319 227 -422 56 -59 59 -61 54 -33 -2 17
-12 85 -22 150 l-17 120 -41 32 c-23 17 -79 67 -125 109 -83 77 -83 78 -76 44z"/>
<path d="M21898 7363 c-86 -116 -156 -240 -216 -382 -56 -133 -127 -339 -120
-346 6 -6 238 122 266 146 15 12 30 75 67 265 26 137 55 284 65 327 10 42 14
77 10 77 -4 0 -36 -39 -72 -87z"/>
<path d="M11250 7332 c0 -22 41 -248 51 -282 8 -25 28 -50 68 -82 64 -52 218
-158 229 -158 9 0 -54 321 -65 330 -12 10 -256 185 -270 194 -7 4 -13 3 -13
-2z"/>
<path d="M11610 7073 c0 -24 61 -308 68 -314 4 -4 115 -67 247 -140 132 -72
264 -145 294 -162 30 -17 52 -25 50 -19 -14 42 -151 215 -244 307 -133 133
-415 355 -415 328z"/>
<path d="M22140 6915 c-7 -8 -66 -49 -131 -91 -129 -83 -118 -68 -149 -194 -6
-25 -23 -80 -37 -123 -14 -43 -23 -81 -20 -84 11 -10 176 159 225 230 55 80
78 123 115 215 25 59 23 79 -3 47z"/>
<path d="M11357 6873 c29 -70 75 -158 116 -218 38 -58 225 -250 234 -242 2 3
-12 57 -31 120 -19 64 -38 132 -42 152 -6 32 -16 43 -78 83 -39 25 -101 67
-137 94 -37 26 -69 48 -72 48 -3 0 1 -17 10 -37z"/>
<path d="M21671 6626 l-144 -81 -54 -169 c-30 -92 -52 -170 -49 -173 6 -7 170
76 242 122 l51 33 46 139 c41 127 65 215 56 212 -2 -1 -69 -38 -148 -83z"/>
<path d="M11702 6643 c20 -78 49 -170 73 -233 25 -64 26 -66 107 -112 168 -96
589 -279 596 -259 4 11 -101 223 -129 263 -11 14 -65 53 -122 86 -117 68 -524
292 -531 292 -2 0 0 -17 6 -37z"/>
<path d="M21310 6420 c-174 -104 -290 -188 -397 -285 -77 -71 -217 -224 -211
-231 5 -4 618 243 633 256 15 13 118 316 113 332 -2 5 -64 -27 -138 -72z"/>
<path d="M11850 6242 c0 -26 114 -186 187 -263 105 -109 238 -201 396 -272
104 -46 247 -100 247 -93 0 2 -35 79 -78 171 l-78 167 -204 83 c-113 45 -265
112 -337 149 -73 36 -133 63 -133 58z"/>
<path d="M12500 6129 c32 -67 62 -125 67 -129 10 -10 235 -102 239 -98 1 2
-30 40 -69 86 -73 83 -167 170 -251 230 l-45 33 59 -122z"/>
<path d="M21516 6181 l-129 -66 -42 -100 c-23 -55 -51 -120 -64 -143 -12 -24
-20 -46 -17 -49 8 -8 131 83 189 140 67 66 128 143 172 219 19 32 35 61 35 64
0 8 -15 1 -144 -65z"/>
<path d="M21000 5961 c-162 -65 -314 -128 -338 -140 -36 -18 -58 -45 -129
-152 -47 -71 -84 -132 -81 -134 7 -7 305 73 448 121 74 25 164 60 200 77 l65
32 67 135 c69 141 85 180 71 180 -4 -1 -141 -54 -303 -119z"/>
<path d="M12611 5893 c6 -16 42 -91 82 -168 l72 -140 140 -38 c77 -20 148 -36
157 -35 12 2 -6 37 -80 148 l-97 144 -135 58 c-74 32 -138 58 -142 58 -4 0 -2
-12 3 -27z"/>
<path d="M20410 5692 c-130 -78 -330 -236 -316 -249 4 -4 265 63 272 70 15 14
152 237 146 237 -4 0 -50 -26 -102 -58z"/>
<path d="M13000 5736 c0 -3 26 -44 58 -93 32 -48 67 -104 79 -123 21 -33 28
-36 163 -70 77 -20 139 -33 138 -29 -5 12 -145 136 -202 178 -61 45 -216 141
-228 141 -5 0 -8 -2 -8 -4z"/>
<path d="M21070 5661 c-37 -22 -272 -97 -459 -146 -113 -30 -210 -60 -216 -67
-7 -7 -43 -62 -80 -123 -37 -60 -75 -120 -83 -133 -18 -27 -33 -29 162 19 284
70 497 192 638 366 75 93 83 110 38 84z"/>
<path d="M12800 5516 c0 -4 25 -48 56 -99 154 -254 318 -413 525 -511 108 -51
161 -68 143 -45 -6 8 -39 50 -74 94 -35 44 -123 170 -196 281 l-132 201 -149
38 c-81 20 -154 40 -160 42 -7 3 -13 2 -13 -1z"/>
<path d="M20215 5414 c-230 -63 -212 -54 -300 -156 -100 -115 -118 -138 -113
-143 4 -4 337 41 343 46 7 9 153 236 164 257 14 26 18 27 -94 -4z"/>
<path d="M13210 5410 c0 -9 120 -196 183 -285 80 -113 172 -227 219 -272 41
-40 47 -42 148 -57 58 -8 134 -17 169 -20 76 -7 90 -34 -118 218 -242 294
-283 339 -316 348 -155 43 -285 74 -285 68z"/>
<path d="M19759 5261 c-127 -57 -340 -184 -328 -195 2 -2 60 5 129 15 69 10
130 19 137 19 9 0 99 101 172 193 20 25 8 21 -110 -32z"/>
<path d="M13662 5261 c99 -124 333 -405 369 -443 l44 -48 161 -6 c96 -4 168
-3 178 3 14 8 1 23 -81 94 -252 219 -403 318 -613 403 -80 33 -87 33 -58 -3z"/>
<path d="M19930 5074 c-91 -12 -170 -23 -176 -23 -7 -1 -75 -77 -153 -170 -77
-93 -187 -217 -244 -275 -114 -118 -114 -120 17 -86 233 61 431 201 623 439
72 91 112 145 101 140 -2 -1 -77 -12 -168 -25z"/>
<path d="M19476 5014 c-139 -22 -152 -26 -195 -60 -40 -31 -142 -124 -435
-395 -39 -37 -68 -70 -65 -73 4 -4 86 -7 183 -7 l177 0 58 50 c32 28 98 93
147 144 93 98 304 347 304 360 0 9 0 9 -174 -19z"/>
<path d="M19052 4915 c-171 -57 -316 -132 -521 -269 -191 -127 -194 -115 29
-140 l135 -16 50 48 c58 56 328 307 398 370 27 24 47 45 45 47 -2 3 -63 -16
-136 -40z"/>
<path d="M13750 4721 c101 -85 235 -155 376 -196 141 -41 142 -38 20 84 l-108
108 -101 6 c-56 4 -127 9 -157 13 l-55 6 25 -21z"/>
<path d="M14242 4596 l117 -114 81 -7 c44 -4 131 -4 192 0 l111 7 -119 114
-119 113 -190 0 -190 0 117 -113z"/>
<path d="M14700 4599 l115 -110 65 6 c36 3 151 17 255 30 105 13 228 27 273
31 49 4 79 11 74 16 -5 5 -54 24 -109 43 -178 60 -425 95 -668 94 l-120 0 115
-110z"/>
<path d="M17620 4524 c-103 -9 -357 -61 -347 -70 2 -3 148 -41 323 -85 231
-59 325 -79 342 -72 26 9 272 185 272 194 0 17 -472 44 -590 33z"/>
<path d="M15460 4509 c-47 -5 -194 -23 -327 -39 -134 -17 -246 -30 -249 -30
-11 0 112 -97 199 -158 101 -70 84 -68 312 -31 134 22 495 108 495 118 0 4
-62 39 -139 79 -149 78 -141 76 -291 61z"/>
<path d="M15855 4455 l120 -67 135 33 c152 36 153 33 -20 70 -56 13 -148 23
-225 26 l-130 5 120 -67z"/>
<path d="M18152 4378 c-84 -61 -136 -105 -129 -109 16 -9 121 -26 231 -38 l89
-10 71 49 c95 66 203 153 205 165 1 9 -230 43 -300 44 -17 1 -72 -32 -167
-101z"/>
<path d="M16557 4450 c-38 -5 -71 -10 -73 -13 -5 -4 257 -107 274 -107 6 0 70
23 143 52 119 48 129 53 103 60 -43 13 -369 18 -447 8z"/>
<path d="M14575 4420 l-120 -5 40 -26 c64 -42 164 -90 240 -116 76 -26 227
-53 290 -52 l40 0 -35 27 c-19 15 -78 62 -131 105 -110 87 -71 79 -324 67z"/>
<path d="M18640 4375 c-36 -31 -93 -77 -127 -102 -35 -24 -63 -47 -63 -50 0
-12 169 10 260 33 92 23 267 102 320 144 l25 20 -56 0 c-31 0 -109 3 -175 6
l-119 5 -65 -56z"/>
<path d="M16210 4388 c-74 -16 -139 -33 -143 -38 -10 -9 280 -170 307 -170 20
0 275 97 290 111 5 5 -3 13 -20 20 -110 43 -287 109 -292 108 -4 0 -68 -14
-142 -31z"/>
<path d="M16997 4362 c-82 -32 -148 -62 -147 -67 6 -24 416 -172 585 -210
l108 -24 96 49 c53 28 125 69 161 91 l65 42 -225 58 c-192 50 -488 121 -493
118 -1 0 -69 -26 -150 -57z"/>
<path d="M15815 4289 c-182 -47 -408 -95 -492 -105 -35 -3 -60 -10 -58 -15 10
-15 211 -87 287 -103 99 -21 307 -21 424 -1 114 20 314 75 314 86 0 5 -3 9 -7
9 -5 0 -77 38 -161 85 -85 47 -154 85 -155 84 -1 0 -69 -18 -152 -40z"/>
<path d="M16593 4202 c-79 -32 -143 -60 -143 -63 0 -9 175 -81 275 -113 200
-65 427 -80 598 -38 130 32 131 35 30 62 -111 29 -280 87 -451 156 -73 30
-140 54 -150 53 -9 0 -81 -26 -159 -57z"/>
<path d="M17867 4179 c-41 -27 -108 -66 -147 -88 l-72 -39 58 -6 c127 -15 335
25 473 91 l76 36 -115 18 c-63 10 -134 22 -156 27 -40 9 -45 7 -117 -39z"/>
<path d="M19080 2694 c-12 -27 -46 -106 -77 -177 -31 -70 -54 -130 -51 -133 3
-2 75 -3 160 -2 l154 3 -75 172 c-42 94 -79 175 -83 179 -4 4 -17 -15 -28 -42z"/>
<path d="M25202 2581 c-39 -88 -73 -170 -77 -181 -6 -20 -2 -20 154 -20 l160
0 -18 43 c-94 217 -134 303 -140 310 -5 4 -40 -64 -79 -152z"/>
<path d="M13915 2878 c-87 -44 -134 -111 -165 -233 -35 -139 -22 -321 31 -428
111 -221 387 -219 491 4 69 146 68 382 -2 519 -30 59 -85 116 -134 139 -58 29
-165 28 -221 -1z"/>
<path d="M29635 2879 c-121 -60 -185 -199 -185 -404 0 -194 65 -334 185 -398
54 -29 163 -30 220 -2 121 59 186 200 186 405 -1 200 -66 342 -185 399 -57 28
-165 28 -221 0z"/>
<path d="M15553 2879 l-33 -10 0 -190 0 -191 66 7 c174 18 241 79 232 211 -3
52 -9 70 -34 101 -53 66 -151 97 -231 72z"/>
</g>
</svg>
